<svg width="15" height="18" viewBox="0 0 15 18" fill="none" xmlns="http://www.w3.org/2000/svg">
<path d="M7.5 0.671875C4.6084 0.671875 2.25 3.03027 2.25 5.92188C2.25 7.72949 3.17285 9.33496 4.57031 10.2812C1.89551 11.4297 0 14.084 0 17.1719H1.5C1.5 15.0039 2.64551 13.1172 4.35938 12.0625C4.86328 13.2988 6.09082 14.1719 7.5 14.1719C8.90918 14.1719 10.1367 13.2988 10.6406 12.0625C12.3545 13.1172 13.5 15.0039 13.5 17.1719H15C15 14.084 13.1045 11.4297 10.4297 10.2812C11.8271 9.33496 12.75 7.72949 12.75 5.92188C12.75 3.03027 10.3916 0.671875 7.5 0.671875ZM7.5 2.17188C9.58008 2.17188 11.25 3.8418 11.25 5.92188C11.25 8.00195 9.58008 9.67188 7.5 9.67188C5.41992 9.67188 3.75 8.00195 3.75 5.92188C3.75 3.8418 5.41992 2.17188 7.5 2.17188ZM7.5 11.1719C8.11523 11.1719 8.70117 11.2598 9.25781 11.4297C8.99707 12.1533 8.31738 12.6719 7.5 12.6719C6.68262 12.6719 6.00293 12.1533 5.74219 11.4297C6.29883 11.2598 6.88477 11.1719 7.5 11.1719Z" fill="#9D1FFE"/>
</svg>
