<svg width="20" height="21" viewBox="0 0 20 21" fill="none" xmlns="http://www.w3.org/2000/svg">
<path d="M4.26336 0.671875C3.87078 0.671875 3.48406 0.8125 3.1618 1.07031L3.11492 1.09375L3.09148 1.11719L0.747734 3.53125L0.771171 3.55469C0.0475381 4.22266 -0.175118 5.22168 0.138359 6.08594C0.141288 6.0918 0.135429 6.10352 0.138359 6.10938C0.774101 7.92871 2.40008 11.4414 5.57586 14.6172C8.76336 17.8047 12.3229 19.3662 14.0837 20.0547H14.1071C15.0182 20.3594 16.0055 20.1426 16.7087 19.5391L19.0759 17.1719C19.697 16.5508 19.697 15.4727 19.0759 14.8516L16.029 11.8047L16.0055 11.7578C15.3845 11.1367 14.2829 11.1367 13.6618 11.7578L12.1618 13.2578C11.6198 12.9971 10.3278 12.3291 9.09148 11.1484C7.86394 9.97656 7.23699 8.62891 7.00555 8.10156L8.50555 6.60156C9.13543 5.97168 9.14715 4.92285 8.48211 4.30469L8.50555 4.28125L8.43523 4.21094L5.43523 1.11719L5.4118 1.09375L5.36492 1.07031C5.04266 0.8125 4.65594 0.671875 4.26336 0.671875ZM4.26336 2.17188C4.31902 2.17188 4.37469 2.19824 4.42742 2.24219L7.42742 5.3125L7.49773 5.38281C7.49187 5.37695 7.54168 5.45605 7.45086 5.54688L5.57586 7.42188L5.2243 7.75L5.38836 8.21875C5.38836 8.21875 6.24969 10.5244 8.06023 12.25L8.2243 12.3906C9.96746 13.9814 12.0212 14.8516 12.0212 14.8516L12.4899 15.0625L14.7165 12.8359C14.8454 12.707 14.822 12.707 14.9509 12.8359L18.0212 15.9063C18.1501 16.0352 18.1501 15.9883 18.0212 16.1172L15.7243 18.4141C15.3786 18.71 15.0124 18.7715 14.5759 18.625C12.8766 17.957 9.57488 16.5068 6.63055 13.5625C3.66277 10.5947 2.11297 7.22852 1.54461 5.59375C1.43035 5.28906 1.51238 4.83789 1.77898 4.60938L1.82586 4.5625L4.0993 2.24219C4.15203 2.19824 4.20769 2.17188 4.26336 2.17188Z" fill="#9D1FFE"/>
</svg>
