<svg width="47" height="34" viewBox="0 0 47 34" fill="none" xmlns="http://www.w3.org/2000/svg">
<path d="M20.125 24.1875C20.0833 25.6458 19.7708 27.0208 19.1875 28.3125C18.6042 29.5625 17.7917 30.6458 16.75 31.5625C15.75 32.4375 14.5417 33.1042 13.125 33.5625C11.75 33.9792 10.2292 34.0625 8.5625 33.8125C7.35417 33.6458 6.22917 33.3125 5.1875 32.8125C4.14583 32.2708 3.22917 31.5833 2.4375 30.75C1.6875 29.9167 1.08333 28.9583 0.625 27.875C0.208333 26.75 0 25.5208 0 24.1875C0 22.5625 0.291667 20.75 0.875001 18.75C1.5 16.75 2.45833 14.6875 3.75 12.5625C5.04167 10.4375 6.6875 8.3125 8.6875 6.1875C10.6875 4.02083 13.1042 1.95834 15.9375 0L21.6875 3.625C21.1042 4.375 20.4792 5.22916 19.8125 6.1875C19.1875 7.14583 18.5833 8.16667 18 9.25C17.4167 10.2917 16.875 11.3542 16.375 12.4375C15.875 13.5208 15.4792 14.5625 15.1875 15.5625C15.9375 15.8958 16.625 16.2917 17.25 16.75C17.875 17.1667 18.3958 17.7083 18.8125 18.375C19.2708 19.0417 19.6042 19.8542 19.8125 20.8125C20.0625 21.7708 20.1667 22.8958 20.125 24.1875ZM45.125 24.1875C45.0833 25.6458 44.7708 27.0208 44.1875 28.3125C43.6042 29.5625 42.7917 30.6458 41.75 31.5625C40.75 32.4375 39.5417 33.1042 38.125 33.5625C36.75 33.9792 35.2292 34.0625 33.5625 33.8125C32.3542 33.6458 31.2292 33.3125 30.1875 32.8125C29.1458 32.2708 28.2292 31.5833 27.4375 30.75C26.6875 29.9167 26.0833 28.9583 25.625 27.875C25.2083 26.75 25 25.5208 25 24.1875C25 22.5625 25.2917 20.75 25.875 18.75C26.5 16.75 27.4583 14.6875 28.75 12.5625C30.0417 10.4375 31.6875 8.3125 33.6875 6.1875C35.6875 4.02083 38.1042 1.95834 40.9375 0L46.6875 3.625C46.1042 4.375 45.4792 5.22916 44.8125 6.1875C44.1875 7.14583 43.5833 8.16667 43 9.25C42.4167 10.2917 41.875 11.3542 41.375 12.4375C40.875 13.5208 40.4792 14.5625 40.1875 15.5625C40.9375 15.8958 41.625 16.2917 42.25 16.75C42.875 17.1667 43.3958 17.7083 43.8125 18.375C44.2708 19.0417 44.6042 19.8542 44.8125 20.8125C45.0625 21.7708 45.1667 22.8958 45.125 24.1875Z" fill="#9D1FFE"/>
</svg>
