<svg width="47" height="34" viewBox="0 0 47 34" fill="none" xmlns="http://www.w3.org/2000/svg">
<path d="M26.5625 24.1875C26.6042 25.6458 26.9167 27.0208 27.5 28.3125C28.0833 29.5625 28.8958 30.6458 29.9375 31.5625C30.9375 32.4375 32.1458 33.1042 33.5625 33.5625C34.9375 33.9792 36.4583 34.0625 38.125 33.8125C39.3333 33.6458 40.4583 33.3125 41.5 32.8125C42.5417 32.2708 43.4583 31.5833 44.25 30.75C45 29.9167 45.6042 28.9583 46.0625 27.875C46.4792 26.75 46.6875 25.5208 46.6875 24.1875C46.6875 22.5625 46.3958 20.75 45.8125 18.75C45.1875 16.75 44.2292 14.6875 42.9375 12.5625C41.6458 10.4375 40 8.3125 38 6.1875C36 4.02083 33.5833 1.95834 30.75 0L25 3.625C25.5833 4.375 26.2083 5.22916 26.875 6.1875C27.5 7.14583 28.1042 8.16667 28.6875 9.25C29.2708 10.2917 29.8125 11.3542 30.3125 12.4375C30.8125 13.5208 31.2083 14.5625 31.5 15.5625C30.75 15.8958 30.0625 16.2917 29.4375 16.75C28.8125 17.1667 28.2917 17.7083 27.875 18.375C27.4167 19.0417 27.0833 19.8542 26.875 20.8125C26.625 21.7708 26.5208 22.8958 26.5625 24.1875ZM1.5625 24.1875C1.60417 25.6458 1.91667 27.0208 2.5 28.3125C3.08333 29.5625 3.89583 30.6458 4.9375 31.5625C5.9375 32.4375 7.14583 33.1042 8.5625 33.5625C9.9375 33.9792 11.4583 34.0625 13.125 33.8125C14.3333 33.6458 15.4583 33.3125 16.5 32.8125C17.5417 32.2708 18.4583 31.5833 19.25 30.75C20 29.9167 20.6042 28.9583 21.0625 27.875C21.4792 26.75 21.6875 25.5208 21.6875 24.1875C21.6875 22.5625 21.3958 20.75 20.8125 18.75C20.1875 16.75 19.2292 14.6875 17.9375 12.5625C16.6458 10.4375 15 8.3125 13 6.1875C11 4.02083 8.58333 1.95834 5.75 0L-3.8147e-06 3.625C0.583328 4.375 1.20833 5.22916 1.875 6.1875C2.5 7.14583 3.10416 8.16667 3.6875 9.25C4.27083 10.2917 4.8125 11.3542 5.3125 12.4375C5.8125 13.5208 6.20833 14.5625 6.5 15.5625C5.75 15.8958 5.0625 16.2917 4.4375 16.75C3.8125 17.1667 3.29166 17.7083 2.875 18.375C2.41666 19.0417 2.08333 19.8542 1.875 20.8125C1.625 21.7708 1.52083 22.8958 1.5625 24.1875Z" fill="#FAB319"/>
</svg>
