<?xml version="1.0" standalone="no"?>
<!DOCTYPE svg PUBLIC "-//W3C//DTD SVG 20010904//EN"
 "http://www.w3.org/TR/2001/REC-SVG-20010904/DTD/svg10.dtd">
<svg version="1.0" xmlns="http://www.w3.org/2000/svg"
 width="101.000000pt" height="101.000000pt" viewBox="0 0 101.000000 101.000000"
 preserveAspectRatio="xMidYMid meet">
<metadata>
Created by potrace 1.14, written by Peter Selinger 2001-2017
</metadata>
<g transform="translate(0.000000,101.000000) scale(0.100000,-0.100000)"
fill="#000000" stroke="none">
<path d="M365 984 c-241 -58 -428 -341 -344 -519 40 -86 109 -120 184 -90 l40
15 -37 -3 c-25 -2 -35 0 -28 7 6 6 -10 19 -49 37 -82 38 -105 78 -99 167 6 77
24 123 45 115 11 -4 11 -8 -3 -18 -16 -11 -16 -12 1 -18 12 -5 18 -1 22 12 3
13 11 17 25 13 18 -4 18 -6 4 -14 -9 -5 -16 -13 -16 -18 0 -16 28 -11 38 6 8
15 15 14 61 -9 71 -36 127 -83 171 -144 36 -51 37 -53 28 -113 -10 -73 -62
-191 -109 -243 -33 -37 -35 -37 -57 -22 -22 16 -24 29 -13 85 1 3 13 -8 27
-25 24 -28 24 -28 9 -3 -10 15 -17 43 -17 63 0 22 -5 35 -13 35 -7 0 -15 -4
-17 -10 -2 -6 -8 -6 -18 0 -13 9 -13 11 0 21 13 9 13 10 0 6 -10 -2 -16 -20
-17 -53 -5 -88 -8 -99 -25 -112 -21 -15 -24 -52 -6 -70 16 -16 57 -15 87 2 22
12 29 11 70 -19 25 -18 65 -38 89 -45 66 -17 183 -10 258 16 355 124 458 555
194 815 -131 130 -304 177 -485 133z m288 -29 c31 -10 57 -23 57 -29 0 -6 -13
-45 -29 -86 -31 -80 -76 -219 -85 -260 -3 -14 -10 -43 -15 -65 -6 -22 -10 -49
-10 -60 1 -12 4 -9 8 9 3 17 6 -53 6 -155 1 -155 4 -189 18 -217 10 -17 23
-32 30 -33 6 0 -1 -7 -18 -14 -48 -22 -210 -15 -260 12 -57 30 -80 57 -63 74
54 58 107 153 128 230 7 25 15 37 22 33 7 -4 8 -3 4 5 -4 7 -10 44 -12 84 -8
145 -55 250 -152 346 -62 61 -64 65 -46 79 89 68 284 90 417 47z m169 -99 c45
-42 89 -101 81 -109 -9 -9 -23 -9 -22 1 3 20 -2 32 -12 26 -6 -3 -9 -14 -6
-24 3 -13 -7 -24 -35 -40 -37 -21 -40 -21 -34 -4 3 11 2 25 -3 32 -6 11 -11
10 -25 -3 -20 -21 -20 -32 0 -43 13 -7 9 -14 -23 -43 -43 -38 -91 -98 -117
-144 l-16 -30 5 40 c11 76 16 100 45 203 17 56 30 105 30 109 0 4 5 2 12 -5
18 -18 31 -15 47 9 12 21 12 22 -18 16 l-31 -7 15 36 c8 20 15 38 15 41 0 8
59 -31 92 -61z m-561 -33 c58 -54 111 -140 134 -215 24 -81 20 -96 -12 -56
-64 77 -145 131 -243 162 l-69 22 16 25 c27 40 96 109 111 109 7 0 35 -21 63
-47z m681 -136 c83 -201 20 -428 -154 -561 l-38 -28 0 27 c0 17 -11 38 -32 58
-18 17 -27 27 -20 23 6 -4 12 -2 12 3 0 6 7 11 15 11 20 0 19 39 -1 68 -15 22
-11 47 7 36 12 -7 39 14 39 30 0 6 -4 5 -9 -3 -6 -10 -17 -11 -37 -6 -16 4
-23 10 -16 12 21 8 13 33 -11 33 -30 0 -38 -9 -28 -29 6 -10 4 -20 -4 -28 -11
-10 -15 -10 -18 0 -4 9 -6 9 -6 -1 -1 -7 5 -15 13 -18 11 -4 13 -12 6 -29 -12
-32 -8 -65 7 -65 7 0 13 -4 13 -10 0 -5 -9 -10 -20 -10 -11 0 -20 -4 -20 -10
0 -5 12 -10 27 -10 33 0 63 -26 63 -54 -1 -63 -81 -81 -111 -25 -8 15 -12 76
-13 169 l-1 145 35 70 c43 87 128 173 212 214 34 17 64 31 67 31 3 0 14 -19
23 -43z m-345 -179 c-3 -7 -5 -2 -5 12 0 14 2 19 5 13 2 -7 2 -19 0 -25z
m-442 -116 c-3 -3 -11 0 -18 7 -9 10 -8 11 6 5 10 -3 15 -9 12 -12z m32 -271
c-3 -14 0 -17 14 -14 11 3 19 12 19 20 0 13 3 13 16 2 14 -12 14 -14 -2 -26
-36 -26 -83 -11 -70 22 8 22 29 18 23 -4z"/>
<path d="M666 921 c-3 -5 1 -14 8 -20 16 -13 32 2 21 19 -8 12 -22 13 -29 1z"/>
<path d="M267 914 c-4 -4 -7 -18 -7 -31 0 -28 23 -27 28 1 4 20 -11 40 -21 30z"/>
<path d="M640 888 c0 -16 19 -38 33 -38 4 0 7 10 5 22 -3 25 -38 39 -38 16z"/>
<path d="M303 874 c-12 -23 -6 -44 12 -44 19 0 25 26 11 46 -13 17 -14 17 -23
-2z"/>
<path d="M626 851 c-9 -14 4 -41 21 -41 9 0 13 8 11 22 -3 23 -23 35 -32 19z"/>
<path d="M340 835 c-15 -18 -4 -56 16 -48 15 5 20 63 5 63 -5 0 -14 -7 -21
-15z"/>
<path d="M600 795 c0 -29 27 -45 40 -24 10 16 5 25 -21 39 -16 9 -19 7 -19
-15z"/>
<path d="M383 798 c-19 -25 -22 -47 -6 -59 13 -11 18 -10 29 6 25 34 3 86 -23
53z"/>
<path d="M570 747 c0 -28 17 -47 42 -47 26 0 23 35 -4 54 -30 22 -38 20 -38
-7z"/>
<path d="M423 743 c-33 -28 -35 -73 -3 -73 27 0 47 42 34 71 -9 20 -10 20 -31
2z"/>
<path d="M540 680 c0 -27 22 -50 48 -50 20 0 20 42 1 61 -29 29 -49 24 -49
-11z"/>
<path d="M453 668 c-22 -11 -33 -34 -26 -55 11 -31 61 -2 68 40 6 29 -4 33
-42 15z"/>
<path d="M515 600 c16 -30 56 -42 70 -20 13 22 -15 50 -51 50 l-35 0 16 -30z"/>
<path d="M498 443 c-9 -3 -15 -10 -12 -18 9 -22 -15 -57 -34 -51 -15 5 -17 -1
-14 -39 2 -25 8 -43 13 -40 11 7 29 -28 29 -57 0 -18 2 -20 10 -8 5 8 7 25 3
38 -4 17 -2 21 10 16 12 -4 14 -11 6 -31 -7 -19 -6 -24 3 -20 7 2 14 10 14 18
1 8 2 20 3 27 0 7 5 11 10 7 10 -6 24 11 27 33 1 6 -2 12 -7 12 -5 0 -9 8 -9
18 0 14 2 15 10 2 7 -11 9 -4 9 25 -1 22 -3 32 -6 22 -7 -27 -28 -14 -25 15 3
26 -11 37 -40 31z m-18 -87 c0 -2 -3 -11 -6 -20 -9 -23 -24 -20 -24 4 0 11 7
20 15 20 8 0 15 -2 15 -4z"/>
<path d="M725 879 c-4 -6 -4 -13 -1 -16 8 -8 36 5 36 17 0 13 -27 13 -35 -1z"/>
<path d="M693 785 c-3 -9 -2 -19 1 -23 8 -8 38 10 44 26 6 18 -38 14 -45 -3z"/>
<path d="M818 763 c-17 -20 -13 -43 7 -43 17 0 30 39 18 51 -6 6 -15 3 -25 -8z"/>
<path d="M687 743 c-11 -10 -8 -43 4 -43 18 0 46 19 53 35 4 11 -2 15 -23 15
-15 0 -31 -3 -34 -7z"/>
<path d="M689 686 c-31 -15 -34 -63 -4 -58 20 3 55 37 55 52 0 15 -27 18 -51
6z"/>
<path d="M180 840 c0 -5 9 -10 20 -10 11 0 20 5 20 10 0 6 -9 10 -20 10 -11 0
-20 -4 -20 -10z"/>
<path d="M214 816 c-17 -13 -17 -14 3 -24 15 -8 25 -8 37 1 15 11 15 13 -3 24
-15 9 -23 9 -37 -1z"/>
<path d="M240 766 c0 -17 31 -29 53 -20 25 9 8 34 -24 34 -19 0 -29 -5 -29
-14z"/>
<path d="M104 754 c3 -9 6 -18 6 -20 0 -2 5 -4 10 -4 6 0 10 9 10 20 0 12 -7
20 -16 20 -11 0 -14 -5 -10 -16z"/>
<path d="M147 757 c-6 -15 10 -37 26 -37 12 0 4 43 -9 47 -6 2 -14 -3 -17 -10z"/>
<path d="M199 748 c-4 -43 19 -67 38 -41 9 11 9 21 2 34 -11 21 -38 26 -40 7z"/>
<path d="M283 733 c-29 -6 -29 -19 1 -38 24 -16 56 -11 56 9 0 13 -20 37 -29
35 -4 -1 -16 -4 -28 -6z"/>
<path d="M315 666 c-18 -13 -18 -14 2 -25 22 -11 53 -6 53 10 0 18 -37 28 -55
15z"/>
<path d="M887 704 c-9 -10 2 -24 19 -24 8 0 14 7 14 15 0 15 -21 21 -33 9z"/>
<path d="M840 681 c0 -5 7 -14 15 -21 12 -10 19 -10 28 -1 9 9 9 14 -3 21 -19
12 -40 13 -40 1z"/>
<path d="M795 650 c-8 -13 12 -39 28 -36 7 1 18 5 26 10 12 8 11 11 -4 23 -22
16 -41 17 -50 3z"/>
<path d="M744 609 c-3 -6 0 -18 9 -26 12 -12 19 -13 36 -3 18 9 20 14 10 26
-14 17 -45 19 -55 3z"/>
<path d="M702 562 c-13 -9 -6 -42 8 -42 5 0 14 -2 22 -5 7 -3 22 1 33 9 16 12
17 16 6 30 -14 17 -48 21 -69 8z"/>
<path d="M913 562 c-8 -5 -7 -10 2 -19 6 -6 17 -8 24 -4 9 6 9 10 -1 19 -8 6
-19 8 -25 4z"/>
<path d="M661 496 c-10 -12 -7 -18 13 -31 24 -16 28 -16 52 0 24 16 25 17 7
30 -24 19 -57 19 -72 1z"/>
<path d="M870 432 c0 -6 -3 -18 -7 -28 -4 -12 -3 -15 6 -10 6 4 18 3 25 -3 11
-9 15 -6 18 14 3 14 2 25 -3 25 -4 0 -14 3 -23 6 -9 3 -16 2 -16 -4z"/>
<path d="M755 390 c-3 -5 -1 -10 4 -10 6 0 11 5 11 10 0 6 -2 10 -4 10 -3 0
-8 -4 -11 -10z"/>
<path d="M153 663 c-19 -7 -16 -20 7 -26 10 -3 24 1 30 7 16 21 -6 32 -37 19z"/>
<path d="M194 633 c-15 -16 -15 -18 6 -27 22 -10 52 0 52 19 -1 19 -41 25 -58
8z"/>
<path d="M231 586 c-11 -13 -9 -17 14 -28 29 -13 60 -2 60 23 0 20 -59 24 -74
5z"/>
<path d="M277 536 c-17 -13 -17 -15 5 -30 41 -29 87 -12 67 26 -11 21 -46 23
-72 4z"/>
<path d="M324 475 c-15 -11 -16 -15 -5 -29 21 -25 81 -18 81 9 0 27 -49 40
-76 20z"/>
<path d="M107 328 c-3 -10 1 -22 11 -29 9 -8 14 -9 10 -5 -4 5 -2 16 5 24 8
11 8 14 0 9 -6 -4 -13 -2 -15 5 -3 8 -7 6 -11 -4z"/>
<path d="M85 231 c-20 -4 -26 -9 -17 -14 6 -5 12 -17 12 -29 0 -17 3 -18 15
-8 8 7 22 10 30 6 13 -4 14 -2 5 14 -6 11 -8 25 -5 30 7 11 5 11 -40 1z"/>
</g>
</svg>
