<svg width="69" height="23" viewBox="0 0 69 23" fill="none" xmlns="http://www.w3.org/2000/svg">
<path d="M65.8723 8.10297H68.9922C68.5976 5.06846 66.3798 3.47343 63.2973 3.47343C60.1775 3.47343 58.0912 5.12685 58.0912 7.96681C58.0912 11.1958 60.7789 11.9155 62.2073 12.2073C64.0492 12.5769 65.8535 12.6158 65.8535 14.2497C65.8535 15.3585 64.9513 15.9031 63.6733 15.9031C62.0945 15.9031 61.0421 15.0861 60.7789 13.6079H57.6965C57.8844 16.7979 60.1211 18.5097 63.4102 18.5097C66.455 18.5097 68.9546 17.0703 68.9546 13.958C68.9546 10.6122 66.0791 10.0093 64.068 9.698C62.6959 9.48406 61.1924 9.28951 61.1924 7.79172C61.1924 6.74133 61.9629 6.09945 63.2598 6.09945C64.7634 6.09945 65.6655 6.97483 65.8723 8.10297Z" fill="#9D1FFE"/>
<path d="M55.9863 3.95976H53.0354V18.0623H55.9863V3.95976Z" fill="#9D1FFE"/>
<path d="M44.1268 13.141H47.9798C47.3783 14.6583 46.025 15.3779 44.465 15.3779C41.7211 15.3779 40.443 13.1799 40.443 11.0013C40.443 8.8032 41.6458 6.56629 44.4463 6.56629C46.1566 6.56629 47.4346 7.38326 47.9233 8.84213L51.0996 8.84214C50.5546 5.55485 47.773 3.66802 44.4839 3.66802C40.4242 3.66802 37.3794 6.52736 37.3794 11.0402C37.3794 15.6114 40.6872 18.3152 44.465 18.3152C48.1865 18.3152 51.0996 15.8059 51.0996 11.8767V10.729H44.1268V13.141Z" fill="#9D1FFE"/>
<path d="M30.6319 3.66801C27.2489 3.66801 24.7491 5.866 24.7679 9.52294H27.8127C27.7751 7.92791 28.7524 6.46904 30.4816 6.46904C31.9852 6.46904 32.8685 7.55835 32.8685 8.8032C32.8685 10.0481 31.9852 10.7484 30.35 11.5071C28.1134 12.538 26.5159 13.1993 24.8807 13.7829V18.0623H36.2704V15.1834H28.4512C28.4512 15.1834 28.4773 15.175 28.4901 15.171C29.82 14.7539 30.8192 14.3008 32.004 13.7635C34.5413 12.5964 35.9885 11.1374 35.9885 8.64765C35.9885 5.59366 33.8083 3.66801 30.6319 3.66801Z" fill="#9D1FFE"/>
<path d="M16.7613 13.1021C12.9272 13.1216 12.3069 15.5141 12.1002 17.5371L12.0063 18.4319H11.2356L11.1417 17.5371C10.935 15.5141 10.2959 13.1216 6.5933 13.1021C5.97308 11.7793 5.70995 10.7095 5.70995 9.50348C5.70995 6.48851 8.09692 3.66792 11.6303 3.66792C15.1637 3.66792 17.5131 6.46895 17.5131 9.52302C17.5131 10.7095 17.4004 11.7793 16.7613 13.1021ZM11.5928 0.0109863C5.76639 0.0109863 0.992432 4.95178 0.992432 11.0012C0.992432 17.0702 5.76639 22.0109 11.5928 22.0109C17.4755 22.0109 22.2307 17.0702 22.2307 11.0012C22.2307 4.9518 17.4755 0.0109863 11.5928 0.0109863Z" fill="#9D1FFE"/>
</svg>
