<svg width="148" height="25" viewBox="0 0 148 25" fill="none" xmlns="http://www.w3.org/2000/svg">
<path d="M12.6944 14.3004C12.2498 13.3665 11.9385 12.6442 11.7755 12.1627C11.5236 11.3966 11.3457 10.5502 11.2642 9.64548C11.1827 8.73346 11.1234 7.87982 11.0937 7.09913C11.0641 6.32574 11.0493 5.56695 11.0493 4.82274C11.0493 4.02016 10.9974 3.47293 10.9011 3.13731C10.827 2.88924 10.5824 2.47338 9.82651 2.47338C9.38187 2.47338 9.01875 2.75062 8.74456 3.30513C8.66304 3.48753 8.48519 3.98368 8.19618 4.82274C7.87011 5.82961 7.52181 6.77079 7.15869 7.63174C6.8178 8.44161 6.47691 9.15664 6.13602 9.76952L4.15736 3.71371C3.99433 3.26135 3.83872 2.92573 3.68309 2.69226C3.50524 2.4223 3.15694 2.10127 2.48257 2.10127C1.97124 2.10127 1.58588 2.46607 1.31909 3.18839C1.15606 3.66264 1.06714 4.17337 1.06714 4.72058C1.05972 4.83003 0.926333 5.96093 0.32607 10.7253C0.111162 12.4326 0 13.8116 0 14.833C0 15.3875 0.0444585 15.8691 0.133386 16.2777C0.244546 16.803 0.585442 17.0875 1.08937 17.0875C1.48954 17.0875 1.83784 16.9124 2.08239 16.5841C2.2306 16.3871 2.43068 15.9566 2.5122 14.5266L2.76416 9.84246C2.83085 8.57294 2.91238 7.75577 2.97907 7.24504C3.22362 7.96006 3.51265 8.88667 3.84613 10.0249C4.89103 13.5562 5.41717 13.8481 5.82476 13.8481C6.28422 13.8481 6.74369 13.403 7.33654 12.3961C7.57368 12.0021 8.02573 11.0317 8.72233 9.44119C8.72974 9.57981 8.73716 9.69654 8.73716 9.79869C8.73716 10.8858 9.08544 12.294 9.78205 13.9794C10.5972 15.9493 11.4198 16.9051 12.2868 16.9051C12.6351 16.9051 12.939 16.8249 13.1836 16.6571C13.4652 16.4674 13.6059 16.1609 13.6059 15.7378C13.6059 15.5043 13.4651 15.2416 13.1613 14.906C12.8797 14.5995 12.7537 14.4026 12.6944 14.3004Z" fill="#9D1FFE"/>
<path d="M22.8173 7.99639L21.4686 2.73588C21.3278 2.16678 21.1944 1.7509 21.0684 1.45906C20.8609 0.970217 20.5719 0.868073 20.3644 0.868073C19.9568 0.868073 19.6159 1.30585 19.1787 2.37838C18.7414 3.4801 18.3487 4.56722 18.0152 5.61787C17.3482 7.60971 16.6516 9.97365 15.9402 12.6294C15.0657 15.9054 14.9546 16.5548 14.9546 16.7518C14.9546 17.153 15.0139 17.4668 15.1324 17.7149C15.2807 18.0213 15.5623 18.1891 15.9254 18.1891C16.2515 18.1891 16.5331 18.1307 16.7628 18.0067C17.0444 17.8535 17.1926 17.6127 17.1926 17.3063C17.1926 16.832 17.2371 16.2775 17.3334 15.6428C17.3482 15.4895 17.4372 14.9861 17.5187 14.5337C18.4228 14.5192 19.2824 14.417 20.0828 14.2273C20.2606 14.1835 20.8979 14.0011 22.0244 13.6582C22.0836 13.7968 22.1652 13.9792 22.2689 14.2127C22.3134 14.3149 22.3801 14.4972 22.469 14.7453C22.7284 15.453 22.9507 15.9492 23.1508 16.2702C23.4842 16.7882 23.8992 17.0436 24.3735 17.0436C24.7737 17.0436 25.0479 16.9342 25.2035 16.7007C25.248 16.635 25.2925 16.5329 25.3592 16.0586C25.3814 15.92 25.4184 15.6938 24.4624 12.9067L22.8173 7.99639ZM21.2611 11.1483C20.2532 11.7174 19.9123 11.8925 19.8086 11.9363C19.275 12.1771 18.6747 12.3522 18.0152 12.4689C18.2746 11.5788 18.734 10.1269 19.4232 8.06936C19.6455 7.40541 19.8308 6.85089 19.9716 6.42042C20.0902 6.82901 20.2087 7.22302 20.3199 7.60242C20.6163 8.66765 20.935 9.86421 21.2611 11.1483Z" fill="#9D1FFE"/>
<path d="M35.4822 0.875541C35.2302 0.729618 34.9338 0.678536 34.4002 0.729609C34.2224 0.729609 33.8889 0.787981 32.9107 1.21116C31.2581 1.94807 30.4429 2.29828 30.0502 2.46609C30.0131 2.21802 29.9464 2.02102 29.8352 1.8678C29.6574 1.61244 29.4054 1.48111 29.1016 1.48111C28.8422 1.48111 28.4865 1.59055 28.2568 2.11587C28.1234 2.42231 28.0493 2.81631 28.0419 3.31245C27.7677 3.45837 27.5824 3.58239 27.4638 3.68454C27.1971 3.91801 27.0933 4.21716 27.16 4.53089C27.2045 4.85192 27.3453 5.11459 27.5898 5.31158C27.7603 5.45021 27.9233 5.51587 28.0641 5.53776C28.1456 6.68326 28.242 7.85793 28.3309 9.06909C28.4346 10.3824 28.5236 11.4039 28.6125 12.1116C28.694 12.8047 28.7533 13.3957 28.7755 13.8627C28.7978 14.3369 28.8126 14.979 28.8126 15.7961V16.8906C28.8126 17.2043 28.9089 17.4743 29.0942 17.6785C29.2869 17.8901 29.5537 18.0069 29.8723 18.0069C30.2577 18.0069 30.5467 17.8974 30.7171 17.6785C30.8727 17.4816 30.9543 17.2189 30.9543 16.8906C30.9543 16.8687 30.9543 16.8103 30.8505 15.0519C30.7838 13.8918 30.7468 12.9142 30.7468 12.1554C30.7468 11.2361 30.606 9.52875 30.3244 7.09184C30.228 6.26008 30.1761 5.55237 30.1687 4.98327C30.9913 4.62576 31.8213 4.26094 32.6365 3.89613C35.4525 2.66308 35.8305 2.05021 35.8305 1.61974C35.8379 1.18197 35.6452 0.97039 35.4822 0.875541Z" fill="#9D1FFE"/>
<path d="M45.3607 1.73648C44.9754 1.73648 44.59 1.83132 44.2195 2.02102C43.8193 2.22531 43.5451 2.51717 43.4117 2.90387C43.182 3.6043 42.4039 5.26051 41.0996 7.82146C40.1659 9.66008 39.3729 11.1412 38.743 12.2502C38.7578 12.0167 38.7727 11.7614 38.7801 11.4914C38.8171 10.5502 38.8394 9.74764 38.8394 9.03262V3.72833C38.8394 3.02061 38.7727 2.59741 38.617 2.36394C38.4985 2.18153 38.2539 1.96996 37.8019 1.96996C37.3128 1.96996 36.9571 2.12317 36.757 2.41502C36.5791 2.67768 36.4828 3.00601 36.4828 3.4C36.4679 4.96867 36.4531 6.42789 36.4457 7.77038C36.4383 9.11287 36.4309 10.3386 36.4309 11.4549V15.891C36.4309 16.336 36.4902 16.679 36.6088 16.927C36.7125 17.1532 36.9645 17.4159 37.587 17.4159C38.1428 17.4159 38.6467 17 39.1284 16.1391L40.0547 14.4318C40.3289 13.9721 40.8106 13.082 41.4553 11.8635L43.0338 8.93777C43.2042 8.60944 43.3599 8.31758 43.5007 8.06222L43.3747 9.91545C43.3006 10.9296 43.2709 11.7395 43.2709 12.3232C43.2709 12.8631 43.2932 13.4468 43.3302 14.0669C43.3673 14.6871 43.4117 15.3 43.4562 15.891C43.4562 16.4017 43.5451 16.7738 43.7378 17.0146C43.8786 17.197 44.1528 17.4159 44.6345 17.4159C45.42 17.4159 45.8128 16.7009 45.8128 15.2854C45.7832 14.4464 45.7609 13.6657 45.7461 12.9506C45.7313 12.2283 45.7238 11.6373 45.7238 11.185C45.7238 10.5429 45.8276 9.06181 46.0277 6.8C46.2352 4.47983 46.3315 3.15922 46.3315 2.77252C46.3093 2.10857 45.961 1.73648 45.3607 1.73648Z" fill="#9D1FFE"/>
<path d="M58.433 2.68497C58.433 2.61201 58.4404 2.53176 58.4552 2.44421C58.4552 2.03562 57.9809 1.86051 57.8179 1.80214C57.6993 1.75837 57.5882 1.73648 57.4844 1.73648C57.2251 1.73648 56.8619 1.83133 56.5581 2.23992C55.9356 2.25451 55.2983 2.33477 54.6536 2.4734C53.7198 2.69228 52.7638 3.04978 51.8079 3.55321C50.8223 4.07124 50.1108 4.7352 49.6958 5.53048C49.4142 6.0704 49.266 6.71244 49.266 7.42746C49.266 8.54377 49.8218 9.49958 50.926 10.273C51.9264 10.9807 53.2011 11.382 54.7425 11.4695C54.3497 11.7979 53.7865 12.1992 53.0529 12.6661C52.1265 13.2644 51.6596 13.5708 51.4447 13.724C50.8593 14.118 50.2664 14.5047 49.6736 14.8914C48.6287 15.6283 48.4805 15.9493 48.4805 16.1828C48.4805 16.5184 48.5768 16.8176 48.7547 17.073C48.9548 17.3575 49.2364 17.5034 49.5698 17.5034C49.718 17.5034 49.9626 17.4451 51.0297 16.7228C51.4966 16.4236 52.0895 16.0004 52.7787 15.4824C53.3937 15.0592 54.0236 14.6287 54.6609 14.1983C55.0908 13.8845 55.4687 13.5708 55.7874 13.2571C55.7726 13.7167 55.7652 14.1034 55.7652 14.4245C55.7652 14.5777 55.7651 14.7601 55.78 14.9644C55.7874 15.1687 55.8096 15.4751 55.8541 15.8837C55.8985 16.3215 55.9801 16.679 56.1135 16.9635C56.2839 17.3356 56.5951 17.5034 56.9583 17.467C57.3362 17.4305 57.6104 17.2991 57.7809 17.0803C57.9439 16.8687 58.018 16.5039 58.018 15.8983V11.8197C58.2255 11.6957 58.3959 11.5498 58.5219 11.3893C58.6924 11.1704 58.7813 10.9004 58.7813 10.594C58.7813 10.2511 58.6331 9.8206 57.9587 9.57983L58.1736 4.84464C58.3292 4.77168 58.4626 4.66953 58.5738 4.5455C58.7442 4.3631 58.8332 4.12231 58.8332 3.85236C58.8702 3.61888 58.848 3.39271 58.7739 3.17382C58.6998 2.96953 58.5886 2.809 58.433 2.68497ZM56.0319 4.7206C55.9801 5.61073 55.9282 6.47896 55.8911 7.33261C55.8541 8.12789 55.8318 8.76266 55.8244 9.2588C53.868 8.94506 53.327 8.84291 53.2307 8.82102C51.5855 8.36137 51.5855 7.66094 51.5855 7.43476C51.5855 7.04077 51.6893 6.71974 51.8968 6.44978C52.0746 6.2236 52.3636 5.99742 52.7638 5.77124C53.2826 5.4794 53.9273 5.22403 54.6832 5.01974C55.2316 4.85923 55.6836 4.75708 56.0319 4.7206Z" fill="#9D1FFE"/>
<path d="M80.5776 15.2343C80.259 15.1833 79.9403 15.1322 79.6291 15.0811C79.5031 14.6069 79.1919 13.6511 78.7176 12.2283C78.1618 10.5721 77.6949 9.15665 77.3318 7.99656L75.983 2.73605C75.8422 2.16695 75.7088 1.75107 75.5903 1.45923C75.3828 0.970385 75.0938 0.86824 74.8863 0.86824C74.4787 0.86824 74.1378 1.30601 73.7006 2.37855C73.2633 3.48756 72.8631 4.58928 72.5148 5.66181C72.1591 6.74893 71.7293 8.1425 71.255 9.81331C70.7808 11.4768 70.4102 12.812 70.1583 13.7897C69.9359 14.6652 69.7507 15.424 69.6025 16.0807C69.4542 16.0953 69.2764 16.1099 69.0615 16.1391C68.5576 16.212 68.4835 16.2266 68.4464 16.2412C68.0166 16.3507 67.7869 16.6498 67.7869 17.073C67.7869 17.2043 67.8091 17.3794 67.861 17.6202C67.9128 17.8536 67.9277 17.9777 67.9277 18.0361C67.9277 18.8751 68.0907 20.1957 68.4168 21.9468C68.4612 22.224 68.5502 22.6764 68.6835 23.3039C68.7502 23.6249 68.9281 24.4713 69.521 24.4713C70.0545 24.4713 70.3732 24.1429 70.3732 23.5884L70.4176 18.8094C70.4176 18.6052 70.4102 18.4082 70.4028 18.2039C70.4028 18.109 70.3954 18.0142 70.388 17.9266C70.8178 17.8828 71.5515 17.8099 72.5816 17.7004C74.8937 17.4743 76.2943 17.3575 76.776 17.3575C77.2873 17.3283 77.732 17.2991 78.1099 17.2627C78.3544 17.2408 78.6138 17.2262 78.8806 17.2189L78.7917 17.8463C78.7768 17.9193 78.5916 18.6708 78.2359 20.1009C77.5689 22.7858 77.4874 23.3185 77.4874 23.4863C77.4874 23.7416 77.5615 23.9532 77.6949 24.1064C77.7987 24.2305 77.9913 24.3691 78.3396 24.3691C78.7176 24.3691 78.9769 24.0189 79.1474 23.7489C79.3623 23.406 79.6291 22.7567 79.9477 21.7717C80.259 20.8159 80.5109 19.9914 80.6962 19.3202C80.8148 18.8605 80.963 18.3279 81.1409 17.7004C81.1557 17.6275 81.215 17.4451 81.3113 17.1386C81.4225 16.7884 81.4743 16.5257 81.4743 16.3433C81.4817 15.7961 81.1705 15.3949 80.5776 15.2343ZM77.1984 15.2562C76.272 15.2708 75.3457 15.3146 74.4342 15.4022C73.5598 15.4824 72.7075 15.5845 71.8923 15.7013C71.922 15.5772 71.959 15.4094 72.0109 15.1906C72.1221 14.7163 72.1962 14.4245 72.2333 14.315C72.5445 13.1039 72.9076 11.8125 73.3004 10.47C73.6339 9.34636 74.0266 8.02575 74.4861 6.50086C74.6862 7.25236 74.8863 7.98927 75.0789 8.71159C75.3531 9.72575 75.6125 10.6159 75.8496 11.3747C75.946 11.6811 76.1164 12.1919 76.3684 12.8923L77.0205 14.7528L77.1984 15.2562Z" fill="#9D1FFE"/>
<path d="M90.797 12.9433C90.6266 12.9361 90.3153 12.958 89.5224 13.3665C89.226 13.5198 88.7591 13.7678 88.1292 14.118C87.8031 14.2858 87.3585 14.512 86.7805 14.8039C86.4914 14.9498 86.2247 15.0738 85.9949 15.1614C85.9727 14.6288 85.906 13.9502 85.7948 13.1331C85.7726 12.8996 85.7355 12.6296 85.6911 12.3378C86.6248 11.9365 87.4771 11.5206 88.2255 11.112C89.6706 10.3313 90.2857 9.78413 90.2857 9.28069C90.2857 9.06181 90.2042 8.85023 90.0486 8.65324C89.8781 8.43435 89.6484 8.3249 89.389 8.3249C89.2186 8.3249 88.8703 8.39786 87.5141 8.91589C86.6841 9.23692 85.9949 9.52146 85.4095 9.77683C85.3502 9.28798 85.2761 8.7043 85.1798 8.03306C85.1205 7.49315 85.0908 6.8365 85.0908 6.0777C85.9134 5.72019 86.7434 5.35537 87.5586 4.99056C90.3746 3.75022 90.7526 3.14464 90.7526 2.71417C90.7526 2.2764 90.5599 2.07212 90.3969 1.96997C90.1449 1.81675 89.8337 1.76567 89.3149 1.82404C89.1296 1.82404 88.7962 1.88241 87.8254 2.30559C86.2172 3.02061 85.3799 3.38542 84.9649 3.56052C84.9278 3.31245 84.8611 3.11545 84.7499 2.96223C84.5721 2.70687 84.3201 2.57554 84.0163 2.57554C83.7569 2.57554 83.4012 2.68498 83.1715 3.2103C83.0381 3.51674 82.964 3.91073 82.9566 4.39957C82.6676 4.5455 82.4897 4.66224 82.3934 4.76438C82.1785 4.96867 82.0747 5.23134 82.0747 5.54507C82.0747 5.8661 82.1859 6.14336 82.4156 6.36954C82.5786 6.53006 82.7417 6.60301 82.8825 6.63219C82.9269 7.29614 82.9788 8.03306 83.0529 8.85753C83.1344 9.82062 83.2382 10.9004 83.379 12.0678C83.5198 13.2644 83.6161 14.1326 83.668 14.6798C83.7199 15.1687 83.7421 15.621 83.7495 16.0442C83.5939 16.2266 83.5198 16.4674 83.5198 16.7519C83.5198 17.073 83.6161 17.3648 83.8014 17.6056C84.0015 17.8682 84.2831 18.0069 84.6091 18.0069C85.5725 18.0069 86.9435 17.4597 88.7962 16.3433C91.301 14.8258 91.6196 14.1764 91.6196 13.7824C91.6048 13.2571 91.2935 12.9433 90.797 12.9433Z" fill="#9D1FFE"/>
<path d="M102.039 1.96265H101.757C101.58 1.96265 101.12 2.01371 99.1489 2.48067C97.6742 2.83088 96.5774 3.12274 95.8215 3.36351C94.4802 3.7648 93.6057 4.05664 93.1685 4.24634C92.0791 4.706 91.5752 5.15836 91.5752 5.68368C91.5752 6.08497 91.6715 6.35493 91.8568 6.50815C92.0272 6.64678 92.257 6.71244 92.5682 6.71244C92.798 6.71244 93.2352 6.62487 93.8947 6.44977C94.0207 6.42058 94.8062 6.20171 96.2291 5.80042C96.2439 6.63948 96.3254 7.76307 96.4588 9.14204C96.5329 10.0103 96.6589 11.2506 96.8219 12.8631C97.0443 15.0446 97.111 15.497 97.1406 15.6429C97.3703 16.8176 97.8224 17.4086 98.4745 17.4086C98.9043 17.4086 99.1933 17.2991 99.3564 17.0802C99.4972 16.8833 99.5639 16.5914 99.5639 16.1172C99.4379 15.1759 99.3193 14.2639 99.2156 13.3957C99.1118 12.5421 99.0526 11.7905 99.0526 11.1704C99.0526 10.6742 99.0007 9.92273 98.8895 8.87209C98.7043 7.17209 98.6079 5.90256 98.5931 5.08539C100.735 4.57466 101.113 4.47982 101.209 4.45063C102.498 4.08583 103.121 3.58238 103.121 2.91114C103.121 2.53174 103.002 2.26909 102.765 2.12316C102.565 2.02102 102.321 1.96265 102.039 1.96265Z" fill="#9D1FFE"/>
<path d="M112.933 12.3013C112.74 12.3013 112.51 12.3451 112.236 12.4472C111.962 12.5421 111.747 12.6369 111.599 12.7318C111.354 12.8704 110.806 13.1914 109.939 13.6948L109.716 13.8262C108.545 14.512 107.975 14.6579 107.708 14.6579C107.464 14.6579 107.352 14.1983 107.3 13.9137C107.256 13.673 107.234 13.279 107.234 12.7537C107.234 11.8125 107.345 10.7764 107.552 9.67469C107.819 8.23735 108.219 7.06996 108.723 6.20172C109.005 5.72747 109.487 5.15109 110.161 4.50173C112.132 2.58284 112.132 2.51717 112.132 2.34936C112.132 2.03563 112.11 1.82404 112.058 1.68541C111.999 1.53219 111.843 1.34979 111.421 1.34979C110.872 1.34979 110.257 1.55408 109.59 1.96267C108.575 2.58284 107.664 3.58971 106.885 4.97597C106.004 6.52276 105.396 8.17167 105.062 9.86437C104.855 10.9004 104.751 12.0605 104.751 13.3082C104.751 14.0597 104.899 14.782 105.196 15.4605C105.618 16.4309 106.248 16.9197 107.071 16.9197C108.242 16.9197 109.605 16.3725 111.236 15.2416C113.281 13.8262 113.548 13.1987 113.548 12.8047C113.548 12.6004 113.459 12.4837 113.385 12.418C113.266 12.3159 113.096 12.2721 112.933 12.3013Z" fill="#9D1FFE"/>
<path d="M123.382 1.96265H123.1C122.922 1.96265 122.463 2.01371 120.484 2.48067C119.009 2.83088 117.92 3.12274 117.157 3.36351C115.815 3.7648 114.941 4.05664 114.504 4.24634C113.414 4.706 112.91 5.15836 112.91 5.68368C112.91 6.08497 113.007 6.35493 113.192 6.50815C113.362 6.63948 113.592 6.71244 113.903 6.71244C114.133 6.71244 114.57 6.62487 115.23 6.44977C115.356 6.42058 116.141 6.20171 117.564 5.80042C117.587 6.64677 117.661 7.77037 117.794 9.14204C117.868 10.0103 117.994 11.2506 118.157 12.8631C118.379 15.0446 118.446 15.497 118.476 15.6429C118.706 16.8176 119.158 17.4086 119.81 17.4086C120.24 17.4086 120.529 17.2991 120.692 17.0802C120.832 16.8905 120.899 16.5914 120.899 16.1172C120.773 15.1759 120.662 14.2639 120.551 13.3957C120.447 12.5421 120.388 11.7905 120.388 11.1704C120.388 10.6742 120.336 9.92273 120.225 8.87209C120.039 7.17209 119.943 5.90256 119.928 5.08539C122.07 4.57466 122.448 4.47982 122.544 4.45063C123.834 4.08583 124.456 3.58238 124.456 2.91114C124.456 2.53174 124.338 2.26909 124.1 2.12316C123.908 2.02102 123.671 1.96265 123.382 1.96265Z" fill="#9D1FFE"/>
<path d="M132.371 7.78499C133.253 6.65409 133.919 5.72017 134.342 5.01244C134.994 3.90343 135.313 3.0279 135.313 2.32747C135.313 1.72189 135.113 1.19657 134.72 0.780692C134.231 0.262666 133.675 0 133.06 0C131.882 0 130.666 0.386701 129.466 1.1455C128.591 1.69271 127.754 2.42232 126.983 3.30515C126.057 4.3485 125.983 4.64036 125.983 4.82276C125.983 5.10001 126.094 5.75666 127.094 5.75666C127.102 5.75666 127.102 5.75666 127.109 5.75666L126.983 9.28069C126.983 11.6082 126.998 13.4833 127.028 15.0009C127.057 16.5185 127.072 17.4086 127.072 17.6712C127.072 18.0725 127.205 18.4373 127.465 18.7511C127.739 19.0794 128.05 19.2472 128.391 19.2472C128.688 19.2472 128.947 19.1451 129.147 18.9481C129.355 18.7438 129.458 18.4738 129.458 18.1382C129.458 17.9777 129.429 17.5399 129.362 16.803C129.369 16.8103 129.377 16.8176 129.384 16.8176C129.547 16.927 129.718 16.9854 129.903 16.9854C130.933 16.9854 131.985 16.3288 133.127 14.979C134.157 13.7532 134.661 12.7901 134.661 12.024C134.661 11.061 134.268 10.2876 133.49 9.73305C132.926 9.33176 132.334 9.12748 131.711 9.12748C131.548 9.12748 131.4 9.13477 131.274 9.14936C131.607 8.73348 131.948 8.3176 132.289 7.89443L132.371 7.78499ZM129.125 8.58755L129.154 7.04077C129.14 6.7854 129.132 6.51545 129.132 6.2236V5.27512C129.132 4.96138 129.154 4.64765 129.191 4.34121C129.725 3.66997 130.31 3.14463 130.918 2.77983C131.533 2.41502 132.178 2.22531 132.83 2.22531C132.926 2.22531 132.986 2.25452 133.045 2.33477C133.127 2.43692 133.156 2.53905 133.156 2.6412C133.156 2.81631 133.038 3.28326 132.252 4.49442C131.815 5.18026 131.148 6.0777 130.273 7.17212C129.866 7.69744 129.48 8.17167 129.125 8.58755ZM128.999 12.5931L130.073 11.9584C130.659 11.6446 131.244 11.4914 131.815 11.4914C132.586 11.4914 132.586 11.8052 132.586 11.9803C132.586 12.5275 132.304 13.1112 131.756 13.7094C131.148 14.3734 130.74 14.5485 130.503 14.5777C130.014 14.6288 129.644 14.7893 129.392 15.0592C129.325 15.1322 129.266 15.2052 129.221 15.2781C129.088 13.9429 129.014 13.0455 128.999 12.5931Z" fill="#9D1FFE"/>
<path d="M146.236 12.9142L144.569 7.99656L143.22 2.73605C143.072 2.16695 142.946 1.75107 142.82 1.45923C142.612 0.970384 142.323 0.86824 142.116 0.86824C141.708 0.86824 141.367 1.30601 140.937 2.37855C140.508 3.47297 140.115 4.56739 139.774 5.61803C139.114 7.60258 138.418 9.95922 137.699 12.6296C136.825 15.9056 136.713 16.5549 136.713 16.7519C136.713 17.1532 136.773 17.467 136.891 17.715C137.039 18.0215 137.321 18.1893 137.684 18.1893C138.01 18.1893 138.292 18.1309 138.522 18.0069C138.803 17.8536 138.951 17.6129 138.951 17.3064C138.951 16.8249 138.996 16.2704 139.092 15.6429C139.107 15.5189 139.166 15.1541 139.277 14.5339C140.182 14.5193 141.041 14.4172 141.842 14.2275C142.019 14.1837 142.657 14.0013 143.783 13.6584C143.842 13.797 143.924 13.9794 144.028 14.2129C144.072 14.315 144.139 14.4974 144.228 14.7455C144.48 15.4386 144.709 15.9493 144.91 16.2704C145.243 16.7811 145.658 17.0438 146.132 17.0438C146.532 17.0438 146.807 16.9343 146.962 16.7009C147.007 16.6352 147.051 16.5331 147.118 16.0588C147.155 15.9275 147.185 15.694 146.236 12.9142ZM143.012 11.1485C142.005 11.7176 141.664 11.8927 141.56 11.9365C141.026 12.1773 140.426 12.3524 139.767 12.4691C140.026 11.5717 140.5 10.0979 141.175 8.06952C141.397 7.41287 141.582 6.85836 141.723 6.42059C141.842 6.82917 141.96 7.22318 142.064 7.60258C142.383 8.7043 142.694 9.90086 143.012 11.1485Z" fill="#9D1FFE"/>
</svg>
