<svg width="16" height="27" viewBox="0 0 16 27" fill="none" xmlns="http://www.w3.org/2000/svg">
<path d="M8.00013 4.08376C9.62794 4.08376 10.9518 5.37776 10.9518 6.96893C10.9518 8.55855 9.62794 9.85287 8.00013 9.85287C6.37388 9.85287 5.0485 8.55855 5.0485 6.96893C5.0485 5.37776 6.37388 4.08376 8.00013 4.08376ZM8.00013 13.9351C11.9323 13.9351 15.1288 10.8106 15.1288 6.96893C15.1288 3.12572 11.9323 0 8.00013 0C4.06886 0 0.871459 3.12572 0.871459 6.96893C0.871459 10.8104 4.06886 13.9351 8.00013 13.9351ZM10.8843 19.6197C12.3355 19.2964 13.7351 18.7353 15.024 17.9437C15.9994 17.3428 16.2935 16.0822 15.6787 15.1286C15.0648 14.1729 13.7759 13.8855 12.7988 14.4864C9.87889 16.2818 6.11916 16.281 3.20081 14.4864C2.22352 13.8855 0.934863 14.173 0.321529 15.1286C-0.293217 16.083 -4.73714e-05 17.3428 0.975668 17.9437C2.26433 18.7343 3.66395 19.2964 5.1152 19.6197L1.12963 23.5153C0.314781 24.3126 0.314781 25.6049 1.13041 26.402C1.53862 26.8003 2.0727 26.9999 2.60662 26.9999C3.14148 26.9999 3.67635 26.8005 4.08455 26.402L7.99919 22.5739L11.9173 26.402C12.7321 27.1993 14.0542 27.1993 14.8697 26.402C15.6861 25.6049 15.6861 24.3117 14.8697 23.5153C14.8698 23.5153 10.8843 19.6197 10.8843 19.6197Z" fill="#9D1FFE"/>
</svg>
