<svg width="97" height="23" viewBox="0 0 97 23" fill="none" xmlns="http://www.w3.org/2000/svg">
<path d="M88.4411 0.176453C83.7141 0.176453 79.8823 3.92309 79.8823 8.54508C79.8823 10.8552 80.8396 12.947 82.3879 14.4613C83.9366 15.9764 87.5853 18.169 87.7992 20.4704C87.8313 20.8154 88.0868 21.098 88.4411 21.098C88.7955 21.098 89.051 20.8154 89.0831 20.4704C89.297 18.169 92.9457 15.9764 94.4944 14.4613C96.0427 12.947 97 10.8552 97 8.54508C97 3.92309 93.1682 0.176453 88.4411 0.176453Z" fill="#9D1FFE"/>
<path d="M88.4411 11.5882C90.0167 11.5882 91.294 10.3109 91.294 8.73527C91.294 7.15963 90.0167 5.88233 88.4411 5.88233C86.8655 5.88233 85.5881 7.15963 85.5881 8.73527C85.5881 10.3109 86.8655 11.5882 88.4411 11.5882Z" fill="white"/>
<path d="M69.5822 20.3049C71.014 20.3049 72.0282 20.0492 72.7839 19.4984V17.0001C72.0083 17.5312 71.0737 17.8656 69.7612 17.8656C67.5538 17.8656 66.639 16.1739 66.639 13.4985C66.639 10.6854 67.7526 9.24934 69.7811 9.24934C70.9742 9.24934 72.1475 9.66245 72.764 10.0559V7.4592C72.1077 7.10511 70.9742 6.84937 69.4231 6.84937C65.4657 6.84937 63.4174 9.66245 63.4174 13.5968C63.4373 17.905 65.4458 20.3049 69.5822 20.3049ZM50.2328 19.164V16.6656C49.2783 17.3148 47.6476 17.8853 46.1561 17.8853C43.8891 17.8853 43.034 16.823 42.8948 14.6591H50.372V13.046C50.372 8.54116 48.3635 6.84937 45.2811 6.84937C41.5027 6.84937 39.713 9.7018 39.713 13.6165C39.713 18.1214 41.9601 20.3049 45.8976 20.3049C47.8663 20.3049 49.3181 19.7738 50.2328 19.164ZM21.8551 7.08544V12.2001H17.7187V7.08544H14.6165V20.0492H17.7187V14.6394H21.8551V20.0492H24.9573V7.08544H21.8551ZM38.9374 17.6099H37.5652V7.08544H28.5369V8.18706C28.5369 11.3542 28.338 15.446 27.2443 17.6099H26.2499V23H29.1136V20.0492H36.0539V23H38.9175V17.6099H38.9374ZM60.1163 20.0492H63.6362L58.6646 13.0657L63.0396 7.08544H59.9174L55.5425 13.0657V7.08544H52.4402V20.0492H55.5425V13.6755L60.1163 20.0492ZM45.2016 9.24934C46.7328 9.24934 47.2101 10.5083 47.2101 12.1411V12.3968H42.8948C42.9743 10.3313 43.73 9.24934 45.2016 9.24934ZM34.463 17.6099H30.088C30.9431 15.6624 31.1817 12.1214 31.1817 9.87884V9.48541H34.463V17.6099Z" fill="#9D1FFE"/>
<path d="M12.0312 20.0492H8.86929V4.56742H7.45736C4.87214 4.56742 3.51988 5.84609 3.51988 7.75426C3.51988 9.91817 4.45453 10.9214 6.3835 12.2001L7.97441 13.2624L3.40056 20.0492H0L4.11646 13.9903C1.74999 12.3181 0.417612 10.6854 0.417612 7.93131C0.417612 4.48873 2.84374 2.14777 7.43748 2.14777H12.0113V20.0492H12.0312Z" fill="#9D1FFE"/>
</svg>
