<svg width="224" height="67" viewBox="0 0 224 67" fill="none" xmlns="http://www.w3.org/2000/svg">
<path d="M95.0564 38.2338C94.63 37.3381 94.3314 36.6453 94.1751 36.1834C93.9334 35.4486 93.7628 34.6369 93.6846 33.7691C93.6064 32.8944 93.5496 32.0756 93.5211 31.3268C93.4927 30.585 93.4785 29.8573 93.4785 29.1435C93.4785 28.3737 93.4287 27.8488 93.3363 27.5269C93.2653 27.289 93.0307 26.8901 92.3057 26.8901C91.8792 26.8901 91.5309 27.156 91.268 27.6879C91.1898 27.8628 91.0192 28.3387 90.742 29.1435C90.4292 30.1092 90.0952 31.0119 89.7469 31.8377C89.4199 32.6144 89.093 33.3003 88.766 33.8881L86.8682 28.0798C86.7118 27.6459 86.5626 27.324 86.4133 27.1C86.2427 26.8411 85.9087 26.5332 85.2619 26.5332C84.7714 26.5332 84.4018 26.8831 84.1459 27.5759C83.9896 28.0308 83.9043 28.5206 83.9043 29.0455C83.8972 29.1504 83.7692 30.2351 83.1935 34.8048C82.9874 36.4424 82.8807 37.765 82.8807 38.7447C82.8807 39.2765 82.9234 39.7384 83.0087 40.1303C83.1153 40.6341 83.4423 40.9071 83.9256 40.9071C84.3094 40.9071 84.6435 40.7391 84.878 40.4242C85.0202 40.2353 85.2121 39.8224 85.2903 38.4508L85.5319 33.9581C85.5959 32.7404 85.6741 31.9566 85.7381 31.4668C85.9726 32.1526 86.2498 33.0413 86.5697 34.133C87.5719 37.52 88.0765 37.8 88.4675 37.8C88.9082 37.8 89.3488 37.3731 89.9175 36.4074C90.1449 36.0295 90.5785 35.0987 91.2466 33.5732C91.2537 33.7061 91.2609 33.8181 91.2609 33.9161C91.2609 34.9588 91.5949 36.3094 92.263 37.9259C93.0449 39.8154 93.8339 40.7321 94.6655 40.7321C94.9996 40.7321 95.291 40.6551 95.5256 40.4942C95.7957 40.3122 95.9307 40.0183 95.9307 39.6124C95.9307 39.3885 95.7956 39.1366 95.5042 38.8147C95.2341 38.5207 95.1133 38.3318 95.0564 38.2338Z" fill="white"/>
<path d="M104.766 32.1876L103.472 27.1421C103.337 26.5962 103.209 26.1973 103.088 25.9174C102.889 25.4486 102.612 25.3506 102.413 25.3506C102.022 25.3506 101.695 25.7705 101.276 26.7992C100.856 27.8559 100.48 28.8986 100.16 29.9063C99.5201 31.8167 98.852 34.0841 98.1696 36.6313C97.3309 39.7734 97.2243 40.3962 97.2243 40.5852C97.2243 40.9701 97.2812 41.271 97.3949 41.5089C97.537 41.8028 97.8071 41.9638 98.1554 41.9638C98.4682 41.9638 98.7383 41.9078 98.9586 41.7888C99.2287 41.6419 99.3709 41.411 99.3709 41.117C99.3709 40.6622 99.4135 40.1303 99.5059 39.5215C99.5201 39.3746 99.6054 38.8917 99.6836 38.4578C100.551 38.4438 101.375 38.3458 102.143 38.1639C102.314 38.1219 102.925 37.947 104.005 37.6181C104.062 37.751 104.14 37.926 104.24 38.1499C104.282 38.2479 104.346 38.4228 104.432 38.6607C104.68 39.3396 104.894 39.8154 105.086 40.1233C105.405 40.6202 105.803 40.8651 106.258 40.8651C106.642 40.8651 106.905 40.7602 107.054 40.5362C107.097 40.4732 107.14 40.3753 107.204 39.9204C107.225 39.7874 107.261 39.5705 106.344 36.8973L104.766 32.1876ZM103.273 35.2107C102.306 35.7566 101.979 35.9246 101.88 35.9665C101.368 36.1975 100.792 36.3654 100.16 36.4774C100.409 35.6236 100.849 34.231 101.51 32.2576C101.724 31.6208 101.901 31.0889 102.036 30.676C102.15 31.0679 102.264 31.4458 102.37 31.8097C102.655 32.8314 102.96 33.9791 103.273 35.2107Z" fill="white"/>
<path d="M116.913 25.3577C116.671 25.2177 116.387 25.1687 115.875 25.2177C115.705 25.2177 115.385 25.2737 114.447 25.6796C112.862 26.3864 112.08 26.7223 111.703 26.8832C111.667 26.6453 111.603 26.4563 111.497 26.3094C111.326 26.0645 111.085 25.9385 110.793 25.9385C110.544 25.9385 110.203 26.0435 109.983 26.5473C109.855 26.8412 109.784 27.2191 109.777 27.695C109.514 27.835 109.336 27.9539 109.222 28.0519C108.966 28.2758 108.867 28.5627 108.931 28.8636C108.974 29.1716 109.109 29.4235 109.343 29.6124C109.507 29.7454 109.663 29.8084 109.798 29.8294C109.876 30.9281 109.969 32.0547 110.054 33.2164C110.153 34.476 110.239 35.4558 110.324 36.1346C110.402 36.7994 110.459 37.3662 110.48 37.8141C110.502 38.2689 110.516 38.8848 110.516 39.6685V40.7182C110.516 41.0191 110.608 41.2781 110.786 41.474C110.971 41.677 111.227 41.7889 111.532 41.7889C111.902 41.7889 112.179 41.684 112.343 41.474C112.492 41.2851 112.57 41.0331 112.57 40.7182C112.57 40.6972 112.57 40.6413 112.471 38.9548C112.407 37.8421 112.371 36.9043 112.371 36.1765C112.371 35.2948 112.236 33.6573 111.966 31.3199C111.874 30.5222 111.824 29.8434 111.817 29.2975C112.606 28.9546 113.402 28.6047 114.184 28.2548C116.885 27.0722 117.247 26.4843 117.247 26.0715C117.254 25.6516 117.069 25.4486 116.913 25.3577Z" fill="white"/>
<path d="M126.388 26.1836C126.018 26.1836 125.648 26.2746 125.293 26.4565C124.909 26.6524 124.646 26.9324 124.518 27.3033C124.298 27.9751 123.552 29.5636 122.301 32.0199C121.405 33.7834 120.645 35.204 120.04 36.2677C120.055 36.0438 120.069 35.7988 120.076 35.5399C120.111 34.6372 120.133 33.8674 120.133 33.1816V28.0941C120.133 27.4152 120.069 27.0093 119.92 26.7854C119.806 26.6105 119.571 26.4075 119.138 26.4075C118.669 26.4075 118.327 26.5545 118.135 26.8344C117.965 27.0863 117.872 27.4012 117.872 27.7791C117.858 29.2837 117.844 30.6833 117.837 31.9709C117.83 33.2586 117.823 34.4342 117.823 35.5049V39.7597C117.823 40.1866 117.88 40.5155 117.993 40.7534C118.093 40.9703 118.335 41.2223 118.932 41.2223C119.465 41.2223 119.948 40.8234 120.41 39.9976L121.298 38.3601C121.561 37.9192 122.023 37.0655 122.642 35.8968L124.156 33.0906C124.319 32.7757 124.469 32.4958 124.604 32.2508L124.483 34.0283C124.412 35.0011 124.383 35.7778 124.383 36.3377C124.383 36.8555 124.405 37.4154 124.44 38.0102C124.476 38.605 124.518 39.1928 124.561 39.7597C124.561 40.2495 124.646 40.6064 124.831 40.8374C124.966 41.0123 125.229 41.2223 125.691 41.2223C126.445 41.2223 126.821 40.5365 126.821 39.1789C126.793 38.3741 126.771 37.6253 126.757 36.9395C126.743 36.2467 126.736 35.6799 126.736 35.246C126.736 34.6302 126.835 33.2096 127.027 31.0402C127.226 28.8148 127.319 27.5482 127.319 27.1773C127.297 26.5405 126.963 26.1836 126.388 26.1836Z" fill="white"/>
<path d="M138.926 27.0933C138.926 27.0233 138.933 26.9464 138.947 26.8624C138.947 26.4705 138.492 26.3026 138.336 26.2466C138.222 26.2046 138.116 26.1836 138.016 26.1836C137.767 26.1836 137.419 26.2746 137.128 26.6665C136.531 26.6805 135.919 26.7574 135.301 26.8904C134.405 27.1003 133.488 27.4432 132.572 27.9261C131.626 28.4229 130.944 29.0598 130.546 29.8226C130.276 30.3404 130.134 30.9562 130.134 31.642C130.134 32.7127 130.667 33.6295 131.726 34.3712C132.685 35.0501 133.908 35.4349 135.386 35.5189C135.01 35.8338 134.469 36.2187 133.766 36.6666C132.877 37.2404 132.429 37.5343 132.223 37.6813C131.662 38.0592 131.093 38.4301 130.524 38.801C129.522 39.5078 129.38 39.8157 129.38 40.0396C129.38 40.3615 129.473 40.6484 129.643 40.8934C129.835 41.1663 130.105 41.3062 130.425 41.3062C130.567 41.3062 130.802 41.2503 131.825 40.5575C132.273 40.2705 132.842 39.8647 133.503 39.3678C134.093 38.9619 134.697 38.549 135.308 38.1361C135.72 37.8352 136.083 37.5343 136.388 37.2334C136.374 37.6743 136.367 38.0452 136.367 38.3531C136.367 38.5 136.367 38.675 136.381 38.8709C136.388 39.0669 136.41 39.3608 136.452 39.7527C136.495 40.1726 136.573 40.5155 136.701 40.7884C136.865 41.1453 137.163 41.3062 137.511 41.2713C137.874 41.2363 138.137 41.1103 138.3 40.9004C138.457 40.6974 138.528 40.3475 138.528 39.7667V35.8548C138.727 35.7359 138.89 35.5959 139.011 35.4419C139.175 35.232 139.26 34.9731 139.26 34.6791C139.26 34.3502 139.118 33.9374 138.471 33.7064L138.677 29.1647C138.826 29.0948 138.954 28.9968 139.061 28.8778C139.224 28.7029 139.31 28.4719 139.31 28.213C139.345 27.9891 139.324 27.7721 139.253 27.5622C139.182 27.3663 139.075 27.2123 138.926 27.0933ZM136.623 29.0458C136.573 29.8995 136.523 30.7323 136.488 31.551C136.452 32.3138 136.431 32.9227 136.424 33.3985C134.548 33.0976 134.029 32.9996 133.936 32.9786C132.358 32.5378 132.358 31.866 132.358 31.649C132.358 31.2711 132.458 30.9632 132.657 30.7043C132.827 30.4873 133.105 30.2704 133.488 30.0535C133.986 29.7736 134.604 29.5286 135.329 29.3327C135.855 29.1787 136.289 29.0808 136.623 29.0458Z" fill="white"/>
<path d="M160.166 39.1296C159.86 39.0806 159.555 39.0317 159.256 38.9827C159.135 38.5278 158.837 37.6111 158.382 36.2465C157.849 34.6579 157.401 33.3003 157.053 32.1876L155.759 27.1421C155.624 26.5962 155.496 26.1973 155.382 25.9174C155.183 25.4486 154.906 25.3506 154.707 25.3506C154.316 25.3506 153.989 25.7705 153.57 26.7992C153.15 27.8629 152.767 28.9196 152.432 29.9483C152.091 30.991 151.679 32.3276 151.224 33.9301C150.769 35.5257 150.414 36.8063 150.172 37.744C149.959 38.5838 149.781 39.3116 149.639 39.9414C149.497 39.9554 149.326 39.9694 149.12 39.9974C148.637 40.0673 148.566 40.0814 148.53 40.0953C148.118 40.2003 147.898 40.4872 147.898 40.8931C147.898 41.0191 147.919 41.187 147.969 41.418C148.019 41.6419 148.033 41.7609 148.033 41.8168C148.033 42.6216 148.189 43.8883 148.502 45.5678C148.544 45.8337 148.63 46.2676 148.758 46.8694C148.822 47.1773 148.992 47.9891 149.561 47.9891C150.073 47.9891 150.378 47.6742 150.378 47.1423L150.421 42.5586C150.421 42.3627 150.414 42.1738 150.407 41.9778C150.407 41.8868 150.4 41.7959 150.393 41.7119C150.805 41.6699 151.508 41.5999 152.496 41.4949C154.714 41.278 156.057 41.166 156.519 41.166C157.01 41.138 157.436 41.1101 157.799 41.0751C158.033 41.0541 158.282 41.0401 158.538 41.0331L158.453 41.6349C158.439 41.7049 158.261 42.4257 157.92 43.7973C157.28 46.3725 157.202 46.8834 157.202 47.0443C157.202 47.2893 157.273 47.4922 157.401 47.6392C157.5 47.7581 157.685 47.8911 158.019 47.8911C158.382 47.8911 158.631 47.5552 158.794 47.2963C159 46.9674 159.256 46.3445 159.562 45.3998C159.86 44.4831 160.102 43.6923 160.28 43.0485C160.393 42.6076 160.535 42.0968 160.706 41.4949C160.72 41.425 160.777 41.25 160.869 40.9561C160.976 40.6202 161.026 40.3683 161.026 40.1933C161.033 39.6685 160.734 39.2836 160.166 39.1296ZM156.925 39.1506C156.036 39.1646 155.148 39.2066 154.273 39.2906C153.435 39.3676 152.617 39.4655 151.835 39.5775C151.864 39.4585 151.899 39.2976 151.949 39.0876C152.056 38.6328 152.127 38.3528 152.162 38.2479C152.461 37.0862 152.809 35.8476 153.186 34.5599C153.506 33.4822 153.882 32.2156 154.323 30.753C154.515 31.4738 154.707 32.1806 154.892 32.8734C155.155 33.8461 155.404 34.6999 155.631 35.4277C155.723 35.7216 155.887 36.2115 156.129 36.8833L156.754 38.6678L156.925 39.1506Z" fill="white"/>
<path d="M169.967 36.9316C169.804 36.9246 169.505 36.9456 168.745 37.3375C168.461 37.4844 168.013 37.7224 167.409 38.0583C167.096 38.2192 166.669 38.4362 166.115 38.7161C165.838 38.8561 165.582 38.975 165.362 39.059C165.34 38.5481 165.276 37.8973 165.17 37.1135C165.148 36.8896 165.113 36.6307 165.07 36.3508C165.966 35.9659 166.783 35.567 167.501 35.1751C168.887 34.4263 169.477 33.9015 169.477 33.4186C169.477 33.2087 169.399 33.0057 169.25 32.8168C169.086 32.6069 168.866 32.5019 168.617 32.5019C168.453 32.5019 168.119 32.5719 166.819 33.0687C166.023 33.3766 165.362 33.6495 164.8 33.8945C164.743 33.4256 164.672 32.8658 164.58 32.222C164.523 31.7041 164.494 31.0743 164.494 30.3465C165.283 30.0036 166.079 29.6537 166.861 29.3038C169.562 28.1141 169.925 27.5333 169.925 27.1204C169.925 26.7005 169.74 26.5046 169.584 26.4066C169.342 26.2597 169.043 26.2107 168.546 26.2667C168.368 26.2667 168.048 26.3227 167.117 26.7285C165.575 27.4143 164.772 27.7642 164.374 27.9322C164.338 27.6943 164.274 27.5053 164.167 27.3584C163.997 27.1134 163.755 26.9875 163.464 26.9875C163.215 26.9875 162.874 27.0924 162.654 27.5963C162.526 27.8902 162.455 28.2681 162.447 28.737C162.17 28.8769 162 28.9889 161.907 29.0869C161.701 29.2828 161.602 29.5347 161.602 29.8356C161.602 30.1436 161.708 30.4095 161.929 30.6264C162.085 30.7804 162.241 30.8503 162.376 30.8783C162.419 31.5152 162.469 32.222 162.54 33.0127C162.618 33.9365 162.717 34.9722 162.853 36.0918C162.988 37.2395 163.08 38.0723 163.13 38.5971C163.179 39.066 163.201 39.4999 163.208 39.9057C163.059 40.0807 162.988 40.3116 162.988 40.5845C162.988 40.8925 163.08 41.1724 163.258 41.4033C163.45 41.6552 163.72 41.7882 164.032 41.7882C164.956 41.7882 166.271 41.2633 168.048 40.1927C170.451 38.7371 170.756 38.1143 170.756 37.7364C170.742 37.2325 170.444 36.9316 169.967 36.9316Z" fill="white"/>
<path d="M180.75 26.4004H180.48C180.309 26.4004 179.869 26.4494 177.978 26.8972C176.564 27.2331 175.512 27.5131 174.787 27.744C173.5 28.1289 172.661 28.4088 172.242 28.5908C171.197 29.0316 170.714 29.4655 170.714 29.9694C170.714 30.3543 170.806 30.6132 170.984 30.7601C171.147 30.8931 171.368 30.9561 171.666 30.9561C171.887 30.9561 172.306 30.8721 172.939 30.7041C173.059 30.6762 173.813 30.4662 175.178 30.0813C175.192 30.8861 175.27 31.9638 175.398 33.2864C175.469 34.1192 175.59 35.3088 175.746 36.8554C175.959 38.9478 176.023 39.3817 176.052 39.5216C176.272 40.6483 176.706 41.2151 177.331 41.2151C177.743 41.2151 178.021 41.1102 178.177 40.9002C178.312 40.7113 178.376 40.4313 178.376 39.9765C178.255 39.0737 178.141 38.199 178.042 37.3662C177.942 36.5475 177.886 35.8267 177.886 35.2318C177.886 34.756 177.836 34.0352 177.729 33.0275C177.552 31.397 177.459 30.1793 177.445 29.3955C179.499 28.9057 179.862 28.8147 179.954 28.7867C181.191 28.4368 181.788 27.9539 181.788 27.3101C181.788 26.9462 181.674 26.6943 181.447 26.5543C181.255 26.4564 181.02 26.4004 180.75 26.4004Z" fill="white"/>
<path d="M191.199 36.3165C191.014 36.3165 190.793 36.3585 190.53 36.4564C190.267 36.5474 190.061 36.6384 189.919 36.7294C189.685 36.8623 189.159 37.1702 188.327 37.6531L188.114 37.7791C186.991 38.4369 186.443 38.5768 186.188 38.5768C185.953 38.5768 185.846 38.136 185.797 37.863C185.754 37.6321 185.733 37.2542 185.733 36.7504C185.733 35.8476 185.839 34.8539 186.038 33.7972C186.294 32.4186 186.678 31.2989 187.161 30.4662C187.431 30.0113 187.893 29.4585 188.54 28.8356C190.431 26.9952 190.431 26.9322 190.431 26.7712C190.431 26.4703 190.41 26.2674 190.36 26.1344C190.303 25.9874 190.154 25.8125 189.749 25.8125C189.223 25.8125 188.633 26.0084 187.993 26.4003C187.019 26.9952 186.145 27.9609 185.399 29.2905C184.553 30.7741 183.97 32.3556 183.65 33.9791C183.451 34.9729 183.352 36.0855 183.352 37.2822C183.352 38.003 183.494 38.6958 183.778 39.3466C184.183 40.2773 184.787 40.7462 185.576 40.7462C186.699 40.7462 188.007 40.2214 189.571 39.1367C191.533 37.7791 191.789 37.1772 191.789 36.7993C191.789 36.6034 191.703 36.4914 191.632 36.4284C191.518 36.3305 191.355 36.2885 191.199 36.3165Z" fill="white"/>
<path d="M201.221 26.4004H200.95C200.78 26.4004 200.339 26.4494 198.441 26.8972C197.027 27.2331 195.982 27.5131 195.25 27.744C193.964 28.1289 193.125 28.4088 192.705 28.5908C191.661 29.0316 191.177 29.4655 191.177 29.9694C191.177 30.3543 191.27 30.6132 191.447 30.7601C191.611 30.8861 191.831 30.9561 192.13 30.9561C192.35 30.9561 192.769 30.8721 193.402 30.7041C193.523 30.6762 194.276 30.4662 195.641 30.0813C195.662 30.8931 195.733 31.9708 195.861 33.2864C195.932 34.1192 196.053 35.3088 196.21 36.8554C196.423 38.9478 196.487 39.3817 196.515 39.5216C196.736 40.6483 197.169 41.2151 197.795 41.2151C198.207 41.2151 198.484 41.1102 198.64 40.9002C198.776 40.7183 198.839 40.4313 198.839 39.9765C198.719 39.0737 198.612 38.199 198.505 37.3662C198.406 36.5475 198.349 35.8267 198.349 35.2318C198.349 34.756 198.299 34.0352 198.193 33.0275C198.015 31.397 197.923 30.1793 197.908 29.3955C199.963 28.9057 200.325 28.8147 200.417 28.7867C201.654 28.4368 202.251 27.9539 202.251 27.3101C202.251 26.9462 202.138 26.6943 201.91 26.5543C201.725 26.4564 201.498 26.4004 201.221 26.4004Z" fill="white"/>
<path d="M209.842 31.9844C210.688 30.8998 211.328 30.004 211.733 29.3252C212.359 28.2615 212.664 27.4217 212.664 26.7499C212.664 26.1691 212.472 25.6653 212.096 25.2664C211.626 24.7695 211.093 24.5176 210.503 24.5176C209.373 24.5176 208.208 24.8885 207.056 25.6163C206.217 26.1411 205.414 26.8409 204.675 27.6877C203.787 28.6884 203.715 28.9683 203.715 29.1433C203.715 29.4092 203.822 30.039 204.782 30.039C204.789 30.039 204.789 30.039 204.796 30.039L204.675 33.419C204.675 35.6514 204.689 37.4499 204.718 38.9054C204.746 40.361 204.76 41.2148 204.76 41.4667C204.76 41.8516 204.888 42.2015 205.137 42.5024C205.4 42.8173 205.699 42.9783 206.025 42.9783C206.31 42.9783 206.559 42.8803 206.75 42.6913C206.95 42.4954 207.049 42.2365 207.049 41.9146C207.049 41.7606 207.021 41.3407 206.957 40.6339C206.964 40.6409 206.971 40.6479 206.978 40.6479C207.134 40.7529 207.298 40.8089 207.475 40.8089C208.463 40.8089 209.473 40.1791 210.567 38.8844C211.555 37.7088 212.039 36.7851 212.039 36.0503C212.039 35.1265 211.662 34.3847 210.916 33.8529C210.375 33.468 209.807 33.2721 209.21 33.2721C209.053 33.2721 208.911 33.2791 208.79 33.2931C209.11 32.8942 209.437 32.4953 209.764 32.0894L209.842 31.9844ZM206.729 32.7542L206.758 31.2706C206.743 31.0257 206.736 30.7668 206.736 30.4869V29.5771C206.736 29.2762 206.758 28.9753 206.793 28.6814C207.305 28.0376 207.866 27.5337 208.449 27.1838C209.039 26.8339 209.658 26.652 210.283 26.652C210.375 26.652 210.432 26.68 210.489 26.7569C210.567 26.8549 210.596 26.9529 210.596 27.0508C210.596 27.2188 210.482 27.6667 209.729 28.8283C209.309 29.4862 208.67 30.3469 207.831 31.3966C207.44 31.9005 207.07 32.3553 206.729 32.7542ZM206.608 36.5961L207.639 35.9873C208.2 35.6864 208.762 35.5394 209.309 35.5394C210.049 35.5394 210.049 35.8403 210.049 36.0083C210.049 36.5331 209.778 37.093 209.252 37.6668C208.67 38.3036 208.279 38.4716 208.051 38.4996C207.582 38.5485 207.227 38.7025 206.985 38.9614C206.921 39.0314 206.864 39.1014 206.822 39.1714C206.694 37.8907 206.623 37.03 206.608 36.5961Z" fill="white"/>
<path d="M223.141 36.9043L221.542 32.1876L220.248 27.1421C220.106 26.5962 219.985 26.1973 219.864 25.9174C219.665 25.4486 219.388 25.3506 219.189 25.3506C218.798 25.3506 218.471 25.7705 218.059 26.7992C217.647 27.8489 217.27 28.8986 216.943 29.9063C216.311 31.8097 215.642 34.0701 214.953 36.6313C214.114 39.7734 214.008 40.3962 214.008 40.5852C214.008 40.9701 214.064 41.271 214.178 41.5089C214.32 41.8028 214.59 41.9638 214.939 41.9638C215.251 41.9638 215.522 41.9078 215.742 41.7888C216.012 41.6419 216.154 41.411 216.154 41.117C216.154 40.6552 216.197 40.1233 216.289 39.5215C216.303 39.4025 216.36 39.0527 216.467 38.4578C217.334 38.4438 218.159 38.3458 218.926 38.1639C219.097 38.1219 219.708 37.947 220.788 37.6181C220.845 37.751 220.923 37.926 221.023 38.1499C221.066 38.2479 221.13 38.4228 221.215 38.6607C221.457 39.3256 221.677 39.8154 221.869 40.1233C222.189 40.6132 222.587 40.8651 223.042 40.8651C223.425 40.8651 223.688 40.7602 223.838 40.5362C223.88 40.4732 223.923 40.3753 223.987 39.9204C224.022 39.7944 224.051 39.5705 223.141 36.9043ZM220.049 35.2107C219.083 35.7566 218.756 35.9246 218.656 35.9665C218.144 36.1975 217.569 36.3654 216.936 36.4774C217.185 35.6166 217.64 34.203 218.286 32.2576C218.5 31.6278 218.677 31.0959 218.812 30.676C218.926 31.0679 219.04 31.4458 219.139 31.8097C219.445 32.8664 219.744 34.0141 220.049 35.2107Z" fill="white"/>
<path d="M61.5598 37.7451C61.5598 37.7451 57.0497 38.4439 57.1962 40.4811C57.1924 40.4811 60.9852 40.0633 61.5598 37.7451Z" fill="#E5348B"/>
<path d="M57.981 36.9688C57.981 36.9688 58.6983 41.4054 60.7674 41.2612C60.7712 41.2612 60.3356 37.527 57.981 36.9688Z" fill="#E5348B"/>
<path d="M51.6384 41.032C51.6384 41.032 51.3755 40.8139 51.015 40.6438C51.0714 40.385 51.0751 40.1114 50.9324 39.8711C50.9324 39.8711 50.7221 40.1447 50.5419 40.4885C50.2753 40.4294 49.9974 40.4294 49.7495 40.5699C49.7495 40.5699 50.0124 40.7658 50.3504 40.9396C50.2565 41.2428 50.249 41.5422 50.4555 41.7308C50.4555 41.7308 50.6658 41.4831 50.8348 41.1429C51.1427 41.2317 51.4469 41.2391 51.6384 41.032Z" fill="#E62049"/>
<path d="M61.9654 28.1992C61.9654 28.1992 60.5384 30.9574 61.7513 31.7005C61.7476 31.7042 63.0431 29.4526 61.9654 28.1992Z" fill="#614595"/>
<path d="M60.0765 29.8479C60.0765 29.8479 62.8817 31.2455 63.6327 30.0512C63.6365 30.0549 61.3458 28.7831 60.0765 29.8479Z" fill="#614595"/>
<path d="M6.16595 46.2521C6.16595 46.2521 9.0913 46.4739 9.30535 45.1799C9.30535 45.1799 6.87194 44.8915 6.16595 46.2521Z" fill="#E62049"/>
<path d="M8.28396 47.2618C8.28396 47.2618 8.50176 44.3816 7.18742 44.1709C7.18742 44.1709 6.89827 46.5704 8.28396 47.2618Z" fill="#E62049"/>
<path d="M5.3924 55.5656C5.3924 55.5656 9.4631 52.227 8.08867 50.2822C8.08867 50.2822 4.56249 52.922 5.3924 55.5656Z" fill="#95C11F"/>
<path d="M9.42553 54.2424C9.42553 54.2424 6.02327 50.242 4.05176 51.6026C4.05176 51.6026 6.74428 55.0632 9.42553 54.2424Z" fill="#95C11F"/>
<path d="M17.8786 53.7137L17.4243 52.7117C17.4243 52.7117 17.1088 51.7615 16.7934 51.4509C16.4779 51.1404 16.4066 50.242 16.4066 50.242C16.4066 50.242 16.5418 49.8057 15.8057 49.4692C15.8057 49.4692 15.633 49.2363 16.2263 48.9516C16.2263 48.9516 16.8309 48.8222 16.4441 48.5375C16.4441 48.5375 17.2478 48.2639 16.6619 47.1067C16.6619 47.1067 15.8846 46.2083 14.9796 46.9958C14.9796 46.9958 14.6303 47.2435 14.5515 47.8055C14.5515 47.8055 14.1647 47.4949 14.236 48.0532C14.236 48.0532 14.1121 48.0384 13.7741 47.8683C13.4399 47.6983 12.9668 47.4579 12.9668 47.4579C12.9668 47.4579 12.5837 47.262 12.6964 46.9662C12.809 46.6667 13.1846 46.1195 13.1846 46.1195C13.1846 46.1195 14.176 45.8718 13.9356 45.5945C13.9356 45.5945 14.1872 45.0695 13.6014 45.1731C13.6014 45.1731 13.4399 44.9586 13.1921 45.2026C12.9442 45.4466 12.9592 45.6426 12.9592 45.6426L12.088 46.5632C12.088 46.5632 11.6336 47.2028 12.0129 47.5763C12.3922 47.9497 12.6025 48.2787 12.6025 48.2787C12.6025 48.2787 12.3546 48.397 12.7001 48.7372C13.0456 49.0773 12.1481 50.6006 12.1481 50.6006C12.1481 50.6006 11.6749 51.7393 11.859 52.5601C11.859 52.5601 12.0918 52.5157 11.8176 53.0592C11.5435 53.6027 11.6562 55.1815 11.6562 55.1815C11.6562 55.1815 11.889 56.2906 12.2007 56.5975C12.2007 56.5975 12.0955 56.8637 12.6551 57.2186C12.6551 57.2186 12.8391 58.5127 12.5574 58.9194C12.2758 59.3261 12.4523 59.2817 12.0768 59.3593C11.7012 59.437 11.5548 59.5812 11.7012 59.7217C11.8477 59.8622 12.5161 59.7217 12.5161 59.7217C12.5161 59.7217 13.1019 59.4444 13.1545 59.2891C13.2071 59.1338 13.1996 58.3056 13.6202 57.9877C13.6202 57.9877 14.1459 58.3574 13.9619 58.7715C13.7779 59.1856 13.4624 59.3334 13.6014 59.4702C13.7403 59.607 14.3374 59.5294 14.4613 59.1929C14.5853 58.8565 14.6904 58.5977 14.8218 58.4683C14.9533 58.3389 14.9082 58.1577 14.6979 58.0098C14.4876 57.8619 13.9544 57.1632 13.9544 57.1632C13.9544 57.1632 13.8042 57.0005 14.0783 56.3942C14.3524 55.7878 14.8857 54.0464 14.8857 54.0464C14.8857 54.0464 15.0171 53.8726 14.912 53.4955C14.912 53.4955 15.1936 53.2885 14.912 52.6858L14.9721 51.5471C14.9721 51.5471 15.1899 51.2291 15.2274 51.0886C15.2612 50.9518 15.5691 51.0627 15.6217 51.218C15.6743 51.3733 15.6555 51.4768 15.8508 51.5471C16.0423 51.6173 16.0686 51.8761 16.0686 51.8761L17.1914 53.2922L17.7434 54.2239L17.8786 53.7137Z" fill="white"/>
<path d="M17.7397 54.2235C17.7397 54.2235 17.8298 54.6894 17.9725 54.7707C18.1152 54.852 18.1903 54.8151 18.2692 54.682C18.3518 54.5489 18.4945 54.4342 18.3067 54.327C18.3067 54.327 18.6184 54.1939 17.8786 53.7133C17.1426 53.2327 17.4843 53.4915 17.4843 53.4915L17.7397 54.2235Z" fill="white"/>
<path d="M44.8301 45.1325C44.526 45.9644 43.8087 46.2047 43.8087 46.2047C43.3956 46.0458 43.1102 45.7315 42.9262 45.4468C42.9262 45.4468 42.8173 45.2582 42.6446 44.8737C42.2916 44.6556 42.4155 44.3746 42.4155 44.3746C42.3291 44.2082 42.4869 44.186 42.4869 44.186C42.4681 44.0788 42.5582 44.0086 42.6333 43.9679C42.6971 43.9087 42.7685 44.0308 42.7685 44.0308C42.7685 44.0308 42.7159 43.9494 42.7309 43.6758C42.746 43.4022 42.8474 43.7091 42.8474 43.7091C42.9037 43.8866 42.9262 44.1121 42.9262 44.1121C42.9262 44.1121 43.0652 43.8311 43.1891 43.9051C43.313 43.979 43.0389 44.1565 43.0351 44.2378C43.0314 44.3191 42.9713 44.6667 42.9713 44.6667C43.3618 45.1954 43.7599 45.3248 43.7599 45.3248C43.7599 45.3248 43.835 45.1954 44.218 44.3746C44.6048 43.5538 45.2207 43.6684 45.2207 43.6684C45.9267 43.4836 45.3859 42.9438 45.078 42.6924C45.0742 43.5982 44.6086 43.502 44.6086 43.502C44.8602 43.2321 44.4321 42.4446 44.4321 42.4446C43.8688 40.5258 44.9165 40.8437 45.1681 40.9436C45.3146 40.6996 45.6037 40.4518 46.1633 40.4407C46.505 40.4333 46.7303 40.5591 46.8918 40.7254C47.1509 40.6108 47.7893 40.4223 47.7367 41.3724C47.7367 41.3724 47.5677 42.1932 48.0146 42.685C48.0146 42.685 47.6691 42.9549 47.2373 42.2783C47.1922 42.5223 47.0983 42.7996 46.8843 43.014C46.4674 43.4392 46.9218 43.5279 46.9218 43.5279C47.1546 43.5723 47.2748 43.6093 47.2748 43.6093C47.2748 43.6093 47.3724 43.6499 47.8494 43.6795C48.3338 43.7054 48.3676 44.4892 49.5993 44.3709C49.9523 44.3376 50.6395 43.3948 50.6395 43.3948C50.6395 43.3948 50.7447 43.1323 50.7184 42.9623C50.6921 42.7922 50.801 42.611 50.9212 42.5814C51.0413 42.5519 50.955 42.807 50.955 42.807C50.955 42.807 51.0038 42.8292 51.0789 42.8255L51.3155 42.7145C51.4807 42.5999 51.4882 42.9623 51.4882 42.9623C51.4882 42.9623 51.5258 43.0695 51.5107 43.3727C51.5032 43.5353 51.3305 43.6499 51.1728 43.7202C51.1728 43.7202 50.9888 43.7904 50.955 43.8015C50.9362 43.8089 50.9212 43.8089 50.9212 43.8089C50.4593 44.5669 49.8321 45.0068 49.697 45.1251C49.5618 45.2434 49.2313 45.1917 49.2313 45.1917C48.3 45.1399 47.9996 44.6704 47.9996 44.6704C47.8418 44.8072 47.6053 45.1547 47.6053 45.1547L47.4889 46.4376C49.6819 48.8519 49.4453 51.5768 49.4453 51.5768C49.1825 51.562 48.8858 51.7765 48.8858 51.7765C48.3751 52.1092 47.7855 52.2867 47.1884 52.3606C47.1997 52.5085 47.1697 52.7451 47.0082 53.1592C47.0082 53.1592 46.8655 53.5142 46.9744 53.7693C46.9744 53.7693 47.1021 53.858 47.1809 53.943L46.5162 53.9319L46.5125 53.577C46.5125 53.577 46.674 52.893 46.4186 52.4087C46.2797 52.4087 46.1407 52.405 46.0055 52.3976C46.0205 52.7377 46.0243 53.2923 45.953 53.5474C45.9492 53.5622 45.9454 53.5659 45.9454 53.5807C45.998 53.6251 46.152 53.7656 46.2083 53.9282L45.4836 53.9135C45.4648 53.7693 45.4535 53.5585 45.4798 53.3515C45.5136 53.0816 45.3446 52.5714 45.2545 52.3199C44.3344 52.1868 43.6623 51.9502 43.6623 51.9502C43.2229 47.2326 44.5447 47.2252 44.7137 46.7002C44.8714 46.1825 44.8301 45.1325 44.8301 45.1325Z" fill="white"/>
<path d="M39.9257 24.5462C39.9257 24.5462 35.0514 25.4483 35.9489 19.248C42.2427 20.2241 39.9257 24.5462 39.9257 24.5462Z" fill="#95C11F"/>
<path d="M27.3006 22.2276C27.3006 22.2276 24.0598 18.5304 29.9555 16.1826C32.2575 22.0316 27.3006 22.2276 27.3006 22.2276Z" fill="#95C11F"/>
<path d="M23.9509 32.0812C23.9509 32.0812 21.6451 36.407 17.2628 31.8631C21.9493 27.6113 23.9509 32.0812 23.9509 32.0812Z" fill="#95C11F"/>
<path d="M39.1409 28.3207C39.1409 28.3207 34.8824 30.8274 33.5493 24.7011C39.7981 23.4773 39.1409 28.3207 39.1409 28.3207Z" fill="#3AAA35"/>
<path d="M28.7539 26.4798C28.7539 26.4798 26.6734 22.0468 33.0011 21.3887C33.5719 27.637 28.7539 26.4798 28.7539 26.4798Z" fill="#3AAA35"/>
<path d="M26.8499 36.3841C26.8499 36.3841 24.394 40.6249 20.1731 35.9368C25.0061 31.8476 26.8499 36.3841 26.8499 36.3841Z" fill="#3AAA35"/>
<path d="M43.7899 24.5016C43.7899 24.5016 42.8661 19.6767 49.2012 20.564C48.2023 26.7939 43.7899 24.5016 43.7899 24.5016Z" fill="#3AAA35"/>
<path d="M45.1005 19.3621C45.1005 19.3621 44.9165 15.4763 49.7833 16.859C48.3075 21.6396 45.1005 19.3621 45.1005 19.3621Z" fill="#95C11F"/>
<path d="M49.0172 26.6313C49.0172 26.6313 51.1427 23.3518 54.3084 27.2487C50.2978 30.31 49.0172 26.6313 49.0172 26.6313Z" fill="#E62049"/>
<path d="M45.9905 30.0989C45.9905 30.0989 48.7093 26.1836 52.4157 31.0528C47.41 34.6317 45.9905 30.0989 45.9905 30.0989Z" fill="#95C11F"/>
<path d="M43.5045 34.24C43.5045 34.24 45.953 30.1545 49.9786 34.7687C45.2282 38.6693 43.5045 34.24 43.5045 34.24Z" fill="#3AAA35"/>
<path d="M42.5431 16.3045C42.5431 16.3045 38.9757 16.4709 40.2449 12.1377C44.6311 13.4539 42.5431 16.3045 42.5431 16.3045Z" fill="#614595"/>
<path d="M22.997 14.4745C22.997 14.4745 20.2332 12.2488 24.1199 9.86035C26.4857 13.7277 22.997 14.4745 22.997 14.4745Z" fill="#614595"/>
<path d="M20.3796 16.124C20.3796 16.124 18.4907 19.1076 15.5917 15.6174C19.1817 12.8112 20.3796 16.124 20.3796 16.124Z" fill="#E62049"/>
<path d="M13.2484 22.8413C13.2484 22.8413 12.4373 25.6696 9.28284 23.5326C11.5022 20.4566 13.2484 22.8413 13.2484 22.8413Z" fill="#E5348B"/>
<path d="M24.623 23.3662C24.623 23.3662 22.7341 26.3498 19.8351 22.8596C23.4251 20.0534 24.623 23.3662 24.623 23.3662Z" fill="#3AAA35"/>
<path d="M43.8688 12.9177C43.8688 12.9177 40.6843 13.0655 41.8184 9.19824C45.7314 10.374 43.8688 12.9177 43.8688 12.9177Z" fill="#E5348B"/>
<path d="M20.7063 11.587C20.7063 11.587 18.0964 9.7902 21.3898 7.40918C23.7594 10.696 20.7063 11.587 20.7063 11.587Z" fill="#E5348B"/>
<path d="M17.7134 13.3583C17.7134 13.3583 15.8958 15.9352 13.4662 12.7002C16.7933 10.3524 17.7134 13.3583 17.7134 13.3583Z" fill="#614595"/>
<path d="M45.7915 15.4651C45.7915 15.4651 45.6413 12.3299 49.5693 13.4465C48.3751 17.3027 45.7915 15.4651 45.7915 15.4651Z" fill="#E62049"/>
<path d="M46.8429 12.1126C46.8429 12.1126 46.7002 9.14737 50.418 10.2011C49.2914 13.8502 46.8429 12.1126 46.8429 12.1126Z" fill="#614595"/>
<path d="M44.9465 9.86058C44.9465 9.86058 41.9348 10.0011 43.0051 6.34082C46.7115 7.44999 44.9465 9.86058 44.9465 9.86058Z" fill="#3AAA35"/>
<path d="M18.3105 9.38691C18.3105 9.38691 15.5992 8.08549 18.3255 5.38281C21.0331 8.11137 18.3105 9.38691 18.3105 9.38691Z" fill="#3AAA35"/>
<path d="M46.1407 7.16173C46.1407 7.16173 43.7561 7.27265 44.6048 4.37402C47.5377 5.25396 46.1407 7.16173 46.1407 7.16173Z" fill="#95C11F"/>
<path d="M14.9457 10.8149C14.9457 10.8149 13.7403 12.8447 11.735 10.5672C14.082 8.62242 14.9457 10.8149 14.9457 10.8149Z" fill="#E5348B"/>
<path d="M8.59938 17.9354C8.59938 17.9354 6.21478 18.05 7.05972 15.1514C9.99257 16.0276 8.59938 17.9354 8.59938 17.9354Z" fill="#E62049"/>
<path d="M6.87575 20.1873C6.87575 20.1873 6.77435 22.5351 3.92035 21.4444C5.07321 18.6456 6.87575 20.1873 6.87575 20.1873Z" fill="#95C11F"/>
<path d="M9.94373 21.1702C9.94373 21.1702 9.84234 23.518 6.98834 22.4273C8.13745 19.6322 9.94373 21.1702 9.94373 21.1702Z" fill="#3AAA35"/>
<path d="M11.5736 18.8039C11.5736 18.8039 8.55811 18.4748 10.2067 15.0068C13.7103 16.6817 11.5736 18.8039 11.5736 18.8039Z" fill="#95C11F"/>
<path d="M15.4978 20.5494C15.4978 20.5494 11.5961 20.1242 13.7291 15.6357C18.2655 17.806 15.4978 20.5494 15.4978 20.5494Z" fill="#3AAA35"/>
<path d="M17.1351 25.0858C17.1351 25.0858 15.7269 28.6943 11.8589 25.5184C15.1448 21.7546 17.1351 25.0858 17.1351 25.0858Z" fill="#614595"/>
<path d="M48.1535 8.96541C48.1535 8.96541 48.0409 6.61767 50.985 7.45325C50.0912 10.3408 48.1535 8.96541 48.1535 8.96541Z" fill="#E5348B"/>
<path d="M57.6919 17.7099C57.6919 17.7099 55.9569 16.0979 58.6645 14.6855C60.0577 17.3771 57.6919 17.7099 57.6919 17.7099Z" fill="#E62049"/>
<path d="M58.7509 19.7915C58.7509 19.7915 60.4219 18.1129 61.8039 20.8045C59.0438 22.1244 58.7509 19.7915 58.7509 19.7915Z" fill="#3AAA35"/>
<path d="M55.9119 21.3807C55.9119 21.3807 57.9359 19.3509 59.607 22.6082C56.2649 24.2091 55.9119 21.3807 55.9119 21.3807Z" fill="#E5348B"/>
<path d="M52.4007 23.9359C52.4007 23.9359 54.5299 20.845 57.4628 24.668C53.531 27.5 52.4007 23.9359 52.4007 23.9359Z" fill="#614595"/>
<path d="M54.5262 18.8782C54.5262 18.8782 52.1191 16.6414 55.8743 14.6855C57.8045 18.4161 54.5262 18.8782 54.5262 18.8782Z" fill="#95C11F"/>
<path d="M51.0376 21.0445C51.0376 21.0445 48.4652 18.6524 52.4758 16.5635C54.5412 20.5491 51.0376 21.0445 51.0376 21.0445Z" fill="#3AAA35"/>
<path d="M41.5405 20.1982C41.5405 20.1982 37.2182 21.0005 38.0143 15.499C43.5946 16.3679 41.5405 20.1982 41.5405 20.1982Z" fill="#E62049"/>
<path d="M23.0234 19.8909C23.0234 19.8909 20.3534 23.333 17.2102 18.7189C21.9493 15.6872 23.0234 19.8909 23.0234 19.8909Z" fill="#95C11F"/>
<path d="M20.6763 28.051C20.6763 28.051 18.9977 32.0551 14.7543 28.3949C18.5396 24.2651 20.6763 28.051 20.6763 28.051Z" fill="#E62049"/>
<path d="M25.3741 17.9422C25.3741 17.9422 22.1559 14.9881 27.1278 12.3594C29.7265 17.2989 25.3741 17.9422 25.3741 17.9422Z" fill="#E62049"/>
<path d="M62.6714 17.6136C62.4798 17.2476 62.2733 16.8779 62.0593 16.5192C61.5485 15.6504 60.9965 14.7963 60.3994 13.9681C60.2304 13.7315 60.0502 13.4875 59.8699 13.2583C59.0513 12.1824 58.1613 11.1509 57.2075 10.1748C57.0159 9.97883 56.8244 9.79027 56.6254 9.60171C54.6727 7.68285 52.4758 6.008 50.1213 4.62894C49.8209 4.45147 49.5129 4.274 49.2013 4.10762C48.9684 3.97822 48.7393 3.85252 48.5028 3.73421C47.8606 3.40146 47.2034 3.09088 46.5425 2.8062C44.5635 1.93735 42.5206 1.27185 40.4215 0.805999C38.0031 0.273598 35.5208 0 32.986 0C29.8354 0 26.7523 0.421484 23.7819 1.25336C22.0808 1.734 20.4172 2.34404 18.7912 3.09458C18.5133 3.22029 18.2504 3.34969 17.98 3.4791C16.9699 3.97453 15.986 4.52541 15.0359 5.12436C14.7956 5.27225 14.5627 5.42753 14.3262 5.57912C13.8643 5.88599 13.3986 6.21135 12.9555 6.53671C12.2758 7.03214 11.6224 7.55345 10.9915 8.10064C10.7812 8.2781 10.5709 8.46297 10.3681 8.65152C9.95503 9.02495 9.54946 9.40945 9.15516 9.80136C5.41492 13.5282 2.5797 18.1053 0.968695 23.1521C-0.0302044 26.3058 -0.26303 29.5076 0.300259 32.4099C0.311525 32.4913 0.330303 32.58 0.349079 32.665C0.386632 32.824 0.420421 32.983 0.457973 33.1457C0.495526 33.3047 0.536837 33.4599 0.578144 33.6115C0.619452 33.7668 0.660762 33.9184 0.709581 34.0737C0.758399 34.229 0.807219 34.3769 0.852283 34.5247C0.901101 34.6726 0.953668 34.8205 1.01 34.9684C1.06257 35.1089 1.12266 35.2531 1.17899 35.3936C1.76856 36.8207 2.55717 38.0815 3.54856 39.1685C3.66121 39.2979 3.78138 39.4273 3.90906 39.553C4.04049 39.6898 4.18695 39.8192 4.32214 39.9486C4.46108 40.078 4.60378 40.2074 4.75399 40.3331C4.89294 40.4588 5.03564 40.5771 5.1821 40.688C5.27222 40.7583 5.36235 40.8248 5.45998 40.8877V40.8951C5.46749 40.8877 5.46749 40.8951 5.47125 40.9025C5.47125 40.9025 5.47876 40.9099 5.48251 40.9099C6.15095 41.372 7.10103 41.9118 8.2614 42.2483C8.38157 42.2778 8.49423 42.3148 8.6144 42.3444C8.86224 42.4036 9.10634 42.4516 9.36545 42.4923C9.90621 42.5699 10.477 42.6032 11.0854 42.5625C11.168 42.5551 11.2468 42.5514 11.3332 42.544C11.5435 42.5034 11.7463 42.4553 11.9416 42.4035C12.3922 42.2778 12.7902 42.1152 13.1094 41.971C14.3074 41.4312 15.5879 41.1539 15.5879 41.1539C16.6281 40.8285 15.9372 40.5254 15.7794 40.5254C15.618 40.5327 15.2687 40.3997 14.1271 40.6548C13.6953 40.7509 13.2371 40.8433 12.764 40.9136C11.9941 41.0245 11.1905 41.0726 10.3756 40.9358C9.05752 40.7213 8.51677 39.6972 8.51677 39.6972C8.23512 38.6361 9.48938 39.7378 10.278 40.163C11.536 40.8655 12.3509 40.3109 12.3509 40.3109C12.5424 40.2037 12.6738 40.1113 12.7602 40.0262C13.0306 39.7785 12.8691 39.6232 12.5987 39.5641C12.4861 39.5345 12.3471 39.5271 12.2157 39.5345C11.705 39.5567 11.183 39.309 10.3568 38.747C10.3043 38.71 10.2479 38.6767 10.1879 38.6361C10.1465 38.6065 10.0376 38.5252 10.0189 38.5178C9.74849 38.3588 9.4706 38.2626 9.24904 38.1998C9.06127 38.148 8.91107 38.1185 8.82845 38.0926C8.82094 38.0926 8.82094 38.0926 8.82094 38.0926C8.52052 38.0149 8.22761 37.9225 7.93846 37.8153C7.6493 37.7044 7.37517 37.5787 7.09728 37.4419C6.82315 37.3088 6.55652 37.1572 6.29741 36.9945C6.02703 36.8244 5.76416 36.647 5.51631 36.4473C5.41867 36.3771 5.32479 36.292 5.22716 36.2181C5.03939 36.0517 4.85539 35.8853 4.67889 35.7079C4.17944 35.2124 3.74007 34.6652 3.3683 34.07C2.78623 33.1346 2.36565 32.0809 2.15536 30.9569C1.57329 27.8328 1.69346 23.714 3.99919 19.0149C4.17944 18.6377 4.37846 18.2569 4.60002 17.865C5.8693 15.5875 7.66056 13.1843 10.1503 10.6961C10.3531 10.489 10.5634 10.2746 10.7812 10.075C11.4346 9.44273 12.1293 8.8142 12.8654 8.18198L13.8981 7.39077C15.5015 6.22614 17.1801 5.22419 18.87 4.41449L19.6624 4.05217C20.9241 3.49019 22.216 3.00955 23.5265 2.61395C23.5754 2.59546 23.6242 2.57697 23.6767 2.56588C25.7083 1.96323 27.7888 1.56023 29.918 1.37168C30.9357 1.27185 31.9571 1.22378 32.9898 1.22378C35.4082 1.22378 37.8228 1.49738 40.1661 2.02978C42.8098 2.61025 45.3709 3.52716 47.7705 4.73985L47.7968 4.75464C45.2732 10.2561 43.2792 15.9203 41.8146 21.7175C41.8034 21.7175 41.7846 21.7212 41.7771 21.7212V21.7286C40.8758 24.0616 40.1173 26.5757 39.4939 29.1342C39.3061 29.9143 39.1259 30.7018 38.9606 31.4893C38.2584 34.8168 37.759 38.1111 37.4398 41.0356C37.3384 41.0578 37.2708 41.0836 37.2708 41.0836C37.2107 41.0836 37.1281 41.1058 37.0905 41.1613C37.0718 41.1835 37.068 41.213 37.0793 41.2574C37.0905 41.287 37.1018 41.3092 37.1281 41.3387C37.1394 41.3572 37.1581 41.3757 37.1769 41.3905V41.3979C37.1957 41.409 37.1994 41.4201 37.1994 41.4349C37.2107 41.4718 37.1994 41.5051 37.1694 41.5421C37.0004 41.727 36.347 41.9044 36.347 41.9044C36.347 41.6382 36.2381 41.5717 36.178 41.4534C36.1104 41.3351 36.1968 41.1169 36.1968 41.1169C36.208 40.9801 36.1667 40.8729 36.0841 40.7989C36.0466 40.7583 35.9978 40.7287 35.9489 40.6991C35.9039 40.6732 35.8551 40.6474 35.8062 40.6289C35.6448 40.566 35.487 40.5401 35.457 40.5364C35.5096 40.5069 35.5471 40.4847 35.5696 40.4551C35.6222 40.3886 35.6072 40.3294 35.5584 40.2776C35.5359 40.2407 35.4908 40.2111 35.4495 40.1889C35.4307 40.1815 35.4194 40.1704 35.4082 40.1593C35.3594 40.1187 35.3406 40.0595 35.3594 39.993C35.3669 39.9745 35.3706 39.9523 35.3894 39.9264C35.4082 39.8857 35.4382 39.8451 35.487 39.8007V39.7933C35.6448 39.6454 35.8851 39.5049 35.8851 39.5049C36.5986 38.6361 35.8776 37.8412 35.7274 37.6933C35.7161 37.6748 35.7048 37.6711 35.7048 37.6711C35.656 37.6119 35.6034 37.5639 35.5471 37.5232C34.9275 36.9797 33.9887 37.1498 33.9887 37.1498L33.2902 37.3383C33.2677 37.3162 33.2414 37.2903 33.2189 37.2718C33.1776 37.2311 33.14 37.2015 33.11 37.172C32.9823 37.0647 32.941 37.0721 32.9297 37.1017C32.9109 37.1128 32.9072 37.1387 32.8922 37.1535C32.8846 37.1609 32.8734 37.1646 32.8621 37.1646C32.8396 37.1646 32.8133 37.1757 32.7945 37.2015C32.7833 37.2089 32.7757 37.22 32.7645 37.2311C32.7532 37.2496 32.7419 37.2718 32.7269 37.2903C32.7157 37.3125 32.7081 37.3309 32.7081 37.3494C32.7006 37.3494 32.7006 37.3494 32.7006 37.3494C32.4378 37.3309 32.3176 37.3864 32.2688 37.4493C32.1974 37.5454 32.2575 37.6637 32.2688 37.6933C32.2763 37.7007 32.2763 37.7007 32.2763 37.7007H32.2688C32.22 37.6896 32.1899 37.6896 32.1862 37.7118C32.1561 37.7598 32.2162 37.9114 32.419 38.2848C32.6781 38.7655 32.6518 38.8949 32.5166 39.0539C32.4941 39.0723 32.4678 39.0945 32.4453 39.1204V39.1278C32.4265 39.1463 32.4077 39.1648 32.3965 39.1759C32.3176 39.2757 32.3476 39.3164 32.3852 39.3459C32.4077 39.3644 32.434 39.3755 32.4453 39.394V39.4014C32.4641 39.4125 32.4753 39.4236 32.4828 39.4384C32.5054 39.4605 32.5054 39.4901 32.4641 39.5789C32.4265 39.638 32.4565 39.6861 32.4866 39.7157C32.5279 39.7526 32.5842 39.7637 32.5842 39.7637C32.5842 39.7637 32.5767 39.7637 32.5767 39.7711C32.5654 39.7822 32.5542 39.7896 32.5467 39.7933C32.5354 39.8007 32.5279 39.8118 32.5241 39.8155C32.4866 39.8635 32.5241 39.9116 32.5429 39.9338C32.5504 39.9338 32.5504 39.9338 32.5504 39.9338C32.5504 39.9338 32.588 39.9449 32.6105 39.9745C32.6406 40.004 32.6706 40.0447 32.6706 40.1113C32.6706 40.1482 32.6593 40.1778 32.633 40.2074C32.5654 40.2776 32.4415 40.3146 32.4415 40.3146C32.2988 40.3516 32.1899 40.4144 32.1223 40.4995C31.9008 40.7287 31.912 41.0836 31.8332 41.3166C31.7506 41.5532 31.6529 41.7233 31.6116 41.7824C31.6041 41.7935 31.6003 41.8009 31.6003 41.812C31.5928 41.8046 31.5928 41.812 31.5928 41.812C31.5928 41.812 31.3938 41.6715 31.0295 41.7824C30.808 41.849 30.5263 41.8416 30.3311 41.8231C30.1996 41.8157 30.1095 41.8046 30.1095 41.8046C30.132 41.7565 30.1208 41.7159 30.087 41.6789C30.0194 41.6012 29.8542 41.5495 29.6852 41.5125C29.6777 41.3942 29.6739 41.2685 29.6626 41.1502C29.6138 40.5401 29.565 39.9264 29.5049 39.3201C29.4336 38.5695 29.3472 37.8227 29.2571 37.0758C29.1857 36.4658 29.0993 35.8557 29.0167 35.2531C28.9754 34.9056 28.9266 34.5617 28.874 34.2105C28.8665 34.1698 28.8628 34.1291 28.8553 34.0848C28.8553 34.033 28.8552 33.9739 28.8477 33.9184C28.8102 32.5689 28.6975 31.2379 28.4985 29.9217C28.4272 29.4485 28.3408 28.9789 28.2507 28.5204C28.2394 28.4539 28.2206 28.3836 28.2094 28.3208C28.1605 28.0731 28.108 27.8254 28.0479 27.5813C27.9803 27.2745 27.9089 26.9824 27.8301 26.6829V26.6755C25.7985 18.8596 20.9392 11.9753 13.9318 7.38707L12.8991 8.17827C19.6211 12.456 24.3339 18.9076 26.4256 26.2688C26.8161 27.659 27.1241 29.0676 27.3269 30.5133C27.3682 30.7979 27.4057 31.0826 27.4358 31.3673C27.4545 31.4856 27.4658 31.6039 27.4771 31.7222C27.4958 31.9367 27.5184 32.1548 27.5296 32.3656C27.5409 32.4691 27.5484 32.5763 27.5559 32.6835C22.4413 24.7862 14.1684 19.3772 4.63383 17.8576C4.41227 18.2495 4.21324 18.6267 4.03299 19.0075C14.1346 20.4901 22.7943 26.4722 27.6348 35.2235C27.6348 35.2457 27.6348 35.2679 27.6348 35.2864C27.6235 36.5545 27.5259 37.819 27.3532 39.0686C26.8011 43.2761 25.3741 47.3541 23.1585 51.0588C23.151 51.0809 23.136 51.1105 23.1285 51.129C22.9107 51.495 22.6253 51.9387 22.3061 52.3972C22.2836 52.4378 22.2535 52.4785 22.2235 52.5266C22.1934 52.5746 22.1559 52.6153 22.1108 52.6745C21.8817 53.0072 21.6414 53.3363 21.4011 53.6616V53.669C21.202 53.9352 21.0105 54.1903 20.8378 54.4269C20.8303 54.4269 20.8378 54.4343 20.8378 54.4343C20.7063 54.6118 20.5787 54.7782 20.4585 54.9261C20.1581 55.3217 19.9403 55.599 19.8952 55.6729C19.8877 55.6729 19.8839 55.6803 19.8839 55.6803V55.6877C19.8839 55.6877 19.8764 55.6988 19.8614 55.7173V55.7247C19.8426 55.7358 19.8126 55.7727 19.7825 55.8134C19.715 55.891 19.6248 56.002 19.5234 56.1388C19.3056 56.3976 19.0352 56.7377 18.7724 57.0631C18.5734 57.3071 18.3818 57.5437 18.2241 57.7212C18.0814 57.8876 17.9312 58.0539 17.781 58.2129C17.5181 57.9763 17.2177 57.7175 16.8797 57.4661C16.0986 56.8745 15.1185 56.3051 13.9694 56.0648C13.9394 56.0574 13.9168 56.0537 13.8868 56.0463C13.3348 55.9354 12.7489 55.9354 12.1969 56.0168C11.4346 56.1425 10.7173 56.4308 10.2029 56.8634C10.124 56.93 10.0452 57.0002 9.98132 57.0779C9.46309 57.6029 9.219 58.2721 9.24904 59.03C9.27157 59.7694 9.56073 60.4202 10.0865 60.9304C10.1578 61.008 10.2367 61.0783 10.3193 61.1448C11.198 61.8473 12.5725 62.1763 13.823 61.9804C14.9908 61.7844 16.0949 61.2779 17.1839 60.4128C17.3867 60.2538 17.5932 60.08 17.796 59.8915V59.8988C18.0589 60.1835 18.5959 60.7677 19.1066 61.2705C19.2944 61.4591 19.4784 61.6328 19.6549 61.7807C19.6962 61.8177 19.7337 61.8473 19.775 61.8806L19.8276 61.9175C19.8351 61.9249 19.8389 61.9286 19.8464 61.936C19.8652 61.9434 19.8764 61.9471 19.8839 61.9582C19.8914 61.9582 19.8914 61.9582 19.8914 61.9582C20.1844 62.2133 20.4998 62.4536 20.819 62.6792C21.3372 63.0563 21.8817 63.4001 22.4525 63.7107C22.8018 63.9066 23.1623 64.0841 23.534 64.2505C24.8521 64.8531 26.2942 65.3116 27.8451 65.6111C28.2882 65.7072 28.7426 65.7811 29.2045 65.8403C29.3923 65.8625 29.5763 65.8884 29.764 65.9068C30.7967 66.0326 31.867 66.0917 32.9785 66.0917H33.0687V66.1102H33.2902C33.339 66.1102 33.3878 66.1102 33.4329 66.1028V66.0843C34.0413 66.0769 34.6609 66.0547 35.2918 66.0141V66.0325L35.5321 66.0215C35.6936 66.0104 35.8513 65.9993 35.9902 65.9808C36.2005 65.9697 36.4108 65.9438 36.6136 65.9216C36.8427 65.8995 37.0642 65.8736 37.2858 65.844C37.3046 65.844 37.3271 65.8366 37.3459 65.8366C37.7477 65.7885 38.1383 65.7294 38.5363 65.6665C38.9494 65.6 39.3662 65.5186 39.7755 65.4373C40.0459 65.3855 40.3163 65.3264 40.5867 65.2672C40.7557 65.2303 40.9359 65.1896 41.1087 65.1489L41.1687 65.1378C41.2288 65.1193 41.2889 65.1082 41.3114 65.0972C41.4241 65.075 41.5405 65.0454 41.6494 65.0158L42.04 64.9086C42.1414 64.879 42.239 64.8568 42.3329 64.8273C42.761 64.7089 43.144 64.5906 43.512 64.4649C43.6022 64.4353 43.6848 64.4058 43.7711 64.3762C44.0303 64.2949 44.2931 64.2061 44.5522 64.11C45.0742 63.9214 45.5849 63.7255 46.0618 63.5258C46.3134 63.4297 46.55 63.3299 46.7716 63.219C46.9143 63.1672 47.0608 63.1006 47.1847 63.0304C47.1959 63.0304 47.2034 63.023 47.2147 63.0193C47.3349 62.9712 47.4475 62.9121 47.5564 62.864C47.808 62.7457 48.0484 62.6274 48.2887 62.5017C48.3864 62.4536 48.4765 62.4056 48.5666 62.3612C48.9346 62.1726 49.2951 61.9767 49.6594 61.777C49.911 61.6366 50.1701 61.4923 50.418 61.3408C51.338 60.7862 52.2393 60.1798 53.0917 59.5587C53.3095 59.3923 53.5198 59.2333 53.7339 59.0744C53.9441 58.908 54.1544 58.7416 54.3572 58.5789C54.56 58.4089 54.7665 58.2351 54.9768 58.065C55.1759 57.8949 55.3749 57.7175 55.5889 57.5252C55.7805 57.3552 55.9795 57.1777 56.1673 56.9928L56.2198 56.9521C56.3926 56.7821 56.5691 56.6157 56.7418 56.4419C56.9108 56.2756 57.0798 56.1055 57.2413 55.9391C57.6431 55.5324 58.0411 55.0998 58.4505 54.6303C58.6082 54.4528 58.7584 54.2754 58.9086 54.0905C59.0776 53.8908 59.2503 53.6838 59.4118 53.4768C59.9037 52.8556 60.3731 52.2271 60.835 51.5542C61.1355 51.1105 61.4284 50.6595 61.7175 50.1862C61.8302 50.0088 61.9391 49.8239 62.048 49.6427C62.0968 49.5614 62.1456 49.4763 62.1907 49.395C62.3334 49.151 62.4723 48.9107 62.6038 48.663C62.7352 48.4263 62.8629 48.1897 62.983 47.9457C63.5351 46.8735 64.0233 45.7791 64.4438 44.6663C65.8521 40.9838 66.5656 37.1017 66.5656 33.0828C66.5581 27.6072 65.2249 22.3424 62.6714 17.6136ZM16.5455 59.3738C16.4178 59.4737 16.2977 59.5735 16.1737 59.6622C15.6818 60.0283 15.1936 60.3055 14.7017 60.5089C14.2097 60.7048 13.714 60.8158 13.1996 60.8527C12.4297 60.9045 11.5473 60.6974 10.9802 60.154C10.7511 59.9284 10.5784 59.6511 10.4808 59.3147C10.3606 58.8599 10.4395 58.4384 10.7136 58.0613C10.7624 57.9948 10.8112 57.9356 10.8751 57.8765C11.2769 57.4439 11.9453 57.1481 12.595 57.1185C12.6738 57.1111 12.7527 57.1111 12.8241 57.1111C12.9743 57.1111 13.1245 57.1185 13.2747 57.1407C14.773 57.2997 16.0348 58.2314 16.9173 59.0411C16.7896 59.1594 16.6694 59.2666 16.5455 59.3738ZM41.4804 29.0048C41.4879 28.953 41.4992 28.8976 41.5105 28.8458C41.7583 27.4372 42.04 26.0396 42.3516 24.6494C42.453 24.1836 42.562 23.7325 42.6671 23.2704C42.6784 23.263 42.6934 23.2593 42.7046 23.2519C44.1654 17.1293 46.2271 11.1472 48.8858 5.33511C51.2554 6.65872 53.4297 8.24852 55.3711 10.0971C55.5702 10.282 55.7692 10.4743 55.9532 10.6665C56.9108 11.613 57.8045 12.626 58.642 13.7019C58.8147 13.9201 58.9912 14.1456 59.1527 14.3748C59.761 15.1919 60.3206 16.0312 60.8313 16.8963C60.8313 16.9 60.835 16.9 60.835 16.9037C51.6121 20.0057 44.2218 26.8678 40.5679 35.8484C40.5604 35.8484 40.5191 35.9371 40.5191 35.9371C40.5191 35.9371 40.5191 35.9371 40.5191 35.9408C40.5228 35.9149 40.5228 35.8927 40.5266 35.8668V35.8595C40.5266 35.8595 40.5266 35.8521 40.5341 35.8595V35.8225C40.5829 35.3862 40.6317 34.9462 40.6768 34.51C40.7144 34.2031 40.7482 33.8962 40.7895 33.593C40.8082 33.4525 40.827 33.3084 40.8495 33.1679C40.9096 32.6355 40.981 32.1068 41.0598 31.5891C41.1913 30.7203 41.3302 29.8625 41.4804 29.0048ZM35.7161 42.7104C35.8175 42.8213 35.994 42.947 36.2494 42.947C36.4596 42.947 36.6812 42.8398 36.8727 42.7215C36.9215 42.6845 36.9741 42.6439 37.0229 42.6143C37.1356 42.5256 37.222 42.4479 37.2633 42.4146C37.2708 42.4036 37.2745 42.3962 37.282 42.3962C37.2896 42.3851 37.2896 42.3888 37.2896 42.3888V42.3814H37.2971C37.1882 43.5312 37.1056 44.6773 37.038 45.8309L36.4972 45.6608C36.5686 45.6091 36.6286 45.561 36.6775 45.5129C36.6962 45.4833 36.7075 45.4649 36.7188 45.4464C36.899 45.1987 36.7713 43.9601 36.2268 43.424C35.8062 43.0099 35.6635 42.703 35.6147 42.5773C35.6147 42.5662 35.6072 42.5551 35.6072 42.5477C35.626 42.581 35.6598 42.6402 35.7161 42.7104ZM29.734 42.3703L30.5339 42.5699L31.2549 42.7548C31.2549 42.7548 31.5365 42.7548 31.8482 42.6734C31.8782 42.6624 31.9158 42.655 31.9458 42.6439C32.0284 42.6143 32.1036 42.5736 32.1636 42.5182C32.3214 42.3777 32.3965 42.1854 32.4152 42.1447C32.4678 42.4886 32.2838 42.7178 32.2425 42.7733H32.235C32.2049 42.7954 32.1824 42.8213 32.1561 42.8509C32.0848 42.9212 32.0134 43.0173 31.9533 43.1245V43.1319C31.6304 43.6939 31.4727 44.5627 31.4727 44.5627C31.2098 44.9362 31.6229 45.3724 31.6229 45.3724C31.6229 45.3724 31.4914 45.5018 31.4126 45.6756C31.345 45.6682 31.2699 45.6571 31.1798 45.6534V45.646C30.7817 45.6091 30.2409 45.598 29.888 45.7348C29.8579 44.6108 29.8053 43.4979 29.7377 42.3777V42.3703H29.734ZM42.9825 63.3262C42.7009 63.4149 42.4193 63.5037 42.1151 63.5813C41.9724 63.6331 41.8259 63.67 41.6569 63.7107C41.5893 63.7329 41.5255 63.7514 41.4654 63.7698L40.2825 64.0545C40.0234 64.1211 39.7643 64.1802 39.4939 64.2246C38.9757 64.3355 38.4462 64.4316 37.9129 64.5093C37.7515 64.5278 37.59 64.55 37.4135 64.5758C37.3722 64.5832 37.3309 64.5869 37.2858 64.5943C37.2032 64.6054 37.1243 64.6165 37.0229 64.6313C36.7826 64.6609 36.5423 64.6905 36.2644 64.7126C36.0015 64.7422 35.7424 64.7644 35.4532 64.7792L35.2317 64.8014V64.8088V64.8199C34.6083 64.8605 33.9924 64.8901 33.3991 64.8901C32.9297 64.9012 32.4716 64.9012 32.0172 64.8901C31.559 64.879 31.1046 64.8531 30.6653 64.8199C30.4437 64.7977 30.2222 64.7792 30.0044 64.7533C29.9931 64.7533 29.9818 64.7459 29.9743 64.7459C29.9368 64.7385 29.8955 64.7385 29.8617 64.7348C29.4336 64.6868 29.013 64.6276 28.5999 64.55C27.8676 64.4243 27.1579 64.2727 26.4782 64.0841C25.7985 63.8882 25.1488 63.6589 24.5254 63.3964C24.0973 63.2264 23.688 63.0304 23.2937 62.816C22.5614 62.4315 21.8705 61.9915 21.2246 61.5034C20.7063 61.1115 20.2257 60.679 19.7713 60.2242V60.2168L19.7225 60.1798C19.7112 60.1687 19.6999 60.1576 19.6849 60.1503C19.6736 60.1318 19.6624 60.1133 19.6436 60.1022C19.6248 60.0837 19.6061 60.0615 19.5835 60.043C19.5647 60.0209 19.546 59.995 19.5234 59.9765C19.5009 59.9543 19.4746 59.9284 19.4521 59.9062C19.4033 59.8471 19.3544 59.7953 19.3019 59.7399C19.2718 59.7177 19.2493 59.6881 19.2193 59.6585C19.1667 59.592 19.1066 59.5328 19.0503 59.4737C18.9414 59.3554 18.8325 59.2481 18.7423 59.1557C18.6935 59.1039 18.6522 59.0596 18.6147 59.0189C18.7649 58.8414 19.0353 58.5161 19.3845 58.0835C19.4371 58.017 19.4859 57.9578 19.5422 57.8876C19.7037 57.6879 19.8802 57.4735 20.0717 57.2442C20.0717 57.2368 20.0717 57.2368 20.0717 57.2368C20.1994 57.0816 20.3233 56.9226 20.4622 56.7562C20.4547 56.7488 20.4547 56.7488 20.4622 56.7488C20.7251 56.4161 21.003 56.0611 21.2997 55.6951C21.2922 55.6877 21.2922 55.6877 21.2997 55.6877C21.7278 55.1368 22.1671 54.5637 22.5915 53.9944V53.987C23.2524 53.0922 23.8795 52.2234 24.3414 51.484C24.732 50.8221 25.1 50.1456 25.4417 49.4616C25.5844 49.1769 25.7234 48.8885 25.8548 48.5964C25.8623 48.589 25.8623 48.5853 25.8661 48.5742C26.0163 48.2489 26.159 47.9235 26.2979 47.5908C26.4406 47.258 26.5758 46.929 26.6997 46.5888C26.7072 46.5814 26.7072 46.5777 26.7072 46.5703C26.8199 46.2856 26.9288 45.9973 27.0264 45.7052C27.049 45.6386 27.0753 45.5758 27.0978 45.5055C27.2104 45.1802 27.3156 44.8548 27.417 44.5294C27.5071 44.2411 27.5972 43.9453 27.6761 43.6532C27.755 43.3759 27.8263 43.1023 27.8939 42.825C27.9014 42.8176 27.9014 42.8139 27.9014 42.8065C27.9728 42.5293 28.0404 42.2446 28.1004 41.9673C28.1117 41.9266 28.123 41.8859 28.1305 41.8416C28.1981 41.5532 28.2507 41.2685 28.3032 40.9838C28.3633 40.6769 28.4159 40.3701 28.4647 40.0595C28.5135 39.7859 28.5473 39.516 28.5849 39.2424C28.5924 39.2054 28.5961 39.1648 28.6036 39.1315C28.675 38.6065 28.7313 38.0704 28.7726 37.5454C28.7839 37.4493 28.7914 37.3679 28.7952 37.2718C28.8139 37.4197 28.8327 37.5602 28.844 37.7081C28.8628 37.8855 28.8853 38.0556 28.9041 38.2331C29.013 39.2054 29.1069 40.1741 29.182 41.1502C29.1444 41.2389 29.0993 41.3387 29.0618 41.4275C29.043 41.4386 29.0242 41.4497 29.0205 41.4681C29.0092 41.4792 28.9979 41.4977 28.9904 41.5162C28.9416 41.6567 29.0205 41.8896 29.0205 41.8896C28.9228 42.056 29.028 42.1743 29.0693 42.215C29.0806 42.2224 29.0881 42.2261 29.0881 42.2261V42.2335C29.0881 42.2926 29.1068 42.3333 29.1406 42.3592C29.1707 42.3814 29.2195 42.3962 29.2683 42.3999V42.4072C29.3472 43.6606 29.411 44.9103 29.4411 46.1636C29.2308 46.526 29.1106 46.9327 29.2833 47.1175C29.3359 47.1767 29.426 47.2136 29.5537 47.2136C29.7941 47.2136 30.5526 47.2247 31.3863 47.2321V47.2395C31.4576 47.2469 31.5365 47.2469 31.6079 47.2469C31.6003 47.7017 31.7055 48.4263 32.0885 49.5799C32.0885 49.5799 31.6266 49.5207 31.9759 50.2306C31.9759 50.2306 31.8557 50.8517 31.7243 50.9811C31.5928 51.1179 31.5365 51.654 32.0247 51.654C32.4678 51.654 32.633 51.5727 32.787 51.4285C32.7983 51.41 32.817 51.3989 32.8283 51.3878C32.9973 51.2214 32.9673 50.689 32.9673 50.689C32.9673 50.689 33.0161 50.2084 33.2264 50.0088C33.4292 49.8091 32.8433 49.2286 32.8433 49.2286C32.8433 49.2286 32.7908 49.0438 32.7607 48.7665C32.7419 48.6408 32.7307 48.5003 32.7307 48.345V48.308C32.7307 48.0122 32.7682 47.6869 32.8884 47.3652V47.3578C32.8884 47.3578 33.7108 47.6129 34.368 47.4688C34.368 47.4688 34.368 47.4688 34.368 47.4761C34.3605 47.5575 34.3192 48.2526 34.368 48.6001C34.4168 48.9772 34.0788 49.5059 34.0788 49.5059V49.5133C34.0788 49.5133 34.0563 49.5059 34.0262 49.5429C33.9737 49.6021 33.9136 49.7499 33.9136 50.1234V50.201C33.9136 50.201 33.9136 50.201 33.9061 50.2084C33.8986 50.2195 33.8948 50.238 33.8873 50.2676C33.876 50.2897 33.8648 50.3193 33.846 50.3637C33.8159 50.4413 33.7784 50.5412 33.7371 50.6373C33.7183 50.6853 33.6995 50.726 33.677 50.7667C33.677 50.7667 33.677 50.7667 33.677 50.7741C33.6244 50.8813 33.5756 50.97 33.5381 51.0033V51.0107C33.5268 51.0181 33.5193 51.0329 33.5155 51.0514C33.493 51.1623 33.5681 51.3878 33.707 51.5246C33.7784 51.6023 33.8648 51.6503 33.9662 51.6503C33.9662 51.6503 34.3154 51.8685 34.6271 51.5394C34.6459 51.5172 34.6646 51.4913 34.6797 51.4692C34.9913 51.0625 34.9125 50.3193 34.9012 50.2306C34.9012 50.2232 34.9012 50.2232 34.9012 50.2232C34.9012 50.2232 34.9087 50.2158 34.9125 50.2158C34.92 50.2084 34.9237 50.2047 34.935 50.1936C34.9538 50.1751 34.9876 50.1455 35.0176 50.116C35.089 50.0272 35.1678 49.9163 35.119 49.8387C35.1078 49.8165 35.089 49.798 35.0589 49.7869C35.0589 49.7869 34.9313 49.3026 35.1303 48.9292C35.1303 48.9292 35.5096 48.0751 35.5321 47.4614V47.454C36.3808 47.5242 37.3421 47.5353 37.5712 47.2765C37.6125 47.2247 37.6313 47.1693 37.6238 47.1064C37.6238 47.1064 38.0256 46.3781 37.6951 46.0823C37.6726 46.0527 37.635 46.0231 37.5825 46.0047L37.5036 45.9751C37.5825 44.6552 37.6839 43.3353 37.8153 42.0079V42.0005C37.8979 41.9525 37.988 41.9118 38.0631 41.8822C38.0932 41.8712 38.1157 41.8527 38.142 41.8305C38.2809 41.6937 38.2321 41.3942 38.1533 41.3092C38.0556 41.2204 38.1157 41.1502 38.1157 41.1502C38.1533 41.0836 38.157 41.0393 38.127 41.0097C38.1045 40.9616 38.0256 40.9431 37.928 40.9431C38.2472 38.0482 38.6903 35.1829 39.2611 32.3619C39.4113 31.5707 39.5803 30.7758 39.7643 29.9882C40.1135 28.4206 40.5041 26.8678 40.9322 25.3297C40.9397 25.3186 40.9397 25.3002 40.9434 25.2891C40.8909 25.5738 40.8233 25.8621 40.7632 26.1468C40.7407 26.2873 40.7106 26.4241 40.6806 26.5609C40.4327 27.8291 40.2074 29.0935 40.0009 30.3728C39.9896 30.4504 39.9783 30.528 39.9633 30.602C39.8244 31.4967 39.7004 32.3951 39.584 33.2936C39.5427 33.6078 39.5014 33.9221 39.4639 34.2364C39.415 34.6689 39.3662 35.1015 39.3212 35.5341C39.2385 36.3438 39.1597 37.1572 39.0921 37.9743C39.0545 38.4179 39.0245 38.8616 38.9945 39.3053C38.9644 39.7563 38.9419 40.2 38.9156 40.6437C38.9081 40.7435 38.9043 40.8507 38.8968 40.9505C38.8968 40.9875 38.8893 41.0282 38.8893 41.0615C38.8705 41.3942 38.8593 41.7233 38.848 42.0634C38.7954 43.3759 38.7691 44.6921 38.7691 46.0157C38.7691 49.5836 38.9682 53.1847 39.3512 56.734C39.4301 57.4513 39.5127 58.1648 39.6103 58.8821C39.6103 58.9524 39.6178 59.0226 39.6291 59.0707C39.7417 60.0356 40.1398 60.9341 40.7669 61.6698C40.8496 61.7696 40.9359 61.8658 41.0298 61.9582C41.0598 61.9952 41.0899 62.0247 41.1274 62.058C41.6081 62.5424 42.2052 62.9269 42.8398 63.182C42.9112 63.2116 42.9788 63.2337 43.0426 63.2596C43.0539 63.267 43.0651 63.2707 43.0802 63.2781L42.9825 63.3262ZM62.6338 45.7532C62.3747 46.3337 62.1006 46.9068 61.8039 47.4761L61.7964 47.4946C61.6762 47.7239 61.5636 47.9494 61.4471 48.1638L61.4058 48.223C61.3683 48.2895 61.3382 48.3487 61.2932 48.4189C61.1617 48.6667 61.0228 48.9107 60.8726 49.151C60.6811 49.469 60.4933 49.7906 60.2793 50.1049C60.2267 50.1862 60.1779 50.2713 60.1178 50.3526C59.9788 50.5707 59.8286 50.7889 59.6784 51.0033L59.6371 51.0699V51.0773C59.4381 51.3656 59.2278 51.6503 59.0062 51.9424V51.9498C58.7847 52.2456 58.5631 52.5303 58.3228 52.826C58.09 53.1144 57.8496 53.3991 57.6018 53.6838C57.429 53.8908 57.2488 54.0905 57.0497 54.3123C57.0272 54.3419 56.9972 54.3715 56.9671 54.4011L56.9183 54.4528C56.8094 54.5785 56.6967 54.6968 56.5691 54.8262C56.4001 55.0037 56.2311 55.1812 56.0583 55.3586C55.5364 55.88 54.9768 56.4013 54.3647 56.9337C54.1657 57.1037 53.9629 57.2775 53.7564 57.4476C52.8964 58.1648 51.9952 58.834 51.0751 59.4367L50.5869 59.7547C50.294 59.9432 49.9861 60.1318 49.6744 60.3166C49.6969 60.2649 49.7157 60.2094 49.7345 60.1503C49.9974 59.3997 50.0875 58.5567 49.9523 57.6805C49.7908 56.6194 49.2801 55.6618 48.5403 54.915C47.808 54.1644 46.8392 53.6357 45.7614 53.4398C44.8038 53.2697 43.8913 53.3621 43.0727 53.6468C42.9713 53.6838 42.8811 53.7356 42.8211 53.8058C42.7685 53.8539 42.7309 53.9056 42.7009 53.9648C42.6896 53.987 42.6784 54.0165 42.6633 54.0535C42.6446 54.1127 42.6333 54.1718 42.6333 54.2384C42.6333 54.4232 42.7046 54.5748 42.8248 54.6821C42.945 54.793 43.1027 54.8595 43.2679 54.8595C43.3393 54.8595 43.4106 54.8484 43.4857 54.8226C43.9664 54.6525 44.4959 54.5748 45.0442 54.6081C45.277 54.6192 45.5061 54.6562 45.7239 54.7153C45.8365 54.7375 45.9454 54.7745 46.0543 54.8115C46.3735 54.9187 46.6777 55.0703 46.9556 55.2551C47.1471 55.3734 47.3274 55.5139 47.4851 55.6692C48.146 56.2719 48.5966 57.089 48.7131 57.9948C48.7844 58.505 48.7431 58.9967 48.6229 59.4515C48.6229 59.4589 48.6154 59.47 48.6154 59.4737C48.6079 59.4848 48.6042 59.4958 48.5966 59.5032C48.5966 59.5106 48.5966 59.5143 48.5966 59.5143C48.5891 59.5217 48.5891 59.5254 48.5891 59.5328V59.5402C48.5816 59.5402 48.5816 59.5402 48.5816 59.5402V59.5476C48.4014 60.1761 48.0709 60.7307 47.6203 61.1818C47.5827 61.2188 47.5489 61.252 47.5114 61.2927C47.3987 61.3999 47.271 61.5071 47.1208 61.607C47.0795 61.6365 47.0382 61.6661 46.9894 61.6957C46.9594 61.7142 46.9368 61.7327 46.9068 61.7475C46.7791 61.8251 46.6552 61.8954 46.5237 61.9619C46.4411 61.9989 46.3548 62.0395 46.2646 62.0728C46.1257 62.132 45.983 62.18 45.8328 62.2133C45.7427 62.2429 45.645 62.2614 45.5511 62.2799C45.4385 62.302 45.3221 62.3168 45.2019 62.3316C45.093 62.339 44.9916 62.3501 44.8827 62.3427H44.8226L44.7851 62.3501C44.402 62.3501 44.0115 62.291 43.6322 62.18C43.5646 62.1579 43.5008 62.1394 43.4332 62.1098C43.3956 62.1024 43.3656 62.0876 43.3318 62.0728C42.8211 61.8732 42.3704 61.5811 41.9987 61.2188C41.3565 60.5902 40.9472 59.762 40.8495 58.8451C40.7519 58.1242 40.6768 57.4476 40.6017 56.808C40.5904 56.7192 40.5829 56.6305 40.5717 56.5418L40.5529 56.1942V56.1868L40.5416 56.1794C40.1886 52.8519 40.0121 49.4394 40.0121 46.0157C40.0121 45.5314 40.0196 45.0434 40.0234 44.559C40.0309 43.9564 40.0459 43.35 40.0647 42.7474C40.076 42.3851 40.0872 42.0264 40.106 41.6641C40.1135 41.5347 40.1173 41.4016 40.1248 41.2759C40.4327 39.919 40.8721 38.5399 41.3565 37.2311C44.7738 28.0398 52.1529 21.0262 61.4622 17.9722C61.9353 18.8337 62.3672 19.721 62.7577 20.6158C63.0206 21.2073 63.2572 21.81 63.4787 22.4274C64.6917 25.7993 65.3188 29.3745 65.3188 33.0385C65.3151 37.4862 64.4138 41.7528 62.6338 45.7532Z" fill="white"/>
</svg>
