<svg width="123" height="37" viewBox="0 0 123 37" fill="none" xmlns="http://www.w3.org/2000/svg">
<path d="M18.5275 8.75266C18.5275 6.7633 17.5709 5.20545 14.7683 5.20545H5.14228V17.1742H7.81259V12.9634H13.9776C15.362 12.9634 15.725 13.3545 15.725 14.7533V17.1742H18.3953V14.3231C18.3953 12.9009 17.8936 12.0665 16.7802 11.7823C17.939 11.3886 18.5275 10.261 18.5275 8.75266ZM14.4067 10.4474H7.81259V7.72539H14.4067C15.3957 7.72539 15.8572 8.25597 15.8572 9.05119C15.8572 9.84642 15.4619 10.4435 14.4067 10.4435V10.4474ZM121.813 19.8336H122.802V31.7959H120.131V23.3078L114.626 31.7959H111.56V19.8271H114.231V28.0179L118.249 21.75C119.275 20.1582 120.164 19.8271 121.813 19.8271V19.8336ZM69.6924 17.1742V14.6217C70.78 14.6217 71.0444 13.9581 71.2751 11.7367L71.9997 5.20545H81.561V17.1742H78.8907V7.72539H74.2851L73.8132 12.2999C73.4179 16.246 72.3627 17.3072 69.6924 17.1742ZM0 37H23.5389V0H0V37ZM2.57179 2.58382H20.9671V34.4162H2.57179V2.58382ZM15.725 19.8271H18.3953V31.7959H9.85161C6.42299 31.7959 5.1371 30.5026 5.1371 27.0545V19.8271H7.8074V27.1158C7.8074 28.641 8.40109 29.2707 9.78551 29.2707H15.7198L15.725 19.8271ZM86.7357 13.1668H92.6376V17.1781H95.3079V5.20545H88.4506C85.0881 5.20545 84.0654 6.13364 84.0654 9.61437V17.1755H86.7357V13.1668ZM88.4506 7.7293H92.6376V10.6755H86.7357V9.61437C86.7357 8.25597 86.9016 7.72539 88.4506 7.72539V7.7293ZM56.604 12.764V9.61437C56.604 6.16623 57.5607 5.20545 60.9893 5.20545H67.9774V7.72539H60.8571C59.4726 7.72539 59.2743 7.95744 59.2743 9.4827V9.88031H66.033V12.3664H59.2743V12.8969C59.2743 14.4222 59.4726 14.6543 60.8571 14.6543H68.0772V17.1742H60.9893C57.5607 17.1742 56.604 16.1795 56.604 12.764ZM118.615 5.20284H115.681C112.285 5.20284 111.297 6.16363 111.297 9.61176V12.764C111.297 16.1795 112.616 17.1742 116.011 17.1742H118.285C121.714 17.1742 123 16.1795 123 12.764V9.61437C123 6.16623 122.043 5.20545 118.615 5.20545V5.20284ZM120.33 12.764C120.33 14.2892 120 14.6543 118.615 14.6543H115.681C114.297 14.6543 113.968 14.2892 113.968 12.764V9.61437C113.968 8.08911 114.297 7.72539 115.681 7.72539H118.615C120 7.72539 120.33 8.08911 120.33 9.61437V12.764ZM74.604 19.8271H81.924V21.3185C81.924 22.5126 81.8254 23.5073 81.5623 24.4016H79.2861V22.3457H74.604C73.2195 22.3457 72.8903 22.7108 72.8903 24.236V27.3856C72.8903 28.9109 73.2195 29.2759 74.604 29.2759H81.924V31.7959H74.604C71.209 31.7959 70.22 30.8012 70.22 27.3856V24.236C70.22 20.7879 71.209 19.8271 74.604 19.8271ZM53.6045 5.20545H43.8825L43.2901 11.2726C42.9932 14.1576 42.5642 14.6217 41.7734 14.6217H41.6101V18.3018H44.1482L44.2467 16.7766H52.093L52.1915 18.3018H54.7309V14.5878H53.6096L53.6045 5.20545ZM46.2261 7.72539H50.9341V14.2892H45.2228C45.5871 13.6478 45.7413 12.7535 45.8567 11.6037L46.2261 7.72539ZM63.9564 19.8271H60.7948C57.3999 19.8271 56.4109 20.7879 56.4109 24.236V27.3856C56.4109 30.8012 57.3999 31.7959 60.7948 31.7959H63.9603C67.3889 31.7959 68.3443 30.8012 68.3443 27.3856V24.236C68.3404 20.7879 67.385 19.8271 63.9564 19.8271ZM65.6701 27.3882C65.6701 28.9135 65.3408 29.2785 63.9564 29.2785H60.7948C59.4104 29.2785 59.0812 28.9135 59.0812 27.3882V24.236C59.0812 22.7108 59.4104 22.3457 60.7948 22.3457H63.9603C65.3447 22.3457 65.674 22.7108 65.674 24.236L65.6701 27.3882ZM88.1862 19.8271H95.5347V21.3185C95.5347 22.5126 95.4362 23.5073 95.1718 24.4016H92.9007V22.3457H88.1862C86.8018 22.3457 86.4726 22.7108 86.4726 24.236V27.3856C86.4726 28.9109 86.8018 29.2759 88.1862 29.2759H95.5347V31.7959H88.1862C84.7913 31.7959 83.8022 30.8012 83.8022 27.3856V24.236C83.8022 20.7879 84.7913 19.8271 88.1862 19.8271ZM38.2165 25.4706C38.8426 25.086 39.3624 24.2699 39.3624 23.0093C39.3624 21.385 38.4394 19.8271 35.703 19.8271H28.7149V31.7959H35.9739C38.6105 31.7959 39.8964 30.4362 39.8964 28.2147C39.89 26.7247 39.037 25.8408 38.2165 25.4706ZM36.6921 23.4069C36.6921 24.137 36.3291 24.5346 35.4062 24.5346H31.3878V22.3796H35.4062C36.3291 22.3796 36.6921 22.7108 36.6921 23.4069ZM35.9999 29.2733H31.3852V26.9541H35.9999C36.8904 26.9541 37.2197 27.3856 37.2197 28.0818C37.2197 28.7779 36.8904 29.2759 35.9999 29.2759V29.2733ZM106.387 5.20284H109.057V17.1716H106.384V12.3664H100.484V17.1742H97.8136V5.20545H100.484V9.84642H106.384L106.387 5.20284ZM32.7061 5.20284H39.9911V6.69681C39.9911 7.89095 39.8926 8.88563 39.6294 9.78123H37.3519V7.72539H32.7035C31.3191 7.72539 30.9885 8.08911 30.9885 9.61437V12.764C30.9885 14.2892 31.3191 14.6543 32.7035 14.6543H39.9885V17.1742H32.7035C29.3073 17.1742 28.3182 16.1795 28.3182 12.764V9.61437C28.3182 6.16623 29.3073 5.20545 32.7035 5.20545L32.7061 5.20284ZM108.066 19.8271H109.055V31.7959H106.384V23.3078L100.879 31.7959H97.8136V19.8271H100.484V28.0179L104.502 21.75C105.528 20.1582 106.423 19.8271 108.066 19.8271ZM50.6049 19.8271H42.8273V22.1737L44.2117 22.3731V31.7959H46.882V28.7114H50.6075C53.6732 28.7114 54.7283 27.1471 54.7283 24.734V23.8045C54.7257 21.5179 53.7367 19.8271 50.6049 19.8271ZM52.0878 24.6389C52.0878 25.7665 51.6588 26.2032 50.6049 26.2032H46.8794V22.3457H50.6049C51.6588 22.3457 52.0878 22.8763 52.0878 23.9101V24.6389Z" fill="white"/>
</svg>
