<svg width="224" height="67" viewBox="0 0 224 67" fill="none" xmlns="http://www.w3.org/2000/svg">
<path d="M95.0564 38.8652C94.63 37.9695 94.3314 37.2767 94.1751 36.8148C93.9334 36.0801 93.7628 35.2683 93.6846 34.4005C93.6064 33.5258 93.5496 32.707 93.5211 31.9582C93.4927 31.2165 93.4785 30.4887 93.4785 29.7749C93.4785 29.0051 93.4287 28.4802 93.3363 28.1583C93.2653 27.9204 93.0307 27.5215 92.3057 27.5215C91.8792 27.5215 91.5309 27.7874 91.268 28.3193C91.1898 28.4942 91.0192 28.9701 90.742 29.7749C90.4292 30.7406 90.0952 31.6433 89.7469 32.4691C89.4199 33.2459 89.093 33.9317 88.766 34.5195L86.8682 28.7112C86.7118 28.2773 86.5626 27.9554 86.4133 27.7314C86.2427 27.4725 85.9087 27.1646 85.2619 27.1646C84.7714 27.1646 84.4018 27.5145 84.1459 28.2073C83.9896 28.6622 83.9043 29.152 83.9043 29.6769C83.8972 29.7819 83.7692 30.8666 83.1935 35.4362C82.9874 37.0738 82.8807 38.3964 82.8807 39.3761C82.8807 39.908 82.9234 40.3698 83.0087 40.7617C83.1153 41.2656 83.4423 41.5385 83.9256 41.5385C84.3094 41.5385 84.6435 41.3705 84.878 41.0556C85.0202 40.8667 85.2121 40.4538 85.2903 39.0822L85.5319 34.5895C85.5959 33.3718 85.6741 32.588 85.7381 32.0982C85.9726 32.784 86.2498 33.6727 86.5697 34.7644C87.5719 38.1514 88.0765 38.4314 88.4675 38.4314C88.9082 38.4314 89.3488 38.0045 89.9175 37.0388C90.1449 36.6609 90.5785 35.7301 91.2466 34.2046C91.2537 34.3375 91.2609 34.4495 91.2609 34.5475C91.2609 35.5902 91.5949 36.9408 92.263 38.5573C93.0449 40.4468 93.8339 41.3635 94.6655 41.3635C94.9996 41.3635 95.291 41.2866 95.5256 41.1256C95.7957 40.9437 95.9307 40.6497 95.9307 40.2439C95.9307 40.0199 95.7956 39.768 95.5042 39.4461C95.2341 39.1522 95.1133 38.9632 95.0564 38.8652Z" fill="#213263"/>
<path d="M104.766 32.8188L103.472 27.7732C103.337 27.2274 103.209 26.8285 103.088 26.5486C102.889 26.0797 102.612 25.9818 102.413 25.9818C102.022 25.9818 101.695 26.4016 101.276 27.4303C100.856 28.487 100.48 29.5297 100.16 30.5374C99.5201 32.4479 98.852 34.7152 98.1696 37.2625C97.3309 40.4046 97.2243 41.0274 97.2243 41.2164C97.2243 41.6012 97.2812 41.9022 97.3949 42.1401C97.537 42.434 97.8071 42.595 98.1554 42.595C98.4682 42.595 98.7383 42.539 98.9586 42.42C99.2287 42.2731 99.3709 42.0421 99.3709 41.7482C99.3709 41.2933 99.4135 40.7615 99.5059 40.1527C99.5201 40.0057 99.6054 39.5229 99.6836 39.089C100.551 39.075 101.375 38.977 102.143 38.7951C102.314 38.7531 102.925 38.5781 104.005 38.2492C104.062 38.3822 104.14 38.5571 104.24 38.7811C104.282 38.879 104.346 39.054 104.432 39.2919C104.68 39.9707 104.894 40.4466 105.086 40.7545C105.405 41.2513 105.803 41.4963 106.258 41.4963C106.642 41.4963 106.905 41.3913 107.054 41.1674C107.097 41.1044 107.14 41.0064 107.204 40.5516C107.225 40.4186 107.261 40.2017 106.344 37.5284L104.766 32.8188ZM103.273 35.8419C102.306 36.3878 101.979 36.5557 101.88 36.5977C101.368 36.8286 100.792 36.9966 100.16 37.1085C100.409 36.2548 100.849 34.8622 101.51 32.8888C101.724 32.2519 101.901 31.7201 102.036 31.3072C102.15 31.6991 102.264 32.077 102.37 32.4409C102.655 33.4626 102.96 34.6103 103.273 35.8419Z" fill="#213263"/>
<path d="M116.913 25.989C116.671 25.849 116.387 25.8 115.875 25.849C115.705 25.849 115.385 25.905 114.447 26.3109C112.862 27.0177 112.08 27.3536 111.703 27.5145C111.667 27.2766 111.603 27.0876 111.497 26.9407C111.326 26.6957 111.085 26.5698 110.793 26.5698C110.544 26.5698 110.203 26.6747 109.983 27.1786C109.855 27.4725 109.784 27.8504 109.777 28.3263C109.514 28.4662 109.336 28.5852 109.222 28.6832C108.966 28.9071 108.867 29.194 108.931 29.4949C108.974 29.8028 109.109 30.0548 109.343 30.2437C109.507 30.3767 109.663 30.4397 109.798 30.4607C109.876 31.5593 109.969 32.686 110.054 33.8477C110.153 35.1073 110.239 36.087 110.324 36.7658C110.402 37.4307 110.459 37.9975 110.48 38.4454C110.502 38.9002 110.516 39.516 110.516 40.2998V41.3495C110.516 41.6504 110.608 41.9094 110.786 42.1053C110.971 42.3083 111.227 42.4202 111.532 42.4202C111.902 42.4202 112.179 42.3153 112.343 42.1053C112.492 41.9164 112.57 41.6644 112.57 41.3495C112.57 41.3285 112.57 41.2726 112.471 39.586C112.407 38.4734 112.371 37.5356 112.371 36.8078C112.371 35.9261 112.236 34.2886 111.966 31.9512C111.874 31.1535 111.824 30.4747 111.817 29.9288C112.606 29.5859 113.402 29.236 114.184 28.8861C116.885 27.7034 117.247 27.1156 117.247 26.7027C117.254 26.2829 117.069 26.0799 116.913 25.989Z" fill="#213263"/>
<path d="M126.388 26.8147C126.018 26.8147 125.648 26.9057 125.293 27.0876C124.909 27.2836 124.646 27.5635 124.518 27.9344C124.298 28.6062 123.552 30.1947 122.301 32.651C121.405 34.4145 120.645 35.8351 120.04 36.8988C120.055 36.6749 120.069 36.4299 120.076 36.171C120.111 35.2683 120.133 34.4985 120.133 33.8127V28.7252C120.133 28.0464 120.069 27.6404 119.92 27.4165C119.806 27.2416 119.571 27.0386 119.138 27.0386C118.669 27.0386 118.327 27.1856 118.136 27.4655C117.965 27.7174 117.873 28.0323 117.873 28.4102C117.858 29.9148 117.844 31.3144 117.837 32.602C117.83 33.8897 117.823 35.0653 117.823 36.136V40.3908C117.823 40.8177 117.88 41.1466 117.993 41.3845C118.093 41.6014 118.335 41.8534 118.932 41.8534C119.465 41.8534 119.948 41.4545 120.41 40.6287L121.298 38.9912C121.561 38.5503 122.024 37.6966 122.642 36.5279L124.156 33.7217C124.319 33.4068 124.469 33.1269 124.604 32.8819L124.483 34.6594C124.412 35.6322 124.383 36.4089 124.383 36.9688C124.383 37.4866 124.405 38.0465 124.44 38.6413C124.476 39.2361 124.518 39.824 124.561 40.3908C124.561 40.8806 124.646 41.2375 124.831 41.4685C124.966 41.6434 125.229 41.8534 125.691 41.8534C126.445 41.8534 126.821 41.1676 126.821 39.81C126.793 39.0052 126.772 38.2564 126.757 37.5706C126.743 36.8778 126.736 36.311 126.736 35.8771C126.736 35.2613 126.835 33.8407 127.027 31.6713C127.226 29.4459 127.319 28.1793 127.319 27.8084C127.297 27.1716 126.963 26.8147 126.388 26.8147Z" fill="#213263"/>
<path d="M138.926 27.7244C138.926 27.6544 138.933 27.5775 138.947 27.4935C138.947 27.1016 138.492 26.9337 138.336 26.8777C138.222 26.8357 138.116 26.8147 138.016 26.8147C137.767 26.8147 137.419 26.9057 137.128 27.2976C136.531 27.3116 135.919 27.3885 135.301 27.5215C134.405 27.7314 133.488 28.0743 132.572 28.5572C131.626 29.054 130.944 29.6909 130.546 30.4537C130.276 30.9715 130.134 31.5873 130.134 32.2731C130.134 33.3438 130.667 34.2606 131.726 35.0023C132.685 35.6812 133.908 36.066 135.386 36.15C135.009 36.4649 134.469 36.8498 133.766 37.2977C132.877 37.8715 132.429 38.1654 132.223 38.3124C131.662 38.6903 131.093 39.0612 130.524 39.4321C129.522 40.1389 129.38 40.4468 129.38 40.6707C129.38 40.9926 129.473 41.2795 129.643 41.5245C129.835 41.7974 130.105 41.9373 130.425 41.9373C130.567 41.9373 130.802 41.8814 131.825 41.1886C132.273 40.9016 132.842 40.4958 133.503 39.9989C134.093 39.593 134.697 39.1801 135.308 38.7672C135.72 38.4663 136.083 38.1654 136.388 37.8645C136.374 38.3054 136.367 38.6763 136.367 38.9842C136.367 39.1311 136.367 39.3061 136.381 39.5021C136.388 39.698 136.41 39.9919 136.452 40.3838C136.495 40.8037 136.573 41.1466 136.701 41.4195C136.865 41.7764 137.163 41.9373 137.511 41.9024C137.874 41.8674 138.137 41.7414 138.3 41.5315C138.457 41.3285 138.528 40.9786 138.528 40.3978V36.4859C138.727 36.367 138.89 36.227 139.011 36.073C139.175 35.8631 139.26 35.6042 139.26 35.3102C139.26 34.9813 139.118 34.5685 138.471 34.3375L138.677 29.7958C138.826 29.7259 138.954 29.6279 139.061 29.5089C139.224 29.334 139.31 29.103 139.31 28.8441C139.345 28.6202 139.324 28.4032 139.253 28.1933C139.182 27.9974 139.075 27.8434 138.926 27.7244ZM136.623 29.6769C136.573 30.5306 136.523 31.3634 136.488 32.1821C136.452 32.9449 136.431 33.5538 136.424 34.0296C134.547 33.7287 134.029 33.6307 133.936 33.6097C132.358 33.1689 132.358 32.4971 132.358 32.2801C132.358 31.9022 132.458 31.5943 132.657 31.3354C132.827 31.1185 133.105 30.9015 133.488 30.6846C133.986 30.4047 134.604 30.1597 135.329 29.9638C135.855 29.8098 136.289 29.7119 136.623 29.6769Z" fill="#213263"/>
<path d="M160.166 39.761C159.86 39.712 159.554 39.663 159.256 39.614C159.135 39.1592 158.837 38.2424 158.382 36.8778C157.849 35.2893 157.401 33.9316 157.053 32.819L155.759 27.7734C155.624 27.2276 155.496 26.8287 155.382 26.5488C155.183 26.0799 154.906 25.9819 154.707 25.9819C154.316 25.9819 153.989 26.4018 153.57 27.4305C153.15 28.4942 152.767 29.5509 152.432 30.5796C152.091 31.6223 151.679 32.9589 151.224 34.5615C150.769 36.157 150.414 37.4376 150.172 38.3754C149.959 39.2151 149.781 39.9429 149.639 40.5727C149.497 40.5867 149.326 40.6007 149.12 40.6287C148.637 40.6987 148.566 40.7127 148.53 40.7267C148.118 40.8317 147.898 41.1186 147.898 41.5245C147.898 41.6504 147.919 41.8184 147.969 42.0493C148.018 42.2732 148.033 42.3922 148.033 42.4482C148.033 43.253 148.189 44.5196 148.502 46.1991C148.544 46.4651 148.63 46.8989 148.758 47.5007C148.822 47.8087 148.992 48.6204 149.561 48.6204C150.073 48.6204 150.378 48.3055 150.378 47.7737L150.421 43.19C150.421 42.994 150.414 42.8051 150.407 42.6092C150.407 42.5182 150.4 42.4272 150.393 42.3432C150.805 42.3012 151.508 42.2313 152.496 42.1263C154.714 41.9094 156.057 41.7974 156.519 41.7974C157.01 41.7694 157.436 41.7414 157.799 41.7064C158.033 41.6854 158.282 41.6714 158.538 41.6644L158.453 42.2662C158.439 42.3362 158.261 43.057 157.92 44.4286C157.28 47.0039 157.202 47.5147 157.202 47.6757C157.202 47.9206 157.273 48.1236 157.401 48.2705C157.5 48.3895 157.685 48.5224 158.019 48.5224C158.382 48.5224 158.63 48.1865 158.794 47.9276C159 47.5987 159.256 46.9759 159.562 46.0312C159.86 45.1144 160.102 44.3237 160.279 43.6798C160.393 43.239 160.535 42.7281 160.706 42.1263C160.72 42.0563 160.777 41.8814 160.869 41.5874C160.976 41.2515 161.026 40.9996 161.026 40.8247C161.033 40.2998 160.734 39.9149 160.166 39.761ZM156.925 39.782C156.036 39.796 155.148 39.838 154.273 39.9219C153.435 39.9989 152.617 40.0969 151.835 40.2088C151.864 40.0899 151.899 39.9289 151.949 39.719C152.056 39.2641 152.127 38.9842 152.162 38.8792C152.461 37.7176 152.809 36.4789 153.186 35.1913C153.506 34.1136 153.882 32.847 154.323 31.3844C154.515 32.1052 154.707 32.812 154.892 33.5048C155.155 34.4775 155.404 35.3312 155.631 36.059C155.723 36.3529 155.887 36.8428 156.129 37.5146L156.754 39.2991L156.925 39.782Z" fill="#213263"/>
<path d="M169.967 37.5636C169.804 37.5566 169.505 37.5776 168.745 37.9695C168.461 38.1165 168.013 38.3544 167.409 38.6903C167.096 38.8513 166.669 39.0682 166.115 39.3481C165.838 39.4881 165.582 39.607 165.362 39.691C165.34 39.1802 165.276 38.5293 165.17 37.7456C165.148 37.5216 165.113 37.2627 165.07 36.9828C165.966 36.5979 166.783 36.199 167.501 35.8071C168.887 35.0583 169.477 34.5335 169.477 34.0506C169.477 33.8407 169.399 33.6378 169.25 33.4488C169.086 33.2389 168.866 33.1339 168.617 33.1339C168.453 33.1339 168.119 33.2039 166.819 33.7007C166.023 34.0086 165.362 34.2816 164.8 34.5265C164.743 34.0576 164.672 33.4978 164.58 32.854C164.523 32.3361 164.494 31.7063 164.494 30.9785C165.283 30.6356 166.079 30.2857 166.861 29.9358C169.562 28.7462 169.925 28.1653 169.925 27.7524C169.925 27.3326 169.74 27.1366 169.584 27.0387C169.342 26.8917 169.043 26.8427 168.546 26.8987C168.368 26.8987 168.048 26.9547 167.117 27.3606C165.575 28.0464 164.772 28.3963 164.374 28.5642C164.338 28.3263 164.274 28.1373 164.167 27.9904C163.997 27.7454 163.755 27.6195 163.464 27.6195C163.215 27.6195 162.874 27.7244 162.654 28.2283C162.526 28.5222 162.455 28.9001 162.447 29.369C162.17 29.5089 162 29.6209 161.907 29.7189C161.701 29.9148 161.602 30.1667 161.602 30.4677C161.602 30.7756 161.708 31.0415 161.929 31.2584C162.085 31.4124 162.241 31.4824 162.376 31.5104C162.419 32.1472 162.469 32.854 162.54 33.6448C162.618 34.5685 162.717 35.6042 162.853 36.7239C162.988 37.8715 163.08 38.7043 163.13 39.2291C163.179 39.698 163.201 40.1319 163.208 40.5378C163.059 40.7127 162.988 40.9436 162.988 41.2166C162.988 41.5245 163.08 41.8044 163.258 42.0353C163.45 42.2873 163.72 42.4202 164.032 42.4202C164.956 42.4202 166.271 41.8954 168.048 40.8247C170.451 39.3691 170.756 38.7463 170.756 38.3684C170.742 37.8645 170.444 37.5636 169.967 37.5636Z" fill="#213263"/>
<path d="M180.75 27.0316H180.48C180.309 27.0316 179.869 27.0806 177.978 27.5285C176.564 27.8644 175.512 28.1443 174.787 28.3752C173.5 28.7601 172.661 29.04 172.242 29.222C171.197 29.6629 170.714 30.0967 170.714 30.6006C170.714 30.9855 170.806 31.2444 170.984 31.3914C171.147 31.5243 171.368 31.5873 171.666 31.5873C171.887 31.5873 172.306 31.5033 172.939 31.3354C173.059 31.3074 173.813 31.0975 175.177 30.7126C175.192 31.5173 175.27 32.595 175.398 33.9176C175.469 34.7504 175.59 35.9401 175.746 37.4866C175.959 39.579 176.023 40.0129 176.052 40.1528C176.272 41.2795 176.706 41.8464 177.331 41.8464C177.743 41.8464 178.021 41.7414 178.177 41.5314C178.312 41.3425 178.376 41.0626 178.376 40.6077C178.255 39.705 178.141 38.8302 178.042 37.9975C177.942 37.1787 177.886 36.4579 177.886 35.8631C177.886 35.3872 177.836 34.6664 177.729 33.6587C177.552 32.0282 177.459 30.8105 177.445 30.0268C179.499 29.5369 179.862 29.4459 179.954 29.4179C181.191 29.068 181.788 28.5852 181.788 27.9413C181.788 27.5775 181.674 27.3255 181.447 27.1856C181.255 27.0876 181.02 27.0316 180.75 27.0316Z" fill="#213263"/>
<path d="M191.199 36.9478C191.014 36.9478 190.793 36.9897 190.53 37.0877C190.267 37.1787 190.061 37.2697 189.919 37.3607C189.685 37.4936 189.159 37.8015 188.327 38.2844L188.114 38.4103C186.991 39.0682 186.443 39.2081 186.188 39.2081C185.953 39.2081 185.846 38.7672 185.797 38.4943C185.754 38.2634 185.733 37.8855 185.733 37.3816C185.733 36.4789 185.839 35.4852 186.038 34.4285C186.294 33.0499 186.678 31.9302 187.161 31.0974C187.431 30.6426 187.893 30.0897 188.54 29.4669C190.431 27.6265 190.431 27.5635 190.431 27.4025C190.431 27.1016 190.41 26.8986 190.36 26.7657C190.303 26.6187 190.154 26.4438 189.749 26.4438C189.223 26.4438 188.633 26.6397 187.993 27.0316C187.019 27.6264 186.145 28.5922 185.399 29.9218C184.553 31.4054 183.97 32.9869 183.65 34.6104C183.451 35.6041 183.351 36.7168 183.351 37.9135C183.351 38.6343 183.494 39.3271 183.778 39.9779C184.183 40.9086 184.787 41.3775 185.576 41.3775C186.699 41.3775 188.007 40.8526 189.571 39.768C191.533 38.4103 191.788 37.8085 191.788 37.4306C191.788 37.2347 191.703 37.1227 191.632 37.0597C191.518 36.9617 191.355 36.9198 191.199 36.9478Z" fill="#213263"/>
<path d="M201.221 27.0316H200.95C200.78 27.0316 200.339 27.0806 198.441 27.5285C197.027 27.8644 195.982 28.1443 195.25 28.3752C193.963 28.7601 193.125 29.04 192.705 29.222C191.661 29.6629 191.177 30.0967 191.177 30.6006C191.177 30.9855 191.27 31.2444 191.447 31.3914C191.611 31.5173 191.831 31.5873 192.13 31.5873C192.35 31.5873 192.769 31.5033 193.402 31.3354C193.523 31.3074 194.276 31.0975 195.641 30.7126C195.662 31.5243 195.733 32.602 195.861 33.9176C195.932 34.7504 196.053 35.9401 196.21 37.4866C196.423 39.579 196.487 40.0129 196.515 40.1528C196.736 41.2795 197.169 41.8464 197.795 41.8464C198.207 41.8464 198.484 41.7414 198.64 41.5314C198.775 41.3495 198.839 41.0626 198.839 40.6077C198.719 39.705 198.612 38.8302 198.505 37.9975C198.406 37.1787 198.349 36.4579 198.349 35.8631C198.349 35.3872 198.299 34.6664 198.193 33.6587C198.015 32.0282 197.923 30.8105 197.908 30.0268C199.962 29.5369 200.325 29.4459 200.417 29.4179C201.654 29.068 202.251 28.5852 202.251 27.9413C202.251 27.5775 202.137 27.3255 201.91 27.1856C201.725 27.0876 201.498 27.0316 201.221 27.0316Z" fill="#213263"/>
<path d="M209.842 32.616C210.688 31.5313 211.328 30.6356 211.733 29.9568C212.359 28.8931 212.664 28.0533 212.664 27.3815C212.664 26.8007 212.472 26.2968 212.095 25.898C211.626 25.4011 211.093 25.1492 210.503 25.1492C209.373 25.1492 208.208 25.5201 207.056 26.2479C206.217 26.7727 205.414 27.4725 204.675 28.3193C203.786 29.32 203.715 29.5999 203.715 29.7748C203.715 30.0408 203.822 30.6706 204.782 30.6706C204.789 30.6706 204.789 30.6706 204.796 30.6706L204.675 34.0506C204.675 36.283 204.689 38.0814 204.718 39.537C204.746 40.9926 204.76 41.8464 204.76 42.0983C204.76 42.4832 204.888 42.8331 205.137 43.134C205.4 43.4489 205.698 43.6099 206.025 43.6099C206.31 43.6099 206.559 43.5119 206.75 43.3229C206.949 43.127 207.049 42.8681 207.049 42.5462C207.049 42.3922 207.021 41.9723 206.957 41.2655C206.964 41.2725 206.971 41.2795 206.978 41.2795C207.134 41.3845 207.298 41.4405 207.475 41.4405C208.463 41.4405 209.473 40.8107 210.567 39.516C211.555 38.3404 212.039 37.4166 212.039 36.6819C212.039 35.7581 211.662 35.0163 210.916 34.4845C210.375 34.0996 209.807 33.9037 209.21 33.9037C209.053 33.9037 208.911 33.9107 208.79 33.9247C209.11 33.5258 209.437 33.1269 209.764 32.721L209.842 32.616ZM206.729 33.3858L206.758 31.9022C206.743 31.6573 206.736 31.3984 206.736 31.1185V30.2087C206.736 29.9078 206.758 29.6069 206.793 29.313C207.305 28.6692 207.866 28.1653 208.449 27.8154C209.039 27.4655 209.658 27.2835 210.283 27.2835C210.375 27.2835 210.432 27.3116 210.489 27.3885C210.567 27.4865 210.596 27.5845 210.596 27.6824C210.596 27.8504 210.482 28.2983 209.729 29.4599C209.309 30.1177 208.67 30.9785 207.831 32.0282C207.44 32.5321 207.07 32.9869 206.729 33.3858ZM206.608 37.2277L207.639 36.6189C208.2 36.318 208.762 36.171 209.309 36.171C210.048 36.171 210.048 36.4719 210.048 36.6399C210.048 37.1647 209.778 37.7246 209.252 38.2984C208.67 38.9352 208.279 39.1032 208.051 39.1312C207.582 39.1801 207.227 39.3341 206.985 39.593C206.921 39.663 206.864 39.733 206.822 39.803C206.694 38.5223 206.622 37.6616 206.608 37.2277Z" fill="#213263"/>
<path d="M223.141 37.5356L221.542 32.819L220.248 27.7734C220.106 27.2276 219.985 26.8287 219.864 26.5488C219.665 26.0799 219.388 25.9819 219.189 25.9819C218.798 25.9819 218.471 26.4018 218.059 27.4305C217.647 28.4802 217.27 29.5299 216.943 30.5376C216.31 32.4411 215.642 34.7014 214.953 37.2627C214.114 40.4048 214.008 41.0276 214.008 41.2165C214.008 41.6014 214.064 41.9024 214.178 42.1403C214.32 42.4342 214.59 42.5951 214.939 42.5951C215.251 42.5951 215.521 42.5392 215.742 42.4202C216.012 42.2732 216.154 42.0423 216.154 41.7484C216.154 41.2865 216.197 40.7547 216.289 40.1529C216.303 40.0339 216.36 39.684 216.467 39.0892C217.334 39.0752 218.158 38.9772 218.926 38.7952C219.097 38.7533 219.708 38.5783 220.788 38.2494C220.845 38.3824 220.923 38.5573 221.023 38.7813C221.066 38.8792 221.13 39.0542 221.215 39.2921C221.456 39.9569 221.677 40.4468 221.869 40.7547C222.189 41.2445 222.587 41.4965 223.042 41.4965C223.425 41.4965 223.688 41.3915 223.838 41.1676C223.88 41.1046 223.923 41.0066 223.987 40.5517C224.022 40.4258 224.051 40.2018 223.141 37.5356ZM220.049 35.8421C219.083 36.3879 218.756 36.5559 218.656 36.5979C218.144 36.8288 217.569 36.9968 216.936 37.1087C217.185 36.248 217.64 34.8344 218.286 32.8889C218.5 32.2591 218.677 31.7273 218.812 31.3074C218.926 31.6993 219.04 32.0772 219.139 32.4411C219.445 33.4978 219.744 34.6454 220.049 35.8421Z" fill="#213263"/>
<path d="M61.5598 38.3769C61.5598 38.3769 57.0497 39.0757 57.1962 41.1128C57.1924 41.1128 60.9852 40.6951 61.5598 38.3769Z" fill="#E5348B"/>
<path d="M57.981 37.6005C57.981 37.6005 58.6983 42.0371 60.7674 41.8929C60.7712 41.8929 60.3356 38.1587 57.981 37.6005Z" fill="#E5348B"/>
<path d="M51.6384 41.6637C51.6384 41.6637 51.3755 41.4456 51.015 41.2755C51.0714 41.0167 51.0751 40.7431 50.9324 40.5028C50.9324 40.5028 50.7221 40.7764 50.5419 41.1202C50.2753 41.0611 49.9974 41.0611 49.7495 41.2016C49.7495 41.2016 50.0124 41.3975 50.3504 41.5713C50.2565 41.8745 50.249 42.174 50.4555 42.3625C50.4555 42.3625 50.6658 42.1148 50.8348 41.7747C51.1427 41.8634 51.4469 41.8708 51.6384 41.6637Z" fill="#E62049"/>
<path d="M61.9654 28.8306C61.9654 28.8306 60.5384 31.5888 61.7513 32.3319C61.7476 32.3356 63.0431 30.084 61.9654 28.8306Z" fill="#614595"/>
<path d="M60.0765 30.4796C60.0765 30.4796 62.8817 31.8772 63.6327 30.683C63.6365 30.6867 61.3458 29.4148 60.0765 30.4796Z" fill="#614595"/>
<path d="M6.16595 46.8842C6.16595 46.8842 9.0913 47.106 9.30535 45.812C9.30535 45.812 6.87194 45.5236 6.16595 46.8842Z" fill="#E62049"/>
<path d="M8.28393 47.8936C8.28393 47.8936 8.50173 45.0134 7.18739 44.8027C7.18739 44.8027 6.89824 47.2022 8.28393 47.8936Z" fill="#E62049"/>
<path d="M5.39237 56.1975C5.39237 56.1975 9.46307 52.8589 8.08864 50.9142C8.08864 50.9142 4.56246 53.554 5.39237 56.1975Z" fill="#95C11F"/>
<path d="M9.42553 54.8739C9.42553 54.8739 6.02327 50.8735 4.05176 52.2341C4.05176 52.2341 6.74428 55.6947 9.42553 54.8739Z" fill="#95C11F"/>
<path d="M17.8786 54.3452L17.4243 53.3432C17.4243 53.3432 17.1088 52.393 16.7934 52.0825C16.4779 51.7719 16.4066 50.8735 16.4066 50.8735C16.4066 50.8735 16.5418 50.4372 15.8057 50.1008C15.8057 50.1008 15.633 49.8678 16.2263 49.5832C16.2263 49.5832 16.8309 49.4538 16.4441 49.1691C16.4441 49.1691 17.2478 48.8955 16.6619 47.7382C16.6619 47.7382 15.8846 46.8398 14.9796 47.6273C14.9796 47.6273 14.6303 47.875 14.5515 48.437C14.5515 48.437 14.1647 48.1264 14.236 48.6847C14.236 48.6847 14.1121 48.6699 13.7741 48.4999C13.4399 48.3298 12.9668 48.0895 12.9668 48.0895C12.9668 48.0895 12.5837 47.8935 12.6964 47.5977C12.809 47.2983 13.1846 46.7511 13.1846 46.7511C13.1846 46.7511 14.176 46.5034 13.9356 46.2261C13.9356 46.2261 14.1872 45.7011 13.6014 45.8046C13.6014 45.8046 13.4399 45.5901 13.1921 45.8342C12.9442 46.0782 12.9592 46.2741 12.9592 46.2741L12.088 47.1947C12.088 47.1947 11.6336 47.8344 12.0129 48.2078C12.3922 48.5812 12.6025 48.9103 12.6025 48.9103C12.6025 48.9103 12.3546 49.0286 12.7001 49.3687C13.0456 49.7089 12.1481 51.2321 12.1481 51.2321C12.1481 51.2321 11.6749 52.3709 11.859 53.1916C11.859 53.1916 12.0918 53.1473 11.8176 53.6908C11.5435 54.2343 11.6562 55.813 11.6562 55.813C11.6562 55.813 11.889 56.9222 12.2007 57.229C12.2007 57.229 12.0955 57.4952 12.6551 57.8502C12.6551 57.8502 12.8391 59.1442 12.5574 59.5509C12.2758 59.9576 12.4523 59.9132 12.0768 59.9909C11.7012 60.0685 11.5548 60.2127 11.7012 60.3532C11.8477 60.4937 12.5161 60.3532 12.5161 60.3532C12.5161 60.3532 13.1019 60.0759 13.1545 59.9206C13.2071 59.7653 13.1996 58.9372 13.6202 58.6192C13.6202 58.6192 14.1459 58.9889 13.9619 59.403C13.7779 59.8171 13.4624 59.965 13.6014 60.1018C13.7403 60.2386 14.3374 60.1609 14.4613 59.8245C14.5853 59.488 14.6904 59.2292 14.8218 59.0998C14.9533 58.9704 14.9082 58.7893 14.6979 58.6414C14.4876 58.4935 13.9544 57.7947 13.9544 57.7947C13.9544 57.7947 13.8042 57.632 14.0783 57.0257C14.3524 56.4193 14.8857 54.6779 14.8857 54.6779C14.8857 54.6779 15.0171 54.5042 14.912 54.127C14.912 54.127 15.1936 53.92 14.912 53.3174L14.9721 52.1786C14.9721 52.1786 15.1899 51.8606 15.2274 51.7202C15.2612 51.5834 15.5691 51.6943 15.6217 51.8496C15.6743 52.0048 15.6555 52.1084 15.8508 52.1786C16.0423 52.2489 16.0686 52.5077 16.0686 52.5077L17.1914 53.9237L17.7434 54.8554L17.8786 54.3452Z" fill="#223265"/>
<path d="M17.7397 54.8554C17.7397 54.8554 17.8298 55.3213 17.9725 55.4026C18.1152 55.484 18.1903 55.447 18.2692 55.3139C18.3518 55.1808 18.4945 55.0662 18.3067 54.959C18.3067 54.959 18.6184 54.8259 17.8786 54.3452C17.1426 53.8646 17.4843 54.1234 17.4843 54.1234L17.7397 54.8554Z" fill="#223265"/>
<path d="M44.8301 45.7639C44.526 46.5958 43.8087 46.8361 43.8087 46.8361C43.3956 46.6772 43.1102 46.3629 42.9262 46.0782C42.9262 46.0782 42.8173 45.8896 42.6446 45.5051C42.2916 45.287 42.4155 45.006 42.4155 45.006C42.3291 44.8396 42.4869 44.8174 42.4869 44.8174C42.4681 44.7102 42.5582 44.64 42.6333 44.5993C42.6971 44.5402 42.7685 44.6622 42.7685 44.6622C42.7685 44.6622 42.7159 44.5808 42.7309 44.3072C42.746 44.0336 42.8474 44.3405 42.8474 44.3405C42.9037 44.518 42.9262 44.7435 42.9262 44.7435C42.9262 44.7435 43.0652 44.4625 43.1891 44.5365C43.313 44.6104 43.0389 44.7879 43.0351 44.8692C43.0314 44.9506 42.9713 45.2981 42.9713 45.2981C43.3618 45.8268 43.7599 45.9562 43.7599 45.9562C43.7599 45.9562 43.835 45.8268 44.218 45.006C44.6048 44.1852 45.2207 44.2998 45.2207 44.2998C45.9267 44.115 45.3859 43.5752 45.078 43.3238C45.0742 44.2296 44.6086 44.1335 44.6086 44.1335C44.8602 43.8636 44.4321 43.0761 44.4321 43.0761C43.8688 41.1572 44.9165 41.4752 45.1681 41.575C45.3146 41.331 45.6037 41.0832 46.1633 41.0721C46.505 41.0648 46.7303 41.1905 46.8918 41.3568C47.1509 41.2422 47.7893 41.0537 47.7367 42.0039C47.7367 42.0039 47.5677 42.8246 48.0146 43.3164C48.0146 43.3164 47.6691 43.5863 47.2373 42.9097C47.1922 43.1537 47.0983 43.431 46.8843 43.6454C46.4674 44.0706 46.9218 44.1593 46.9218 44.1593C47.1546 44.2037 47.2748 44.2407 47.2748 44.2407C47.2748 44.2407 47.3724 44.2813 47.8494 44.3109C48.3338 44.3368 48.3676 45.1206 49.5993 45.0023C49.9523 44.969 50.6395 44.0262 50.6395 44.0262C50.6395 44.0262 50.7447 43.7637 50.7184 43.5937C50.6921 43.4236 50.801 43.2424 50.9212 43.2128C51.0413 43.1833 50.955 43.4384 50.955 43.4384C50.955 43.4384 51.0038 43.4606 51.0789 43.4569L51.3155 43.346C51.4807 43.2313 51.4882 43.5937 51.4882 43.5937C51.4882 43.5937 51.5258 43.7009 51.5107 44.0041C51.5032 44.1667 51.3305 44.2814 51.1728 44.3516C51.1728 44.3516 50.9888 44.4218 50.955 44.4329C50.9362 44.4403 50.9212 44.4403 50.9212 44.4403C50.4593 45.1983 49.8321 45.6382 49.697 45.7565C49.5618 45.8749 49.2313 45.8231 49.2313 45.8231C48.3 45.7713 47.9996 45.3018 47.9996 45.3018C47.8418 45.4386 47.6053 45.7861 47.6053 45.7861L47.4889 47.0691C49.6819 49.4833 49.4453 52.2082 49.4453 52.2082C49.1825 52.1934 48.8858 52.4079 48.8858 52.4079C48.3751 52.7406 47.7855 52.9181 47.1884 52.992C47.1997 53.1399 47.1697 53.3765 47.0082 53.7906C47.0082 53.7906 46.8655 54.1456 46.9744 54.4007C46.9744 54.4007 47.1021 54.4894 47.1809 54.5744L46.5162 54.5634L46.5125 54.2084C46.5125 54.2084 46.674 53.5244 46.4186 53.0401C46.2797 53.0401 46.1407 53.0364 46.0055 53.029C46.0205 53.3691 46.0243 53.9237 45.953 54.1788C45.9492 54.1936 45.9454 54.1973 45.9454 54.2121C45.998 54.2565 46.152 54.397 46.2083 54.5597L45.4836 54.5449C45.4648 54.4007 45.4535 54.1899 45.4798 53.9829C45.5136 53.713 45.3446 53.2028 45.2545 52.9514C44.3344 52.8183 43.6623 52.5816 43.6623 52.5816C43.2229 47.864 44.5447 47.8566 44.7137 47.3316C44.8714 46.814 44.8301 45.7639 44.8301 45.7639Z" fill="#213263"/>
<path d="M39.9257 25.1778C39.9257 25.1778 35.0514 26.0799 35.9489 19.8796C42.2427 20.8557 39.9257 25.1778 39.9257 25.1778Z" fill="#95C11F"/>
<path d="M27.3006 22.8596C27.3006 22.8596 24.0598 19.1624 29.9555 16.8146C32.2575 22.6637 27.3006 22.8596 27.3006 22.8596Z" fill="#95C11F"/>
<path d="M23.9509 32.7127C23.9509 32.7127 21.6451 37.0385 17.2628 32.4946C21.9493 28.2428 23.9509 32.7127 23.9509 32.7127Z" fill="#95C11F"/>
<path d="M39.1409 28.9526C39.1409 28.9526 34.8824 31.4593 33.5493 25.333C39.7981 24.1092 39.1409 28.9526 39.1409 28.9526Z" fill="#3AAA35"/>
<path d="M28.7539 27.1114C28.7539 27.1114 26.6734 22.6784 33.0011 22.0203C33.5719 28.2686 28.7539 27.1114 28.7539 27.1114Z" fill="#3AAA35"/>
<path d="M26.8499 37.0163C26.8499 37.0163 24.394 41.257 20.1731 36.5689C25.0061 32.4798 26.8499 37.0163 26.8499 37.0163Z" fill="#3AAA35"/>
<path d="M43.7899 25.1334C43.7899 25.1334 42.8661 20.3085 49.2012 21.1959C48.2023 27.4257 43.7899 25.1334 43.7899 25.1334Z" fill="#3AAA35"/>
<path d="M45.1005 19.9942C45.1005 19.9942 44.9165 16.1084 49.7833 17.4912C48.3075 22.2717 45.1005 19.9942 45.1005 19.9942Z" fill="#95C11F"/>
<path d="M49.0172 27.263C49.0172 27.263 51.1427 23.9836 54.3084 27.8804C50.2978 30.9417 49.0172 27.263 49.0172 27.263Z" fill="#E62049"/>
<path d="M45.9905 30.731C45.9905 30.731 48.7093 26.8156 52.4157 31.6849C47.41 35.2638 45.9905 30.731 45.9905 30.731Z" fill="#95C11F"/>
<path d="M43.5045 34.8719C43.5045 34.8719 45.953 30.7865 49.9786 35.4006C45.2282 39.3012 43.5045 34.8719 43.5045 34.8719Z" fill="#3AAA35"/>
<path d="M42.5431 16.9366C42.5431 16.9366 38.9757 17.103 40.2449 12.7698C44.6311 14.0861 42.5431 16.9366 42.5431 16.9366Z" fill="#614595"/>
<path d="M22.997 15.1065C22.997 15.1065 20.2332 12.8808 24.1199 10.4924C26.4857 14.3597 22.997 15.1065 22.997 15.1065Z" fill="#614595"/>
<path d="M20.3796 16.7554C20.3796 16.7554 18.4907 19.7391 15.5917 16.2489C19.1817 13.4427 20.3796 16.7554 20.3796 16.7554Z" fill="#E62049"/>
<path d="M13.2484 23.4733C13.2484 23.4733 12.4373 26.3017 9.28284 24.1647C11.5022 21.0886 13.2484 23.4733 13.2484 23.4733Z" fill="#E5348B"/>
<path d="M24.6231 23.9984C24.6231 23.9984 22.7342 26.982 19.8351 23.4918C23.4251 20.6856 24.6231 23.9984 24.6231 23.9984Z" fill="#3AAA35"/>
<path d="M43.8688 13.55C43.8688 13.55 40.6843 13.6979 41.8184 9.83057C45.7314 11.0063 43.8688 13.55 43.8688 13.55Z" fill="#E5348B"/>
<path d="M20.7063 12.2189C20.7063 12.2189 18.0964 10.4221 21.3898 8.04108C23.7594 11.3279 20.7063 12.2189 20.7063 12.2189Z" fill="#E5348B"/>
<path d="M17.7134 13.9899C17.7134 13.9899 15.8958 16.5669 13.4662 13.3318C16.7933 10.9841 17.7134 13.9899 17.7134 13.9899Z" fill="#614595"/>
<path d="M45.7915 16.0973C45.7915 16.0973 45.6413 12.9621 49.5693 14.0787C48.3751 17.9349 45.7915 16.0973 45.7915 16.0973Z" fill="#E62049"/>
<path d="M46.8429 12.744C46.8429 12.744 46.7002 9.77878 50.418 10.8325C49.2914 14.4817 46.8429 12.744 46.8429 12.744Z" fill="#614595"/>
<path d="M44.9465 10.4924C44.9465 10.4924 41.9348 10.6329 43.0051 6.9726C46.7115 8.08176 44.9465 10.4924 44.9465 10.4924Z" fill="#3AAA35"/>
<path d="M18.3105 10.0191C18.3105 10.0191 15.5992 8.71769 18.3255 6.01501C21.033 8.74357 18.3105 10.0191 18.3105 10.0191Z" fill="#3AAA35"/>
<path d="M46.1407 7.79339C46.1407 7.79339 43.7561 7.90431 44.6048 5.00568C47.5377 5.88562 46.1407 7.79339 46.1407 7.79339Z" fill="#95C11F"/>
<path d="M14.9458 11.4462C14.9458 11.4462 13.7403 13.476 11.735 11.1985C14.0821 9.25377 14.9458 11.4462 14.9458 11.4462Z" fill="#E5348B"/>
<path d="M8.59938 18.5671C8.59938 18.5671 6.21478 18.6817 7.05972 15.7831C9.99257 16.6593 8.59938 18.5671 8.59938 18.5671Z" fill="#E62049"/>
<path d="M6.87572 20.8187C6.87572 20.8187 6.77432 23.1665 3.92032 22.0758C5.07318 19.277 6.87572 20.8187 6.87572 20.8187Z" fill="#95C11F"/>
<path d="M9.94376 21.8022C9.94376 21.8022 9.84237 24.1499 6.98837 23.0593C8.13748 20.2642 9.94376 21.8022 9.94376 21.8022Z" fill="#3AAA35"/>
<path d="M11.5735 19.436C11.5735 19.436 8.55808 19.1069 10.2066 15.6389C13.7103 17.3138 11.5735 19.436 11.5735 19.436Z" fill="#95C11F"/>
<path d="M15.4978 21.1811C15.4978 21.1811 11.5961 20.7559 13.7291 16.2675C18.2654 18.4377 15.4978 21.1811 15.4978 21.1811Z" fill="#3AAA35"/>
<path d="M17.1351 25.7175C17.1351 25.7175 15.7269 29.326 11.8589 26.1501C15.1448 22.3863 17.1351 25.7175 17.1351 25.7175Z" fill="#614595"/>
<path d="M48.1535 9.59762C48.1535 9.59762 48.0409 7.24988 50.985 8.08545C50.0912 10.973 48.1535 9.59762 48.1535 9.59762Z" fill="#E5348B"/>
<path d="M57.6919 18.3416C57.6919 18.3416 55.957 16.7296 58.6645 15.3173C60.0577 18.0088 57.6919 18.3416 57.6919 18.3416Z" fill="#E62049"/>
<path d="M58.7509 20.4231C58.7509 20.4231 60.4219 18.7446 61.8039 21.4362C59.0438 22.7561 58.7509 20.4231 58.7509 20.4231Z" fill="#3AAA35"/>
<path d="M55.9119 22.0129C55.9119 22.0129 57.936 19.9831 59.6071 23.2404C56.2649 24.8413 55.9119 22.0129 55.9119 22.0129Z" fill="#E5348B"/>
<path d="M52.4007 24.5677C52.4007 24.5677 54.53 21.4769 57.4628 25.2998C53.5311 28.1319 52.4007 24.5677 52.4007 24.5677Z" fill="#614595"/>
<path d="M54.5262 19.5099C54.5262 19.5099 52.1191 17.2731 55.8743 15.3173C57.8045 19.0478 54.5262 19.5099 54.5262 19.5099Z" fill="#95C11F"/>
<path d="M51.0376 21.6765C51.0376 21.6765 48.4652 19.2844 52.4758 17.1954C54.5412 21.181 51.0376 21.6765 51.0376 21.6765Z" fill="#3AAA35"/>
<path d="M41.5405 20.8298C41.5405 20.8298 37.2182 21.6321 38.0143 16.1306C43.5946 16.9995 41.5405 20.8298 41.5405 20.8298Z" fill="#E62049"/>
<path d="M23.0233 20.5229C23.0233 20.5229 20.3533 23.9651 17.2102 19.3509C21.9493 16.3192 23.0233 20.5229 23.0233 20.5229Z" fill="#95C11F"/>
<path d="M20.6763 28.6828C20.6763 28.6828 18.9977 32.6869 14.7542 29.0266C18.5395 24.8968 20.6763 28.6828 20.6763 28.6828Z" fill="#E62049"/>
<path d="M25.3741 18.5745C25.3741 18.5745 22.1559 15.6204 27.1278 12.9917C29.7265 17.9312 25.3741 18.5745 25.3741 18.5745Z" fill="#E62049"/>
<path d="M62.6714 18.2454C62.4798 17.8794 62.2733 17.5097 62.0593 17.1511C61.5485 16.2822 60.9965 15.4282 60.3994 14.6C60.2304 14.3634 60.0502 14.1193 59.8699 13.8901C59.0513 12.8142 58.1613 11.7827 57.2075 10.8066C57.0159 10.6107 56.8244 10.4221 56.6254 10.2335C54.6727 8.31468 52.4758 6.63984 50.1213 5.26077C49.8209 5.0833 49.5129 4.90584 49.2013 4.73946C48.9684 4.61006 48.7393 4.48435 48.5028 4.36604C47.8606 4.03329 47.2034 3.72272 46.5425 3.43803C44.5635 2.56918 42.5206 1.90369 40.4215 1.43784C38.0031 0.905434 35.5208 0.631836 32.986 0.631836C29.8354 0.631836 26.7523 1.05332 23.7819 1.8852C22.0808 2.36584 20.4172 2.97588 18.7912 3.72642C18.5133 3.85212 18.2504 3.98153 17.98 4.11093C16.9699 4.60636 15.986 5.15725 15.0359 5.7562C14.7956 5.90409 14.5627 6.05937 14.3262 6.21096C13.8643 6.51783 13.3986 6.84319 12.9555 7.16854C12.2758 7.66397 11.6224 8.18528 10.9915 8.73247C10.7812 8.90994 10.5709 9.0948 10.3681 9.28336C9.95503 9.65678 9.54946 10.0413 9.15516 10.4332C5.41492 14.16 2.5797 18.7372 0.968695 23.7839C-0.0302044 26.9376 -0.26303 30.1394 0.300259 33.0418C0.311525 33.1231 0.330303 33.2118 0.349079 33.2969C0.386632 33.4559 0.420421 33.6148 0.457973 33.7775C0.495526 33.9365 0.536837 34.0918 0.578144 34.2434C0.619452 34.3986 0.660762 34.5502 0.709581 34.7055C0.758399 34.8608 0.807219 35.0087 0.852283 35.1566C0.901101 35.3045 0.953668 35.4524 1.01 35.6003C1.06257 35.7407 1.12266 35.8849 1.17899 36.0254C1.76856 37.4526 2.55717 38.7133 3.54856 39.8003C3.66121 39.9297 3.78138 40.0591 3.90906 40.1848C4.04049 40.3216 4.18695 40.451 4.32214 40.5804C4.46108 40.7098 4.60378 40.8392 4.75399 40.9649C4.89294 41.0906 5.03564 41.209 5.1821 41.3199C5.27222 41.3901 5.36235 41.4567 5.45998 41.5195V41.5269C5.46749 41.5195 5.46749 41.5269 5.47125 41.5343C5.47125 41.5343 5.47876 41.5417 5.48251 41.5417C6.15095 42.0039 7.10103 42.5437 8.2614 42.8801C8.38157 42.9097 8.49423 42.9467 8.6144 42.9762C8.86224 43.0354 9.10634 43.0835 9.36545 43.1241C9.90621 43.2018 10.477 43.235 11.0854 43.1944C11.168 43.187 11.2468 43.1833 11.3332 43.1759C11.5435 43.1352 11.7463 43.0871 11.9416 43.0354C12.3922 42.9097 12.7902 42.747 13.1094 42.6028C14.3074 42.063 15.5879 41.7857 15.5879 41.7857C16.6281 41.4604 15.9372 41.1572 15.7794 41.1572C15.618 41.1646 15.2687 41.0315 14.1271 41.2866C13.6953 41.3827 13.2371 41.4751 12.764 41.5454C11.9941 41.6563 11.1905 41.7044 10.3756 41.5676C9.05752 41.3531 8.51677 40.329 8.51677 40.329C8.23512 39.2679 9.48938 40.3697 10.278 40.7949C11.536 41.4973 12.3509 40.9428 12.3509 40.9428C12.5424 40.8355 12.6738 40.7431 12.7602 40.6581C13.0306 40.4103 12.8691 40.2551 12.5987 40.1959C12.4861 40.1663 12.3471 40.1589 12.2157 40.1663C11.705 40.1885 11.183 39.9408 10.3568 39.3788C10.3043 39.3419 10.2479 39.3086 10.1879 39.2679C10.1465 39.2383 10.0376 39.157 10.0189 39.1496C9.74849 38.9906 9.4706 38.8945 9.24904 38.8316C9.06127 38.7799 8.91107 38.7503 8.82845 38.7244C8.82094 38.7244 8.82094 38.7244 8.82094 38.7244C8.52052 38.6468 8.22761 38.5543 7.93846 38.4471C7.6493 38.3362 7.37517 38.2105 7.09728 38.0737C6.82315 37.9406 6.55652 37.789 6.29741 37.6263C6.02703 37.4563 5.76416 37.2788 5.51631 37.0791C5.41867 37.0089 5.32479 36.9239 5.22716 36.8499C5.03939 36.6835 4.85539 36.5172 4.67889 36.3397C4.17944 35.8443 3.74007 35.2971 3.3683 34.7018C2.78623 33.7664 2.36565 32.7127 2.15536 31.5888C1.57329 28.4646 1.69346 24.3459 3.99919 19.6467C4.17944 19.2696 4.37846 18.8888 4.60002 18.4969C5.8693 16.2194 7.66056 13.8162 10.1503 11.3279C10.3531 11.1209 10.5634 10.9064 10.7812 10.7068C11.4346 10.0746 12.1293 9.44604 12.8654 8.81381L13.8981 8.0226C15.5015 6.85798 17.1801 5.85602 18.87 5.04633L19.6624 4.684C20.9241 4.12202 22.216 3.64139 23.5265 3.24578C23.5754 3.2273 23.6242 3.20881 23.6767 3.19772C25.7083 2.59507 27.7888 2.19207 29.918 2.00351C30.9357 1.90369 31.9571 1.85562 32.9898 1.85562C35.4082 1.85562 37.8228 2.12922 40.1661 2.66162C42.8098 3.24208 45.3709 4.159 47.7705 5.37169L47.7968 5.38648C45.2732 10.888 43.2792 16.5521 41.8146 22.3494C41.8034 22.3494 41.7846 22.3531 41.7771 22.3531V22.3605C40.8758 24.6934 40.1173 27.2075 39.4939 29.766C39.3061 30.5461 39.1259 31.3336 38.9606 32.1212C38.2584 35.4487 37.759 38.7429 37.4398 41.6674C37.3384 41.6896 37.2708 41.7155 37.2708 41.7155C37.2107 41.7155 37.1281 41.7377 37.0905 41.7931C37.0718 41.8153 37.068 41.8449 37.0793 41.8892C37.0905 41.9188 37.1018 41.941 37.1281 41.9706C37.1394 41.9891 37.1581 42.0076 37.1769 42.0223V42.0297C37.1957 42.0408 37.1994 42.0519 37.1994 42.0667C37.2107 42.1037 37.1994 42.137 37.1694 42.1739C37.0004 42.3588 36.347 42.5363 36.347 42.5363C36.347 42.2701 36.2381 42.2035 36.178 42.0852C36.1104 41.9669 36.1968 41.7487 36.1968 41.7487C36.208 41.6119 36.1667 41.5047 36.0841 41.4308C36.0466 41.3901 35.9978 41.3605 35.9489 41.331C35.9039 41.3051 35.8551 41.2792 35.8062 41.2607C35.6448 41.1979 35.487 41.172 35.457 41.1683C35.5096 41.1387 35.5471 41.1165 35.5696 41.0869C35.6222 41.0204 35.6072 40.9612 35.5584 40.9095C35.5359 40.8725 35.4908 40.8429 35.4495 40.8207C35.4307 40.8133 35.4194 40.8023 35.4082 40.7912C35.3594 40.7505 35.3406 40.6913 35.3594 40.6248C35.3669 40.6063 35.3706 40.5841 35.3894 40.5582C35.4082 40.5176 35.4382 40.4769 35.487 40.4325V40.4251C35.6448 40.2772 35.8851 40.1367 35.8851 40.1367C36.5986 39.2679 35.8776 38.473 35.7274 38.3251C35.7161 38.3066 35.7048 38.3029 35.7048 38.3029C35.656 38.2438 35.6034 38.1957 35.5471 38.155C34.9275 37.6115 33.9887 37.7816 33.9887 37.7816L33.2902 37.9702C33.2677 37.948 33.2414 37.9221 33.2189 37.9036C33.1776 37.863 33.14 37.8334 33.11 37.8038C32.9823 37.6966 32.941 37.704 32.9297 37.7336C32.9109 37.7446 32.9072 37.7705 32.8922 37.7853C32.8846 37.7927 32.8734 37.7964 32.8621 37.7964C32.8396 37.7964 32.8133 37.8075 32.7945 37.8334C32.7833 37.8408 32.7757 37.8519 32.7645 37.863C32.7532 37.8814 32.7419 37.9036 32.7269 37.9221C32.7157 37.9443 32.7081 37.9628 32.7081 37.9813C32.7006 37.9813 32.7006 37.9813 32.7006 37.9813C32.4378 37.9628 32.3176 38.0182 32.2688 38.0811C32.1974 38.1772 32.2575 38.2955 32.2688 38.3251C32.2763 38.3325 32.2763 38.3325 32.2763 38.3325H32.2688C32.22 38.3214 32.1899 38.3214 32.1862 38.3436C32.1561 38.3917 32.2162 38.5432 32.419 38.9167C32.6781 39.3973 32.6518 39.5267 32.5166 39.6857C32.4941 39.7042 32.4678 39.7264 32.4453 39.7522V39.7596C32.4265 39.7781 32.4077 39.7966 32.3965 39.8077C32.3176 39.9075 32.3476 39.9482 32.3852 39.9778C32.4077 39.9963 32.434 40.0074 32.4453 40.0258V40.0332C32.4641 40.0443 32.4753 40.0554 32.4828 40.0702C32.5054 40.0924 32.5054 40.122 32.4641 40.2107C32.4265 40.2699 32.4565 40.3179 32.4866 40.3475C32.5279 40.3845 32.5842 40.3956 32.5842 40.3956C32.5842 40.3956 32.5767 40.3956 32.5767 40.403C32.5654 40.414 32.5542 40.4214 32.5467 40.4251C32.5354 40.4325 32.5279 40.4436 32.5241 40.4473C32.4866 40.4954 32.5241 40.5434 32.5429 40.5656C32.5504 40.5656 32.5504 40.5656 32.5504 40.5656C32.5504 40.5656 32.588 40.5767 32.6105 40.6063C32.6406 40.6359 32.6706 40.6766 32.6706 40.7431C32.6706 40.7801 32.6593 40.8097 32.633 40.8392C32.5654 40.9095 32.4415 40.9464 32.4415 40.9464C32.2988 40.9834 32.1899 41.0463 32.1223 41.1313C31.9008 41.3605 31.912 41.7155 31.8332 41.9484C31.7506 42.185 31.6529 42.3551 31.6116 42.4142C31.6041 42.4253 31.6003 42.4327 31.6003 42.4438C31.5928 42.4364 31.5928 42.4438 31.5928 42.4438C31.5928 42.4438 31.3938 42.3033 31.0295 42.4142C30.808 42.4808 30.5263 42.4734 30.3311 42.4549C30.1996 42.4475 30.1095 42.4364 30.1095 42.4364C30.132 42.3884 30.1208 42.3477 30.087 42.3107C30.0194 42.2331 29.8542 42.1813 29.6852 42.1444C29.6777 42.026 29.6739 41.9003 29.6626 41.782C29.6138 41.172 29.565 40.5582 29.5049 39.9519C29.4336 39.2014 29.3472 38.4545 29.2571 37.7077C29.1857 37.0976 29.0993 36.4876 29.0167 35.8849C28.9754 35.5374 28.9266 35.1936 28.874 34.8423C28.8665 34.8017 28.8628 34.761 28.8553 34.7166C28.8553 34.6648 28.8552 34.6057 28.8477 34.5502C28.8102 33.2007 28.6975 31.8697 28.4985 30.5535C28.4272 30.0803 28.3408 29.6107 28.2507 29.1523C28.2394 29.0857 28.2206 29.0155 28.2094 28.9526C28.1605 28.7049 28.108 28.4572 28.0479 28.2132C27.9803 27.9063 27.9089 27.6142 27.8301 27.3148V27.3074C25.7985 19.4914 20.9392 12.6072 13.9318 8.0189L12.8991 8.81011C19.6211 13.0878 24.3339 19.5395 26.4256 26.9007C26.8161 28.2908 27.1241 29.6995 27.3269 31.1451C27.3682 31.4298 27.4057 31.7145 27.4358 31.9992C27.4545 32.1175 27.4658 32.2358 27.4771 32.3541C27.4958 32.5685 27.5184 32.7867 27.5296 32.9974C27.5409 33.1009 27.5484 33.2081 27.5559 33.3154C22.4413 25.4181 14.1684 20.009 4.63383 18.4895C4.41227 18.8814 4.21324 19.2585 4.03299 19.6393C14.1346 21.1219 22.7943 27.104 27.6348 35.8554C27.6348 35.8775 27.6348 35.8997 27.6348 35.9182C27.6235 37.1864 27.5259 38.4508 27.3532 39.7005C26.8011 43.9079 25.3741 47.986 23.1585 51.6906C23.151 51.7128 23.136 51.7424 23.1285 51.7608C22.9107 52.1269 22.6253 52.5705 22.3061 53.029C22.2836 53.0697 22.2535 53.1103 22.2235 53.1584C22.1934 53.2065 22.1559 53.2471 22.1108 53.3063C21.8817 53.639 21.6414 53.9681 21.4011 54.2935V54.3008C21.202 54.567 21.0105 54.8222 20.8378 55.0588C20.8303 55.0588 20.8378 55.0662 20.8378 55.0662C20.7063 55.2436 20.5787 55.41 20.4585 55.5579C20.1581 55.9535 19.9403 56.2308 19.8952 56.3047C19.8877 56.3047 19.8839 56.3121 19.8839 56.3121V56.3195C19.8839 56.3195 19.8764 56.3306 19.8614 56.3491V56.3565C19.8426 56.3676 19.8126 56.4046 19.7825 56.4452C19.715 56.5229 19.6248 56.6338 19.5234 56.7706C19.3056 57.0294 19.0352 57.3696 18.7724 57.6949C18.5734 57.9389 18.3818 58.1755 18.2241 58.353C18.0814 58.5194 17.9312 58.6858 17.781 58.8447C17.5181 58.6081 17.2177 58.3493 16.8797 58.0979C16.0986 57.5064 15.1185 56.937 13.9694 56.6967C13.9394 56.6893 13.9168 56.6856 13.8868 56.6782C13.3348 56.5673 12.7489 56.5672 12.1969 56.6486C11.4346 56.7743 10.7173 57.0627 10.2029 57.4953C10.124 57.5618 10.0452 57.632 9.98132 57.7097C9.46309 58.2347 9.219 58.9039 9.24904 59.6618C9.27157 60.4013 9.56073 61.052 10.0865 61.5622C10.1578 61.6399 10.2367 61.7101 10.3193 61.7766C11.198 62.4791 12.5725 62.8082 13.823 62.6122C14.9908 62.4163 16.0949 61.9098 17.1839 61.0446C17.3867 60.8856 17.5932 60.7118 17.796 60.5233V60.5307C18.0589 60.8154 18.5959 61.3995 19.1066 61.9024C19.2944 62.0909 19.4784 62.2647 19.6549 62.4126C19.6962 62.4495 19.7337 62.4791 19.775 62.5124L19.8276 62.5494C19.8351 62.5568 19.8389 62.5605 19.8464 62.5679C19.8652 62.5753 19.8764 62.5789 19.8839 62.59C19.8914 62.59 19.8914 62.59 19.8914 62.59C20.1844 62.8451 20.4998 63.0855 20.819 63.311C21.3372 63.6881 21.8817 64.032 22.4525 64.3425C22.8018 64.5385 23.1623 64.716 23.534 64.8823C24.8521 65.485 26.2942 65.9434 27.8451 66.2429C28.2882 66.339 28.7426 66.413 29.2045 66.4721C29.3923 66.4943 29.5763 66.5202 29.764 66.5387C30.7967 66.6644 31.867 66.7235 32.9785 66.7235H33.0687V66.742H33.2902C33.339 66.742 33.3878 66.742 33.4329 66.7346V66.7162C34.0413 66.7088 34.6609 66.6866 35.2918 66.6459V66.6644L35.5321 66.6533C35.6936 66.6422 35.8513 66.6311 35.9902 66.6126C36.2005 66.6015 36.4108 66.5757 36.6136 66.5535C36.8427 66.5313 37.0642 66.5054 37.2858 66.4758C37.3046 66.4758 37.3271 66.4684 37.3459 66.4684C37.7477 66.4204 38.1383 66.3612 38.5363 66.2984C38.9494 66.2318 39.3662 66.1505 39.7755 66.0691C40.0459 66.0174 40.3163 65.9582 40.5867 65.8991C40.7557 65.8621 40.9359 65.8214 41.1087 65.7808L41.1687 65.7697C41.2288 65.7512 41.2889 65.7401 41.3114 65.729C41.4241 65.7068 41.5405 65.6772 41.6494 65.6476L42.04 65.5404C42.1414 65.5109 42.239 65.4887 42.3329 65.4591C42.761 65.3408 43.144 65.2225 43.512 65.0968C43.6022 65.0672 43.6848 65.0376 43.7711 65.008C44.0303 64.9267 44.2931 64.838 44.5522 64.7418C45.0742 64.5533 45.5849 64.3573 46.0618 64.1577C46.3134 64.0615 46.55 63.9617 46.7716 63.8508C46.9143 63.799 47.0608 63.7325 47.1847 63.6622C47.1959 63.6622 47.2034 63.6548 47.2147 63.6511C47.3349 63.6031 47.4475 63.5439 47.5564 63.4959C47.808 63.3776 48.0484 63.2592 48.2887 63.1335C48.3864 63.0855 48.4765 63.0374 48.5666 62.993C48.9346 62.8045 49.2951 62.6085 49.6594 62.4089C49.911 62.2684 50.1701 62.1242 50.418 61.9726C51.338 61.418 52.2393 60.8117 53.0917 60.1905C53.3095 60.0242 53.5198 59.8652 53.7339 59.7062C53.9441 59.5398 54.1544 59.3734 54.3572 59.2108C54.56 59.0407 54.7665 58.8669 54.9768 58.6969C55.1759 58.5268 55.3749 58.3493 55.5889 58.1571C55.7805 57.987 55.9795 57.8095 56.1673 57.6247L56.2198 57.584C56.3926 57.4139 56.5691 57.2475 56.7418 57.0738C56.9108 56.9074 57.0798 56.7373 57.2413 56.5709C57.6431 56.1643 58.0411 55.7317 58.4505 55.2621C58.6082 55.0847 58.7584 54.9072 58.9086 54.7223C59.0776 54.5227 59.2503 54.3156 59.4118 54.1086C59.9037 53.4875 60.3731 52.8589 60.835 52.186C61.1355 51.7424 61.4284 51.2913 61.7175 50.8181C61.8302 50.6406 61.9391 50.4557 62.048 50.2746C62.0968 50.1932 62.1456 50.1082 62.1907 50.0268C62.3334 49.7828 62.4723 49.5425 62.6038 49.2948C62.7352 49.0582 62.8629 48.8216 62.983 48.5775C63.5351 47.5053 64.0233 46.411 64.4438 45.2981C65.8521 41.6157 66.5656 37.7336 66.5656 33.7147C66.5581 28.2391 65.2249 22.9742 62.6714 18.2454ZM16.5455 60.0057C16.4178 60.1055 16.2977 60.2053 16.1737 60.2941C15.6818 60.6601 15.1936 60.9374 14.7017 61.1407C14.2097 61.3367 13.714 61.4476 13.1996 61.4846C12.4297 61.5363 11.5473 61.3293 10.9802 60.7858C10.7511 60.5603 10.5784 60.283 10.4808 59.9465C10.3606 59.4918 10.4395 59.0703 10.7136 58.6932C10.7624 58.6266 10.8112 58.5675 10.8751 58.5083C11.2769 58.0757 11.9453 57.7799 12.595 57.7504C12.6738 57.743 12.7527 57.743 12.8241 57.743C12.9743 57.743 13.1245 57.7504 13.2747 57.7725C14.773 57.9315 16.0348 58.8632 16.9173 59.6729C16.7896 59.7912 16.6694 59.8985 16.5455 60.0057ZM41.4804 29.6366C41.4879 29.5849 41.4992 29.5294 41.5105 29.4776C41.7583 28.069 42.04 26.6714 42.3516 25.2813C42.453 24.8154 42.562 24.3644 42.6671 23.9022C42.6784 23.8948 42.6934 23.8911 42.7046 23.8837C44.1654 17.7611 46.2271 11.779 48.8858 5.96694C51.2554 7.29055 53.4297 8.88036 55.3711 10.729C55.5702 10.9138 55.7692 11.1061 55.9532 11.2984C56.9108 12.2448 57.8045 13.2579 58.642 14.3338C58.8147 14.5519 58.9912 14.7774 59.1527 15.0067C59.761 15.8238 60.3206 16.663 60.8313 17.5282C60.8313 17.5319 60.835 17.5319 60.835 17.5356C51.6121 20.6376 44.2218 27.4996 40.5679 36.4802C40.5604 36.4802 40.5191 36.5689 40.5191 36.5689C40.5191 36.5689 40.5191 36.5689 40.5191 36.5726C40.5228 36.5467 40.5228 36.5246 40.5266 36.4987V36.4913C40.5266 36.4913 40.5266 36.4839 40.5341 36.4913V36.4543C40.5829 36.018 40.6317 35.5781 40.6768 35.1418C40.7144 34.8349 40.7482 34.5281 40.7895 34.2249C40.8082 34.0844 40.827 33.9402 40.8495 33.7997C40.9096 33.2673 40.981 32.7386 41.0598 32.221C41.1913 31.3521 41.3302 30.4944 41.4804 29.6366ZM35.7161 43.3423C35.8175 43.4532 35.994 43.5789 36.2494 43.5789C36.4596 43.5789 36.6812 43.4717 36.8727 43.3533C36.9215 43.3164 36.9741 43.2757 37.0229 43.2461C37.1356 43.1574 37.222 43.0798 37.2633 43.0465C37.2708 43.0354 37.2745 43.028 37.282 43.028C37.2896 43.0169 37.2896 43.0206 37.2896 43.0206V43.0132H37.2971C37.1882 44.163 37.1056 45.3092 37.038 46.4627L36.4972 46.2926C36.5686 46.2409 36.6286 46.1928 36.6775 46.1448C36.6962 46.1152 36.7075 46.0967 36.7188 46.0782C36.899 45.8305 36.7713 44.5919 36.2268 44.0558C35.8062 43.6417 35.6635 43.3349 35.6147 43.2091C35.6147 43.1981 35.6072 43.187 35.6072 43.1796C35.626 43.2129 35.6598 43.272 35.7161 43.3423ZM29.734 43.0021L30.5339 43.2018L31.2549 43.3866C31.2549 43.3866 31.5365 43.3866 31.8482 43.3053C31.8782 43.2942 31.9158 43.2868 31.9458 43.2757C32.0284 43.2461 32.1036 43.2055 32.1636 43.15C32.3214 43.0095 32.3965 42.8172 32.4152 42.7766C32.4678 43.1204 32.2838 43.3496 32.2425 43.4051H32.235C32.2049 43.4273 32.1824 43.4532 32.1561 43.4827C32.0848 43.553 32.0134 43.6491 31.9533 43.7563V43.7637C31.6304 44.3257 31.4727 45.1946 31.4727 45.1946C31.2098 45.568 31.6229 46.0043 31.6229 46.0043C31.6229 46.0043 31.4914 46.1337 31.4126 46.3074C31.345 46.3 31.2699 46.2889 31.1798 46.2852V46.2779C30.7817 46.2409 30.2409 46.2298 29.888 46.3666C29.8579 45.2426 29.8053 44.1298 29.7377 43.0095V43.0021H29.734ZM42.9825 63.958C42.7009 64.0468 42.4193 64.1355 42.1151 64.2131C41.9724 64.2649 41.8259 64.3019 41.6569 64.3425C41.5893 64.3647 41.5255 64.3832 41.4654 64.4017L40.2825 64.6864C40.0234 64.7529 39.7643 64.8121 39.4939 64.8564C38.9757 64.9674 38.4462 65.0635 37.9129 65.1411C37.7515 65.1596 37.59 65.1818 37.4135 65.2077C37.3722 65.2151 37.3309 65.2188 37.2858 65.2262C37.2032 65.2373 37.1243 65.2484 37.0229 65.2631C36.7826 65.2927 36.5423 65.3223 36.2644 65.3445C36.0015 65.3741 35.7424 65.3962 35.4532 65.411L35.2317 65.4332V65.4406V65.4517C34.6083 65.4924 33.9924 65.5219 33.3991 65.5219C32.9297 65.533 32.4716 65.533 32.0172 65.5219C31.559 65.5108 31.1046 65.485 30.6653 65.4517C30.4437 65.4295 30.2222 65.411 30.0044 65.3851C29.9931 65.3851 29.9818 65.3778 29.9743 65.3778C29.9368 65.3704 29.8955 65.3704 29.8617 65.3667C29.4336 65.3186 29.013 65.2594 28.5999 65.1818C27.8676 65.0561 27.1579 64.9045 26.4782 64.716C25.7985 64.52 25.1488 64.2908 24.5254 64.0283C24.0973 63.8582 23.688 63.6622 23.2937 63.4478C22.5614 63.0633 21.8705 62.6233 21.2246 62.1353C20.7063 61.7434 20.2257 61.3108 19.7713 60.856V60.8486L19.7225 60.8117C19.7112 60.8006 19.6999 60.7895 19.6849 60.7821C19.6736 60.7636 19.6624 60.7451 19.6436 60.734C19.6248 60.7155 19.6061 60.6934 19.5835 60.6749C19.5647 60.6527 19.546 60.6268 19.5234 60.6083C19.5009 60.5861 19.4746 60.5603 19.4521 60.5381C19.4033 60.4789 19.3544 60.4272 19.3019 60.3717C19.2718 60.3495 19.2493 60.3199 19.2193 60.2904C19.1667 60.2238 19.1066 60.1647 19.0503 60.1055C18.9414 59.9872 18.8325 59.88 18.7423 59.7875C18.6935 59.7358 18.6522 59.6914 18.6147 59.6507C18.7649 59.4733 19.0353 59.1479 19.3845 58.7153C19.4371 58.6488 19.4859 58.5896 19.5422 58.5194C19.7037 58.3197 19.8802 58.1053 20.0717 57.8761C20.0717 57.8687 20.0717 57.8687 20.0717 57.8687C20.1994 57.7134 20.3233 57.5544 20.4622 57.388C20.4547 57.3806 20.4547 57.3806 20.4622 57.3806C20.7251 57.0479 21.003 56.693 21.2997 56.3269C21.2922 56.3195 21.2922 56.3195 21.2997 56.3195C21.7278 55.7687 22.1671 55.1956 22.5915 54.6262V54.6188C23.2524 53.7241 23.8795 52.8552 24.3414 52.1158C24.732 51.454 25.1 50.7774 25.4417 50.0934C25.5844 49.8087 25.7234 49.5203 25.8548 49.2282C25.8623 49.2208 25.8623 49.2172 25.8661 49.2061C26.0163 48.8807 26.159 48.5554 26.2979 48.2226C26.4406 47.8899 26.5758 47.5608 26.6997 47.2206C26.7072 47.2133 26.7072 47.2096 26.7072 47.2022C26.8199 46.9175 26.9288 46.6291 27.0264 46.337C27.049 46.2705 27.0753 46.2076 27.0978 46.1374C27.2104 45.812 27.3156 45.4866 27.417 45.1613C27.5071 44.8729 27.5972 44.5771 27.6761 44.285C27.755 44.0078 27.8263 43.7342 27.8939 43.4569C27.9014 43.4495 27.9014 43.4458 27.9014 43.4384C27.9728 43.1611 28.0404 42.8764 28.1004 42.5991C28.1117 42.5584 28.123 42.5178 28.1305 42.4734C28.1981 42.185 28.2507 41.9003 28.3032 41.6156C28.3633 41.3088 28.4159 41.0019 28.4647 40.6913C28.5135 40.4177 28.5473 40.1478 28.5849 39.8742C28.5924 39.8373 28.5961 39.7966 28.6036 39.7633C28.675 39.2383 28.7313 38.7022 28.7726 38.1772C28.7839 38.0811 28.7914 37.9998 28.7952 37.9036C28.8139 38.0515 28.8327 38.192 28.844 38.3399C28.8628 38.5174 28.8853 38.6874 28.9041 38.8649C29.013 39.8373 29.1069 40.806 29.182 41.782C29.1444 41.8708 29.0993 41.9706 29.0618 42.0593C29.043 42.0704 29.0242 42.0815 29.0205 42.1C29.0092 42.1111 28.9979 42.1296 28.9904 42.148C28.9416 42.2885 29.0205 42.5215 29.0205 42.5215C28.9228 42.6878 29.028 42.8062 29.0693 42.8468C29.0806 42.8542 29.0881 42.8579 29.0881 42.8579V42.8653C29.0881 42.9245 29.1068 42.9651 29.1406 42.991C29.1707 43.0132 29.2195 43.028 29.2683 43.0317V43.0391C29.3472 44.2924 29.411 45.5421 29.4411 46.7955C29.2308 47.1578 29.1106 47.5645 29.2833 47.7493C29.3359 47.8085 29.426 47.8455 29.5537 47.8455C29.7941 47.8455 30.5526 47.8566 31.3863 47.864V47.8714C31.4576 47.8788 31.5365 47.8788 31.6079 47.8788C31.6003 48.3335 31.7055 49.0582 32.0885 50.2117C32.0885 50.2117 31.6266 50.1526 31.9759 50.8624C31.9759 50.8624 31.8557 51.4836 31.7243 51.613C31.5928 51.7498 31.5365 52.2859 32.0247 52.2859C32.4678 52.2859 32.633 52.2045 32.787 52.0603C32.7983 52.0418 32.817 52.0308 32.8283 52.0197C32.9973 51.8533 32.9673 51.3209 32.9673 51.3209C32.9673 51.3209 33.0161 50.8402 33.2264 50.6406C33.4292 50.4409 32.8433 49.8605 32.8433 49.8605C32.8433 49.8605 32.7908 49.6756 32.7607 49.3983C32.7419 49.2726 32.7307 49.1321 32.7307 48.9768V48.9399C32.7307 48.6441 32.7682 48.3187 32.8884 47.9971V47.9897C32.8884 47.9897 33.7108 48.2448 34.368 48.1006C34.368 48.1006 34.368 48.1006 34.368 48.108C34.3605 48.1893 34.3192 48.8844 34.368 49.2319C34.4168 49.6091 34.0788 50.1378 34.0788 50.1378V50.1452C34.0788 50.1452 34.0563 50.1378 34.0262 50.1747C33.9737 50.2339 33.9136 50.3818 33.9136 50.7552V50.8328C33.9136 50.8328 33.9136 50.8328 33.9061 50.8402C33.8986 50.8513 33.8948 50.8698 33.8873 50.8994C33.876 50.9216 33.8648 50.9512 33.846 50.9955C33.8159 51.0732 33.7784 51.173 33.7371 51.2691C33.7183 51.3172 33.6995 51.3579 33.677 51.3985C33.677 51.3985 33.677 51.3985 33.677 51.4059C33.6244 51.5131 33.5756 51.6019 33.5381 51.6351V51.6425C33.5268 51.6499 33.5193 51.6647 33.5155 51.6832C33.493 51.7941 33.5681 52.0197 33.707 52.1565C33.7784 52.2341 33.8648 52.2822 33.9662 52.2822C33.9662 52.2822 34.3154 52.5003 34.6271 52.1712C34.6459 52.1491 34.6646 52.1232 34.6797 52.101C34.9913 51.6943 34.9125 50.9512 34.9012 50.8624C34.9012 50.855 34.9012 50.855 34.9012 50.855C34.9012 50.855 34.9087 50.8476 34.9125 50.8476C34.92 50.8402 34.9237 50.8365 34.935 50.8254C34.9538 50.807 34.9876 50.7774 35.0176 50.7478C35.089 50.6591 35.1678 50.5482 35.119 50.4705C35.1078 50.4483 35.089 50.4298 35.0589 50.4188C35.0589 50.4188 34.9313 49.9344 35.1303 49.561C35.1303 49.561 35.5096 48.7069 35.5321 48.0932V48.0858C36.3808 48.156 37.3421 48.1671 37.5712 47.9083C37.6125 47.8566 37.6313 47.8011 37.6238 47.7383C37.6238 47.7383 38.0256 47.0099 37.6951 46.7141C37.6726 46.6846 37.635 46.655 37.5825 46.6365L37.5036 46.6069C37.5825 45.287 37.6839 43.9671 37.8153 42.6398V42.6324C37.8979 42.5843 37.988 42.5437 38.0631 42.5141C38.0932 42.503 38.1157 42.4845 38.142 42.4623C38.2809 42.3255 38.2321 42.026 38.1533 41.941C38.0556 41.8523 38.1157 41.782 38.1157 41.782C38.1533 41.7155 38.157 41.6711 38.127 41.6415C38.1045 41.5935 38.0256 41.575 37.928 41.575C38.2472 38.68 38.6903 35.8147 39.2611 32.9937C39.4113 32.2025 39.5803 31.4076 39.7643 30.6201C40.1135 29.0525 40.5041 27.4996 40.9322 25.9616C40.9397 25.9505 40.9397 25.932 40.9434 25.9209C40.8909 26.2056 40.8233 26.494 40.7632 26.7787C40.7407 26.9192 40.7106 27.056 40.6806 27.1928C40.4327 28.4609 40.2074 29.7254 40.0009 31.0046C39.9896 31.0822 39.9783 31.1599 39.9633 31.2338C39.8244 32.1286 39.7004 33.027 39.584 33.9254C39.5427 34.2397 39.5014 34.5539 39.4639 34.8682C39.415 35.3008 39.3662 35.7334 39.3212 36.1659C39.2385 36.9756 39.1597 37.789 39.0921 38.6061C39.0545 39.0498 39.0245 39.4934 38.9945 39.9371C38.9644 40.3882 38.9419 40.8318 38.9156 41.2755C38.9081 41.3753 38.9043 41.4825 38.8968 41.5824C38.8968 41.6193 38.8893 41.66 38.8893 41.6933C38.8705 42.026 38.8593 42.3551 38.848 42.6952C38.7954 44.0078 38.7691 45.324 38.7691 46.6476C38.7691 50.2154 38.9682 53.8165 39.3512 57.3659C39.4301 58.0831 39.5127 58.7967 39.6103 59.5139C39.6103 59.5842 39.6178 59.6544 39.6291 59.7025C39.7417 60.6675 40.1398 61.5659 40.7669 62.3017C40.8496 62.4015 40.9359 62.4976 41.0298 62.59C41.0598 62.627 41.0899 62.6566 41.1274 62.6899C41.6081 63.1742 42.2052 63.5587 42.8398 63.8138C42.9112 63.8434 42.9788 63.8656 43.0426 63.8915C43.0539 63.8989 43.0651 63.9026 43.0802 63.91L42.9825 63.958ZM62.6338 46.3851C62.3747 46.9655 62.1006 47.5386 61.8039 48.108L61.7964 48.1265C61.6762 48.3557 61.5636 48.5812 61.4471 48.7957L61.4058 48.8548C61.3683 48.9214 61.3382 48.9805 61.2932 49.0508C61.1617 49.2985 61.0228 49.5425 60.8726 49.7828C60.6811 50.1008 60.4933 50.4225 60.2793 50.7367C60.2267 50.8181 60.1779 50.9031 60.1178 50.9844C59.9788 51.2026 59.8286 51.4207 59.6784 51.6351L59.6371 51.7017V51.7091C59.4381 51.9975 59.2278 52.2822 59.0062 52.5742V52.5816C58.7847 52.8774 58.5631 53.1621 58.3228 53.4579C58.09 53.7463 57.8496 54.0309 57.6018 54.3156C57.429 54.5227 57.2488 54.7223 57.0497 54.9442C57.0272 54.9737 56.9972 55.0033 56.9671 55.0329L56.9183 55.0847C56.8094 55.2104 56.6967 55.3287 56.5691 55.4581C56.4001 55.6355 56.2311 55.813 56.0583 55.9905C55.5364 56.5118 54.9768 57.0331 54.3647 57.5655C54.1657 57.7356 53.9629 57.9093 53.7564 58.0794C52.8964 58.7967 51.9952 59.4659 51.0751 60.0685L50.5869 60.3865C50.294 60.5751 49.9861 60.7636 49.6744 60.9485C49.6969 60.8967 49.7157 60.8412 49.7345 60.7821C49.9974 60.0316 50.0875 59.1886 49.9523 58.3123C49.7908 57.2512 49.2801 56.2937 48.5403 55.5468C47.808 54.7963 46.8392 54.2676 45.7614 54.0716C44.8038 53.9015 43.8913 53.994 43.0727 54.2787C42.9713 54.3156 42.8811 54.3674 42.8211 54.4376C42.7685 54.4857 42.7309 54.5375 42.7009 54.5966C42.6896 54.6188 42.6784 54.6484 42.6633 54.6854C42.6446 54.7445 42.6333 54.8037 42.6333 54.8702C42.6333 55.0551 42.7046 55.2067 42.8248 55.3139C42.945 55.4248 43.1027 55.4914 43.2679 55.4914C43.3393 55.4914 43.4106 55.4803 43.4857 55.4544C43.9664 55.2843 44.4959 55.2067 45.0442 55.2399C45.277 55.251 45.5061 55.288 45.7239 55.3472C45.8365 55.3694 45.9454 55.4063 46.0543 55.4433C46.3735 55.5505 46.6777 55.7021 46.9556 55.887C47.1471 56.0053 47.3274 56.1458 47.4851 56.301C48.146 56.9037 48.5966 57.7208 48.7131 58.6266C48.7844 59.1368 48.7431 59.6286 48.6229 60.0833C48.6229 60.0907 48.6154 60.1018 48.6154 60.1055C48.6079 60.1166 48.6042 60.1277 48.5966 60.1351C48.5966 60.1425 48.5966 60.1462 48.5966 60.1462C48.5891 60.1536 48.5891 60.1573 48.5891 60.1647V60.172C48.5816 60.172 48.5816 60.172 48.5816 60.172V60.1795C48.4014 60.808 48.0709 61.3626 47.6203 61.8136C47.5827 61.8506 47.5489 61.8839 47.5114 61.9245C47.3987 62.0318 47.271 62.139 47.1208 62.2388C47.0795 62.2684 47.0382 62.298 46.9894 62.3275C46.9594 62.346 46.9368 62.3645 46.9068 62.3793C46.7791 62.4569 46.6552 62.5272 46.5237 62.5937C46.4411 62.6307 46.3548 62.6714 46.2646 62.7047C46.1257 62.7638 45.983 62.8119 45.8328 62.8451C45.7427 62.8747 45.645 62.8932 45.5511 62.9117C45.4385 62.9339 45.3221 62.9487 45.2019 62.9635C45.093 62.9709 44.9916 62.9819 44.8827 62.9746H44.8226L44.7851 62.9819C44.402 62.9819 44.0115 62.9228 43.6322 62.8119C43.5646 62.7897 43.5008 62.7712 43.4332 62.7416C43.3956 62.7342 43.3656 62.7194 43.3318 62.7047C42.8211 62.505 42.3704 62.2129 41.9987 61.8506C41.3565 61.2221 40.9472 60.3939 40.8495 59.477C40.7519 58.756 40.6768 58.0794 40.6017 57.4398C40.5904 57.3511 40.5829 57.2623 40.5717 57.1736L40.5529 56.8261V56.8187L40.5416 56.8113C40.1886 53.4838 40.0121 50.0712 40.0121 46.6476C40.0121 46.1632 40.0196 45.6752 40.0234 45.1909C40.0309 44.5882 40.0459 43.9819 40.0647 43.3792C40.076 43.0169 40.0872 42.6583 40.106 42.2959C40.1135 42.1665 40.1173 42.0334 40.1248 41.9077C40.4327 40.5508 40.8721 39.1718 41.3565 37.863C44.7738 28.6716 52.1529 21.658 61.4622 18.6041C61.9353 19.4655 62.3672 20.3529 62.7577 21.2476C63.0206 21.8392 63.2572 22.4418 63.4787 23.0592C64.6917 26.4311 65.3188 30.0063 65.3188 33.6703C65.3151 38.1181 64.4138 42.3847 62.6338 46.3851Z" fill="#263168"/>
</svg>
