<svg width="20" height="22" viewBox="0 0 20 22" fill="none" xmlns="http://www.w3.org/2000/svg">
<path d="M14.1768 21.9183C12.0419 21.9105 10.3148 21.2248 8.76177 20.128C5.41019 17.7586 2.79433 14.7224 1.00511 10.9981C0.127981 9.17003 -0.257372 7.23217 0.183136 5.20173C0.48651 3.75403 1.27246 2.45521 2.40976 1.52213C2.72829 1.25459 3.03673 0.972945 3.35604 0.708548C4.0941 0.0934521 4.83993 0.0981595 5.50497 0.787004C6.50952 1.83195 7.29161 3.07351 7.80307 4.43521C8.15889 5.36884 7.95301 6.21538 7.19086 6.88618C6.8397 7.19529 6.48621 7.50441 6.11174 7.78292C5.21596 8.44902 4.94637 9.16296 5.39931 10.2041C5.74772 10.99 6.17935 11.7354 6.68665 12.4275C7.57699 13.6522 8.57609 14.7937 9.83158 15.6583C10.2192 15.9164 10.6404 16.1189 11.0832 16.2601C11.6604 16.4515 12.1778 16.2601 12.6137 15.838C12.9602 15.5046 13.3028 15.1664 13.661 14.8455C14.6663 13.9441 15.4362 13.8256 16.5899 14.5082C17.7202 15.1787 18.7205 16.0509 19.5422 17.0823C20.2189 17.9281 20.1404 18.6624 19.3402 19.3897C18.54 20.117 17.7763 20.8718 16.7655 21.3221C15.9482 21.686 15.0695 21.8884 14.1768 21.9183Z" fill="white"/>
</svg>
